<svg xmlns="http://www.w3.org/2000/svg" width="1024" height="1024" shape-rendering="geometricPrecision"
    text-rendering="geometricPrecision" image-rendering="optimizeQuality" fill-rule="evenodd" clip-rule="evenodd">
    <path fill="#020202"
        d="M725.5 808.5c-10.665 10.667-22.998 18.834-37 24.5-11.835 2.866-23.168 1.7-34-3.5-9.7 11.363-20.7 21.363-33 30-30.415 19.509-63.082 32.342-98 38.5-34.26 6.02-66.26.353-96-17-20.945-15.519-35.279-35.352-43-59.5a204.195 204.195 0 01-9-55c-10.857 3.151-21.857 3.651-33 1.5-14.367-3.955-27.701-10.121-40-18.5-34.365-29.037-58.532-65.037-72.5-108a311.615 311.615 0 01-10-44c-6.828-50.265 5.172-95.265 36-135a577.204 577.204 0 0120.5-20 83.98 83.98 0 00-11-14 199.854 199.854 0 00-13.5-23c-19.469-37.513-25.469-77.18-18-119 16.756-66.777 55.422-116.777 116-150 15.686-8.038 32.186-13.538 49.5-16.5 21.31-3.675 40.976.158 59 11.5a5835.23 5835.23 0 0011 9c1.243 2.253 2.91 4.253 5 6 15.688-19.02 35.021-33.02 58-42 15.027-4.561 30.361-6.394 46-5.5 27.106 3.315 52.439 12.148 76 26.5 67.266 45.324 111.432 106.658 132.5 184 8.908 36.154 7.075 71.654-5.5 106.5-10.858 24.193-27.191 43.86-49 59 44.386 15.066 69.886 45.899 76.5 92.5 3.378 30.698 1.378 61.031-6 91-12.256 48.958-33.423 93.625-63.5 134a158.268 158.268 0 01-14 16z"/>
    <path fill="#8e8e8e"
        d="M582.5 125.5a180.675 180.675 0 00-35 2c.111-.617.444-1.117 1-1.5 11.463-1.698 22.796-1.865 34-.5z" />
    <path fill="#fefefe"
        d="M582.5 125.5a85.733 85.733 0 0114 3c4.094 1.779 8.427 3.112 13 4a188.573 188.573 0 0129 13c40.238 25.903 72.238 59.57 96 101l15.5 31a443.413 443.413 0 0111.5 34 156.956 156.956 0 013 19 196.41 196.41 0 011 47c-7.401 40.565-29.734 70.065-67 88.5-6.873 3.509-14.207 5.176-22 5-4.315 1.482-7.315 4.316-9 8.5-6.634.997-13.3 1.33-20 1a576.767 576.767 0 01-61 0c-27.8-4.638-48.133-19.471-61-44.5.881-3.231.547-6.398-1-9.5a493.774 493.774 0 01-1-42 244.312 244.312 0 002-11c2.335-6.683 3.669-13.683 4-21a3757.955 3757.955 0 0112-43c-2.681-6.153-6.514-7.153-11.5-3a125.458 125.458 0 01-3.5 11c-1.268 2.405-1.935 5.072-2 8a455.71 455.71 0 00-6 24c-1.149.291-1.816 1.124-2 2.5a356.054 356.054 0 00-3 18.5v3c-1.248.834-1.915 2.167-2 4-1.981 13.456-2.315 26.79-1 40 .869 2.217 1.202 4.55 1 7-2.177-.086-4.177-.753-6-2-1.424-2.218-3.424-3.718-6-4.5-17.126-17.41-28.126-38.243-33-62.5a211.301 211.301 0 01-4.5-33c-.383-.556-.883-.889-1.5-1a302.637 302.637 0 010-46 232.14 232.14 0 014-37c1.424-2.015 2.09-4.348 2-7a706 706 0 008-36 101.637 101.637 0 004-9c2.641-1.01 4.641-2.676 6-5 1.54-2.338 2.206-5.005 2-8 11.779-18.263 27.446-32.429 47-42.5a53.93 53.93 0 0114-3.5 180.675 180.675 0 0135-2z" />
    <path fill="#9d9d9d"
        d="M435.5 148.5c-14.989-3.96-29.989-3.96-45 0 1.526-1.63 3.526-2.463 6-2.5 12.751-2.269 25.417-1.935 38 1 .556.383.889.883 1 1.5z" />
    <path fill="#fdfdfd"
        d="M435.5 148.5c2.312.82 4.646 1.653 7 2.5a69.989 69.989 0 0110.5 9.5 177.786 177.786 0 0112 23 98.698 98.698 0 01-5.5 25c-1.149.291-1.816 1.124-2 2.5a336.214 336.214 0 00-3 16.5v3c-1.193.47-1.86 1.47-2 3a129.567 129.567 0 00-2 17 182.504 182.504 0 00-2 24c-.79 1.109-1.29 2.442-1.5 4l-.5 20c.003 7.035.67 13.702 2 20-.224 6.239.443 12.239 2 18 .23 6.714.897 13.38 2 20a606.459 606.459 0 00-34.5 37 4.934 4.934 0 00-.5 3c-1.175.219-2.175-.114-3-1a262.966 262.966 0 01-30.5-38 161.451 161.451 0 01-14.5-39 461.437 461.437 0 01-3.5-33c-.383-.556-.883-.889-1.5-1a5349.117 5349.117 0 01-1.5-51c-.383-.556-.883-.889-1.5-1-4.278-3.149-7.778-2.482-10.5 2a664.6 664.6 0 001.5 54c.42 8.291 1.753 16.291 4 24 2.759 19.277 9.092 37.277 19 54a653.555 653.555 0 0033 40.5 581.605 581.605 0 00-19 34.5c-13.34-.111-26.673-.445-40-1h-13c-.418-.722-1.084-1.222-2-1.5-8.994-.5-17.994-.666-27-.5-16.736-17.122-29.736-36.788-39-59-.629-2.897-1.629-5.564-3-8-1.238-1.714-1.905-3.714-2-6a130.434 130.434 0 00-3-11 76.861 76.861 0 01-3-11 527.7 527.7 0 01-1-36c4.31-35.107 17.476-66.44 39.5-94 22.233-27.587 49.567-48.253 82-62a86.033 86.033 0 0112.5-3c15.011-3.96 30.011-3.96 45 0z" />
    <path fill="#fadf30"
        d="M465.5 390.5c.492 2.319 1.492 4.319 3 6 7.42 13.308 17.086 24.808 29 34.5a97.805 97.805 0 0015 8 933.057 933.057 0 0117.5 24.5 101.635 101.635 0 0012.5 11 254.587 254.587 0 00-2 14l-2 5c-1.962 7.097-3.296 14.43-4 22-.627 4.641-.96 9.307-1 14-1.187 3.446-1.854 7.113-2 11-1.574 1.602-2.241 3.602-2 6-1.086.12-1.753.787-2 2-1.336 5.685-2.67 11.352-4 17v3c-1.193.47-1.86 1.47-2 3a102.136 102.136 0 00-2 20c-.667 11.507-1.333 23.174-2 35a18.074 18.074 0 01-8 2 123.888 123.888 0 01-19 1c-20.272-3.47-38.272-11.803-54-25-18.287-15.287-31.954-33.954-41-56 .09-2.652-.576-4.985-2-7-1.428-2.913-2.428-6.079-3-9.5 1.285-2.547 1.285-5.047 0-7.5-2.316-14.56-2.65-29.227-1-44 3.264-6.82 5.264-14.153 6-22 10.395-27.405 25.728-51.739 46-73 2.087-1.085 3.42-2.751 4-5 3.479-4.824 7.813-8.49 13-11a150.003 150.003 0 007 21z" />
    <path fill="#fdfdfd"
        d="M306.5 451.5c7.983.666 15.983.999 24 1h12c.418.722 1.084 1.222 2 1.5 12.679.345 25.345.845 38 1.5v4c-1.424 2.015-2.09 4.348-2 7v1c-1.149.291-1.816 1.124-2 2.5a254.822 254.822 0 00-3 50.5c-11.28 1.734-20.78 7.067-28.5 16a441.3 441.3 0 00-22 34 163.486 163.486 0 01-13 17c-2.389 3.099-2.889 6.433-1.5 10 4.239 2.954 7.905 2.287 11-2a405.021 405.021 0 0029.5-45c4.948-6.953 11.115-12.453 18.5-16.5 3-.667 6-.667 9 0 5.923 23.926 17.09 45.092 33.5 63.5a537.454 537.454 0 0013.5 13 218.096 218.096 0 00-8 28v2c-1.086.12-1.753.787-2 2a105.505 105.505 0 00-3 14 578.97 578.97 0 00-18 59c-1.086.12-1.753.787-2 2l-2 8a6.846 6.846 0 01-1 4c-5.502 1.919-10.169 5.086-14 9.5a29.278 29.278 0 01-7 2.5c-9.076 1.455-18.076 1.122-27-1-9.105-2.553-17.439-6.719-25-12.5-27.765-23.693-47.431-52.86-59-87.5-.554-3.246-1.554-6.246-3-9-4.047-10.882-6.714-22.215-8-34a675.883 675.883 0 01-1-45 346.372 346.372 0 012-13c4.466-26.414 16.132-49.081 35-68a284.749 284.749 0 0124-20z" />
    <path fill="#fdfdfd"
        d="M577.5 490.5c4.207 1.973 8.874 3.14 14 3.5a1618.8 1618.8 0 0078-.5c2.1 2.116 4.433 3.783 7 5 1.788 1.122 3.788 1.289 6 .5 3.166-.322 5.833-1.489 8-3.5 29.988-1.625 55.154 8.375 75.5 30 8.219 11.898 13.719 24.898 16.5 39a371.479 371.479 0 01-2 74 208.978 208.978 0 01-6 28c-1.086.12-1.753.787-2 2l-3 12a494.51 494.51 0 01-8 23.5 818.922 818.922 0 01-21.5 43.5c-11.351 17.822-24.517 34.322-39.5 49.5a138.336 138.336 0 01-16.5 10.5c-5.847 2.633-11.681 2.633-17.5 0a61.239 61.239 0 01-4-8 47.289 47.289 0 01-6-5.5c-5.257-1.426-9.757-.259-13.5 3.5a1328.437 1328.437 0 01-63-59c-17.781-20.387-31.614-43.22-41.5-68.5a97.852 97.852 0 01-3-13.5 125.43 125.43 0 01-3.5-25 760.316 760.316 0 01-.5-39v-4c.722-.418 1.222-1.084 1.5-2 .6-5.181 1.434-10.181 2.5-15 4.822 15.98 12.988 29.98 24.5 42a1074.891 1074.891 0 0131 31 96.311 96.311 0 0114 28c3.043 2.408 6.209 2.574 9.5.5 2.269-2.362 2.602-5.029 1-8a102.376 102.376 0 00-11.5-22.5 592.679 592.679 0 00-40-42c-9.339-11.014-15.173-23.681-17.5-38a234.84 234.84 0 010-43 41.73 41.73 0 011-9c1.962-5.047 3.296-10.381 4-16a188.78 188.78 0 012-12 505.412 505.412 0 0024 8z" />
    <path fill="#fdfdfd"
        d="M476.5 642.5c-.722.418-1.222 1.084-1.5 2a173.25 173.25 0 00-.5 40c.029 2.769.695 5.103 2 7v4c.452 3.663.952 7.33 1.5 11 .278.916.778 1.582 1.5 2a232 232 0 013 16 1112.99 1112.99 0 009 29c.912 5.079 2.579 9.746 5 14 4.348 16.038 8.682 32.038 13 48 5.718 3.474 9.384 1.974 11-4.5a2498.074 2498.074 0 01-7-27.5c.329-2.728-.337-5.062-2-7a56381.358 56381.358 0 00-14-44 191.222 191.222 0 00-3-16.5c-.184-1.376-.851-2.209-2-2.5.284-1.915-.049-3.581-1-5 .015-4.06-.485-8.06-1.5-12-.383-.556-.883-.889-1.5-1a388.339 388.339 0 010-54c10.188.605 20.188-.395 30-3 .607.124.94.457 1 1a159.204 159.204 0 002 16.5c.184 1.376.851 2.209 2 2.5v3c.888 4.573 2.221 8.906 4 13a275.203 275.203 0 0034.5 61c9.684 11.691 20.184 22.858 31.5 33.5a2589.696 2589.696 0 0044 39.5 251.778 251.778 0 01-8.5 12 204.462 204.462 0 01-39.5 29 1588.1 1588.1 0 01-19 8c-2.901.607-5.234 1.941-7 4-9.348 2.684-18.682 5.35-28 8-6.664.785-13.33 1.618-20 2.5-.556.383-.889.883-1 1.5-13.421 1.459-26.755 1.126-40-1-4.421-1.751-9.088-3.084-14-4-21.351-7.518-36.851-21.518-46.5-42a59.499 59.499 0 01-6.5-19c-3.569-18.936-5.569-37.936-6-57 3.943-6.172 3.943-12.338 0-18.5a230.506 230.506 0 017-23.5c.617-.111 1.117-.444 1.5-1l2.5-10a179.37 179.37 0 017-25c2.229-2.854 3.562-6.187 4-10 .426-3.927 1.426-7.593 3-11 1.446-2.754 2.446-5.754 3-9 .221-2.567.888-4.901 2-7 1.446-2.754 2.446-5.754 3-9a51.569 51.569 0 001-7 556.399 556.399 0 0128 14.5 62.56 62.56 0 0013 3.5v5z" />
</svg>