<svg width="421.669" height="236.707" xmlns:xlink="http://www.w3.org/1999/xlink" xmlns="http://www.w3.org/2000/svg">
    <defs>
        <linearGradient id="prefix__a">
            <stop offset="0" stop-color="#26d5f0" />
            <stop offset="1" stop-color="#8a0be8" />
        </linearGradient>
        <linearGradient xlink:href="#prefix__a" id="prefix__b" x1="195" y1="259.063" x2="316.691" y2="259.063"
            gradientUnits="userSpaceOnUse" gradientTransform="translate(-58.56 -61.618) scale(1.2549)" />
    </defs>
    <g stroke="#000" stroke-width="2.51" stroke-linecap="round" stroke-linejoin="round">
        <path
            d="M9.429 3.98l-4.41 38.8 40.105.653s1.914 61.044 1.429 91.567c-.485 30.522-4.339 91.567-4.339 91.567l49.852 1.206-2.48-179.33 38.722 1.07 5.74-39.897z" />
        <path
            d="M5.664 2.098l-4.41 38.8 40.105.652s1.914 61.045 1.43 91.567c-.486 30.523-4.34 91.567-4.34 91.567l49.852 1.207L85.82 46.56l38.723 1.07 5.74-39.896z"
            fill="#26d5f0" />
    </g>
    <g stroke="#000" stroke-width="2.51" stroke-linecap="round" stroke-linejoin="round">
        <path
            d="M228.64 5.647l-43.294 3.137-47.687 211.923 42.667 14.745 11.137-50.04 40.785-.627s8.313 50.353 10.823 50.353 44.79-9.95 44.79-9.95zm-19.27 72.424s15.307 67.44 14.42 69.88c-.888 2.44-26.62-.666-26.62-.666z" />
        <path
            d="M278.383 148.579l-43.294 3.137-47.687 211.923 42.667 14.745 11.138-50.04 40.784-.627s8.314 50.353 10.824 50.353 44.79-9.951 44.79-9.951zm-19.27 72.424s15.307 67.44 14.42 69.88c-.888 2.44-26.62-.666-26.62-.666z"
            fill="url(#prefix__b)" transform="translate(-53.508 -147.324)" />
    </g>
    <g stroke="#000" stroke-width="2.51" stroke-linecap="round" stroke-linejoin="round">
        <path
            d="M295.794 4.392l-4.409 38.801 40.104.652s1.915 61.044 1.43 91.567c-.485 30.522-4.339 91.567-4.339 91.567l49.851 1.206-2.48-179.33 38.723 1.07 5.74-39.897z" />
        <path
            d="M292.03 2.51l-4.41 38.8 40.105.652s1.914 61.045 1.429 91.567c-.485 30.523-4.339 91.568-4.339 91.568l49.852 1.206-2.48-179.33 38.722 1.07 5.74-39.897z"
            fill="#8a0be8" />
    </g>
</svg>