<?xml version="1.0" encoding="UTF-8" standalone="no"?>
<svg width="512" height="512" shape-rendering="geometricPrecision" text-rendering="geometricPrecision"
   image-rendering="optimizeQuality" fill-rule="evenodd" clip-rule="evenodd" version="1.1" id="svg9"
   sodipodi:docname="dream.svg" xml:space="preserve" inkscape:version="1.4.2 (f4327f4, 2025-05-13)"
   xmlns:inkscape="http://www.inkscape.org/namespaces/inkscape"
   xmlns:sodipodi="http://sodipodi.sourceforge.net/DTD/sodipodi-0.dtd" xmlns:xlink="http://www.w3.org/1999/xlink"
   xmlns="http://www.w3.org/2000/svg" xmlns:svg="http://www.w3.org/2000/svg">
   <defs id="defs9">
      <linearGradient id="linearGradient5" inkscape:collect="always">
         <stop style="stop-color:#cd85c6;stop-opacity:1;" offset="0" id="stop5" />
         <stop style="stop-color:#491a40;stop-opacity:1;" offset="1" id="stop6" />
      </linearGradient>
      <linearGradient inkscape:collect="always" xlink:href="#linearGradient5" id="linearGradient6" x1="96.641832"
         y1="158.54646" x2="345.53994" y2="158.54646" gradientUnits="userSpaceOnUse" />
   </defs>
   <sodipodi:namedview id="namedview9" pagecolor="#ffffff" bordercolor="#111111" borderopacity="1"
      inkscape:showpageshadow="0" inkscape:pageopacity="0" inkscape:pagecheckerboard="1" inkscape:deskcolor="#d1d1d1"
      inkscape:zoom="0.75958733" inkscape:cx="149.42324" inkscape:cy="281.07367" inkscape:window-width="1366"
      inkscape:window-height="715" inkscape:window-x="-8" inkscape:window-y="-8" inkscape:window-maximized="1"
      inkscape:current-layer="layer6" />

   <g inkscape:groupmode="layer" id="layer1" inkscape:label="Main">
      <g inkscape:groupmode="layer" id="layer2" inkscape:label="Handle" style="display:inline">
         <path
            style="fill:#c8e1b4;fill-opacity:1;stroke:#160000;stroke-width:5;stroke-linecap:round;stroke-linejoin:round;stroke-opacity:1"
            d="m 220.8436,384.41926 c 10.42091,30.41666 66.19694,23.34812 69.87798,-0.0399 -16.30195,-28.55988 -10.4726,-142.66209 -13.59742,-214.55027 l -50.68542,0.65825 c -1.86505,71.31064 7.60078,182.6332 -5.59514,213.93192 z"
            id="path1" sodipodi:nodetypes="ccccc" />
      </g>
      <g inkscape:groupmode="layer" id="layer3" inkscape:label="Mouth" style="display:inline">
         <path
            style="fill:#c8e1b4;fill-opacity:1;stroke:#000000;stroke-width:5;stroke-linecap:round;stroke-linejoin:round;stroke-opacity:1"
            d="m 271.52902,284.36493 41.79901,0.32913 1.3165,-43.44464 -42.45726,0.65825" id="path4" />
         <path
            style="display:inline;fill:#c8e1b4;fill-opacity:1;stroke:#000000;stroke-width:5;stroke-linecap:round;stroke-linejoin:round;stroke-opacity:1"
            d="m 313.65716,305.75813 c -15.2088,-7.26647 -22.46223,-60.66987 0,-79.64851 27.4482,17.60586 22.1501,71.7035 0,79.64851 z"
            id="path2" sodipodi:nodetypes="ccc" />
         <path
            style="display:inline;fill:#000000;fill-opacity:1;stroke:none;stroke-width:5;stroke-linecap:round;stroke-linejoin:round;stroke-opacity:1"
            d="m 317.93579,243.88243 c -6.06763,0.84504 -4.17197,41.16338 -1.3165,37.02668 6.88891,7.5438 9.12712,-33.60403 1.3165,-37.02668 z"
            id="path3" sodipodi:nodetypes="ccc" />
      </g>
      <g inkscape:groupmode="layer" id="layer4" inkscape:label="Head" style="display:inline">
         <path
            style="display:inline;fill:url(#linearGradient6);stroke:#000000;stroke-width:5;stroke-linecap:round;stroke-linejoin:round;stroke-opacity:1"
            d="m 99.141823,193.6291 c 9.926587,13.58818 25.755997,18.83099 48.407277,14.42909 13.63384,20.17788 27.73442,30.96566 46.08,43.28728 38.85297,-36.27071 81.93791,-69.97659 149.41092,-88.90183 C 288.03362,13.410612 114.32545,46.683889 99.141823,193.6291 Z"
            id="path5" sodipodi:nodetypes="ccccc" />
         <g inkscape:groupmode="layer" id="layer5" inkscape:label="Spot">
            <ellipse
               style="fill:#521f4d;fill-opacity:1;stroke:none;stroke-width:5;stroke-linecap:round;stroke-linejoin:round;stroke-opacity:1"
               id="path6" ry="26.49465" rx="31.760666" cy="149.25868" cx="150.90431" />
            <ellipse
               style="fill:#521f4d;fill-opacity:1;stroke:none;stroke-width:5;stroke-linecap:round;stroke-linejoin:round;stroke-opacity:1"
               id="path7" cx="234.82182" cy="121.71637" rx="52.130909" ry="30.254547" />
            <ellipse
               style="fill:#521f4d;fill-opacity:1;stroke:none;stroke-width:5;stroke-linecap:round;stroke-linejoin:round;stroke-opacity:1"
               id="path8" cx="195.14525" cy="197.64194" rx="19.638641" ry="20.480001" />
            <path
               style="fill:#521f4d;fill-opacity:1;stroke:none;stroke-width:5;stroke-linecap:round;stroke-linejoin:round;stroke-opacity:1"
               d="m 162.0946,86.56016 c 6.07919,-5.053155 31.55913,-17.696944 53.81211,-18.143076 -13.91568,24.705701 -33.81308,24.28867 -53.81211,18.143076 z"
               id="path9" sodipodi:nodetypes="ccc" />
         </g>
      </g>
      <g inkscape:groupmode="layer" id="layer6" inkscape:label="Eyes" style="display:inline">
         <g inkscape:groupmode="layer" id="layer8" inkscape:label="Right" style="display:inline">
            <path
               style="display:inline;fill:#000000;fill-opacity:1;stroke:none;stroke-width:5;stroke-linecap:round;stroke-linejoin:round;stroke-opacity:1"
               d="m 276.46591,195.0072 c 6.72128,40.9992 30.92627,19.673 20.8995,-11.84854 0.006,-4.73223 -24.64119,4.46266 -20.8995,11.84854 z"
               id="path11" sodipodi:nodetypes="ccc" />
            <path
               style="display:inline;fill:#fffaff;fill-opacity:1;stroke:none;stroke-width:5;stroke-linecap:round;stroke-linejoin:round;stroke-opacity:1"
               d="m 282.2982,206.37092 c -0.37145,12.23512 8.55227,2.33934 2.38545,-0.11636 -0.84511,-0.4358 -1.64988,-0.48839 -2.38545,0.11636 z"
               id="path14" sodipodi:nodetypes="ccc" />
            <path
               style="display:inline;fill:#fffaff;fill-opacity:1;stroke:none;stroke-width:5;stroke-linecap:round;stroke-linejoin:round;stroke-opacity:1"
               d="m 286.02183,193.33819 -0.29091,9.42546 7.15637,-0.40728 0.52363,-9.42545 z" id="path15" />
         </g>
         <g inkscape:groupmode="layer" id="layer7" inkscape:label="Left" style="display:inline">
            <path
               style="display:inline;fill:#000000;fill-opacity:1;stroke:none;stroke-width:5;stroke-linecap:round;stroke-linejoin:round;stroke-opacity:1"
               d="m 246.80729,210.09455 c 5.50469,31.03498 34.3679,18.39442 23.91272,-15.24364 -8.61629,4.60369 -16.84736,9.3992 -23.91272,15.24364 z"
               id="path10" sodipodi:nodetypes="ccc" />
            <path
               style="fill:#fffaff;fill-opacity:1;stroke:none;stroke-width:5;stroke-linecap:round;stroke-linejoin:round;stroke-opacity:1"
               d="m 257.25092,212.80001 c -8.84345,0.88809 -6.68906,8.53171 0.36364,1.96364 0.94984,-1.11704 1.09394,-1.88616 -0.36364,-1.96364 z"
               id="path12" sodipodi:nodetypes="ccc" />
            <path
               style="fill:#fffaff;fill-opacity:1;stroke:none;stroke-width:5;stroke-linecap:round;stroke-linejoin:round;stroke-opacity:1"
               d="m 265.36729,211.25819 c 8.35593,-7.72503 2.92787,-10.98783 -4.01455,-7.44727 -5.4549,2.44228 -7.29713,12.46804 4.01455,7.44727 z"
               id="path13" sodipodi:nodetypes="ccc" />
         </g>
         <g inkscape:groupmode="layer" id="layer9" inkscape:label="Eyebrow" />
      </g>
   </g>
</svg>