<?xml version="1.0" encoding="UTF-8" standalone="no"?>
<svg width="512" height="512" shape-rendering="geometricPrecision" text-rendering="geometricPrecision"
   image-rendering="optimizeQuality" fill-rule="evenodd" clip-rule="evenodd" version="1.1" id="svg9"
   sodipodi:docname="unnamed.svg" xml:space="preserve" inkscape:version="1.4.2 (f4327f4, 2025-05-13)"
   xmlns:inkscape="http://www.inkscape.org/namespaces/inkscape"
   xmlns:sodipodi="http://sodipodi.sourceforge.net/DTD/sodipodi-0.dtd" xmlns:xlink="http://www.w3.org/1999/xlink"
   xmlns="http://www.w3.org/2000/svg" xmlns:svg="http://www.w3.org/2000/svg">
   <defs id="defs9">
      <linearGradient id="linearGradient6" inkscape:collect="always">
         <stop style="stop-color:#aae600;stop-opacity:1;" offset="0" id="stop6" />
         <stop style="stop-color:#3cc83c;stop-opacity:1;" offset="1" id="stop7" />
      </linearGradient>
      <linearGradient id="linearGradient1" inkscape:collect="always">
         <stop style="stop-color:#aae600;stop-opacity:1;" offset="0" id="stop1" />
         <stop style="stop-color:#3cc83c;stop-opacity:1;" offset="1" id="stop2" />
      </linearGradient>
      <linearGradient inkscape:collect="always" xlink:href="#linearGradient1" id="linearGradient2" x1="153.74323"
         y1="160.99213" x2="153.74323" y2="364.177" gradientUnits="userSpaceOnUse"
         gradientTransform="matrix(1.291894,0,0,1.291894,-50.59705,-74.623714)" />
      <linearGradient inkscape:collect="always" xlink:href="#linearGradient6" id="linearGradient7" x1="336.68622"
         y1="176.43854" x2="336.68622" y2="354.18958" gradientUnits="userSpaceOnUse"
         gradientTransform="matrix(1.291894,0,0,1.291894,-50.59705,-74.623714)" />
   </defs>
   <sodipodi:namedview id="namedview9" pagecolor="#ffffff" bordercolor="#111111" borderopacity="1"
      inkscape:showpageshadow="0" inkscape:pageopacity="0" inkscape:pagecheckerboard="1" inkscape:deskcolor="#d1d1d1"
      inkscape:zoom="0.53710935" inkscape:cx="179.66546" inkscape:cy="265.3091" inkscape:window-width="1366"
      inkscape:window-height="715" inkscape:window-x="-8" inkscape:window-y="-8" inkscape:window-maximized="1"
      inkscape:current-layer="layer1" />

   <g inkscape:groupmode="layer" id="layer1" inkscape:label="Main">
      <g inkscape:groupmode="layer" id="layer3" inkscape:label="名">
         <path id="path4"
            style="fill:url(#linearGradient7);fill-rule:evenodd;stroke:#005028;stroke-width:10.3352;stroke-linecap:round;stroke-linejoin:round;stroke-dasharray:none;stroke-opacity:1"
            d="m 363.70986,145.45752 c -19.34712,45.03445 -44.79868,66.58469 -74.56147,71.55881 2.99845,23.62243 25.11713,30.72933 45.09769,39.68538 -1.30297,12.71353 -38.32809,15.22186 -59.53056,22.24985 12.05995,23.65995 34.60743,34.21003 55.92235,46.30128 l -10.2216,52.91467 c -3.93019,9.38875 0.53928,12.84886 10.2216,12.62878 44.9126,-1.6177 86.40829,-9.01556 125.29026,-4.60263 6.66028,-1.49749 9.32565,-0.71098 11.3059,-13.43776 1.98023,-12.72677 1.78371,-43.93881 2.9688,-47.28348 1.65628,-8.16525 -1.94763,-20.59799 -3.4559,-31.92779 -5.75735,-8.91058 -30.68157,-18.18587 -44.70755,-15.1936 16.59231,-22.29972 40.74712,-20.91272 56.14194,-47.48198 -4.2551,-10.7907 -19.7903,-45.92106 -31.87094,-57.30902 -13.87053,8.76239 -32.65154,12.64746 -46.52085,12.18591 1.24184,-17.85216 -21.9726,-27.55256 -36.07967,-40.28842 z m 15.05084,78.21868 14.80226,9.1019 -21.51444,20.21112 -10.31521,-12.38896 z m -9.68898,102.6591 33.16534,0.42643 1.70066,12.33103 -35.29242,2.12457 z"
            sodipodi:nodetypes="cccccccccccccccccccccccccc" />
      </g>
      <g inkscape:groupmode="layer" id="layer2" inkscape:label="无">
         <path
            style="fill:url(#linearGradient2);fill-rule:evenodd;stroke:#005028;stroke-width:10.3352;stroke-linecap:round;stroke-linejoin:round;stroke-dasharray:none;stroke-opacity:1"
            d="m 99.088389,166.88728 9.698181,45.88198 c 10.85306,0.46279 40.30095,1.39343 29.25412,27.04111 -31.58114,14.78625 -55.905961,9.62719 -91.642679,12.98561 8.242557,15.92196 12.126019,30.62985 12.295115,44.53344 15.617888,-0.92853 32.926173,0.7646 36.830093,10.48513 -23.245973,13.83697 -36.201764,17.46421 -73.579648,25.07924 11.87826,24.91555 46.091496,28.14649 74.004858,34.88895 19.570981,-3.04559 32.080981,-26.9672 55.059831,-48.90913 9.74294,19.7462 20.96659,45.04097 37.47018,49.01232 l 82.07106,-0.60133 c -3.71332,-19.77431 -6.10767,-48.91847 -28.52353,-76.52581 -6.80294,39.75788 -29.33886,31.87856 -53.89978,29.68343 l -4.91372,-29.00917 89.39006,-12.33586 c 4.40313,-12.58301 0.41154,-26.78038 -24.53835,-45.00821 -25.57178,-1.79694 -48.91247,-1.04408 -66.5827,6.1893 l -2.68457,-27.2229 34.70032,-3.84448 c 4.30833,-15.96046 -1.3157,-31.92094 -30.88607,-47.88139 -25.98513,9.86567 -58.27191,11.18413 -83.522771,5.55777 z"
            id="path1" sodipodi:nodetypes="ccccccccccccccccccccc" />
      </g>
   </g>
</svg>