<?xml version="1.0" encoding="UTF-8" standalone="no"?>
<svg viewBox="0 0 512 512" fill="#ffffff" version="1.1" id="svg8" sodipodi:docname="steam.svg"
   inkscape:version="1.4.2 (f4327f4, 2025-05-13)" width="512" height="512"
   xmlns:inkscape="http://www.inkscape.org/namespaces/inkscape"
   xmlns:sodipodi="http://sodipodi.sourceforge.net/DTD/sodipodi-0.dtd" xmlns:xlink="http://www.w3.org/1999/xlink"
   xmlns="http://www.w3.org/2000/svg" xmlns:svg="http://www.w3.org/2000/svg">
   <sodipodi:namedview id="namedview8" pagecolor="#ffffff" bordercolor="#111111" borderopacity="1"
      inkscape:showpageshadow="0" inkscape:pageopacity="0" inkscape:pagecheckerboard="1" inkscape:deskcolor="#d1d1d1"
      inkscape:zoom="0.52884615" inkscape:cx="302.54545" inkscape:cy="342.25454" inkscape:window-width="1366"
      inkscape:window-height="715" inkscape:window-x="-8" inkscape:window-y="-8" inkscape:window-maximized="1"
      inkscape:current-layer="layer1" />
   <defs id="defs7">
      <linearGradient id="A" x2="32.010761" x1="32.010761" y2="63.965492" y1="0"
         gradientTransform="scale(0.99946079,1.0005395)" gradientUnits="userSpaceOnUse">
         <stop stop-color="#111d2e" offset="0%" id="stop1" />
         <stop stop-color="#051839" offset="21.2%" id="stop2" />
         <stop stop-color="#0a1b48" offset="40.7%" id="stop3" />
         <stop stop-color="#132e62" offset="58.1%" id="stop4" />
         <stop stop-color="#144b7e" offset="73.8%" id="stop5" />
         <stop stop-color="#136497" offset="87.3%" id="stop6" />
         <stop stop-color="#1387b8" offset="100%" id="stop7" />
      </linearGradient>
   </defs>
   <g inkscape:groupmode="layer" id="layer2" inkscape:label="Main" transform="translate(3.0763573e-5,2.0545925e-4)">
      <g inkscape:groupmode="layer" id="layer8" inkscape:label="Centre">
         <path
            style="fill:#ffff32;fill-opacity:1;stroke:#000000;stroke-width:6.26503;stroke-linecap:round;stroke-linejoin:round;stroke-opacity:1"
            d="m 295.22739,138.83752 -134.13996,1.16644 2.33286,204.12604 142.30501,3.4993 z" id="path11" />

      </g>

      <g inkscape:groupmode="layer" id="layer3" inkscape:label="Petal1">
         <path
            style="fill:#ffffff;fill-opacity:1;stroke:#000000;stroke-width:6.26503;stroke-linecap:round;stroke-linejoin:round;stroke-opacity:1"
            d="M 227.57419,167.99839 C 208.11395,-13.190538 317.09339,8.774225 371.79311,71.672545 426.13065,134.1544 443.63794,265.43588 280.51153,235.23918 272.77135,228.222 265.32404,222.53676 258.4847,211.73968 241.94733,203.10977 232.01696,188.17316 227.57419,167.99839 Z"
            id="path9" sodipodi:nodetypes="csccc" />

         <path
            style="fill:#ffffff;fill-opacity:1;stroke:#000000;stroke-width:6.26503;stroke-linecap:round;stroke-linejoin:round;stroke-opacity:1"
            d="m 264.57512,218.51129 c -9.47465,-27.22444 -1.76835,-52.02256 6.18595,-77.53061" id="path10"
            sodipodi:nodetypes="cc" />

      </g>

      <g inkscape:groupmode="layer" id="layer4" inkscape:label="Petal2">
         <path
            style="fill:#ffffff;fill-opacity:1;stroke:#000000;stroke-width:6.26503;stroke-linecap:round;stroke-linejoin:round;stroke-opacity:1"
            d="m 278.60569,236.2348 c -22.92839,73.14481 25.32331,78.81915 35.57626,110.22807" id="path1"
            sodipodi:nodetypes="cc" />

         <path
            style="fill:#ffffff;fill-opacity:1;stroke:#000000;stroke-width:6.26503;stroke-linecap:round;stroke-linejoin:round;stroke-opacity:1"
            d="m 273.23545,266.76172 c -23.5155,55.49756 -1.55497,121.13492 65.15002,159.60191 38.52131,51.92202 155.04876,-188.87875 15.74686,-186.62952 -27.86755,5.79984 -55.36714,4.32444 -74.6518,-4.08253 -2.04139,10.75569 -7.55356,18.55501 -6.24508,31.11014 z"
            id="path2" sodipodi:nodetypes="ccccc" />

      </g>

      <g inkscape:groupmode="layer" id="layer5" inkscape:label="Petal3">
         <path
            style="fill:#ffffff;fill-opacity:1;stroke:#000000;stroke-width:6.26503;stroke-linecap:round;stroke-linejoin:round;stroke-opacity:1"
            d="m 263.75032,325.73448 c -17.1832,2.47707 -35.24123,0.33108 -52.42442,-14.12155 l -22.82726,76.54997 c -1.55614,131.40202 121.64183,77.86998 147.55396,38.78395 -38.09749,-27.76341 -64.16668,-61.56814 -72.30228,-101.21237 z"
            id="path3" sodipodi:nodetypes="ccccc" />

         <path
            style="fill:#ffffff;fill-opacity:1;stroke:#000000;stroke-width:6.26503;stroke-linecap:round;stroke-linejoin:round;stroke-opacity:1"
            d="m 241.2798,326.05026 c -7.32563,41.62334 10.93775,68.43198 16.9133,102.35463" id="path4"
            sodipodi:nodetypes="cc" />

      </g>

      <g inkscape:groupmode="layer" id="layer6" inkscape:label="Petal4">
         <path
            style="fill:#ffffff;fill-opacity:1;stroke:#000000;stroke-width:6.26503;stroke-linecap:round;stroke-linejoin:round;stroke-opacity:1"
            d="M 211.24411,312.05305 C 194.66429,290.13863 171.0496,275.57884 187.04059,219.61311 l -55.11403,-2.04126 c -93.315277,70.93791 14.2141,211.86712 54.2392,171.46587 11.98804,-26.98104 16.89111,-51.38574 25.07835,-76.98467 z"
            id="path5" sodipodi:nodetypes="ccccc" />

         <path
            style="fill:#ffffff;fill-opacity:1;stroke:#000000;stroke-width:6.26503;stroke-linecap:round;stroke-linejoin:round;stroke-opacity:1"
            d="m 143.12424,303.46505 c 12.93113,-13.17252 18.15338,-39.91343 39.3839,-38.97151" id="path6"
            sodipodi:nodetypes="cc" />

      </g>

      <g inkscape:groupmode="layer" id="layer7" inkscape:label="Petal5">
         <path
            style="fill:#ffffff;fill-opacity:1;stroke:#000000;stroke-width:6.26503;stroke-linecap:round;stroke-linejoin:round;stroke-opacity:1"
            d="m 188.20704,220.19633 c 8.2279,-19.28622 19.96283,-36.21595 39.07555,-51.61473 -5.78953,-33.21731 -6.4272,-68.38396 8.01235,-109.255505 C 195.36184,0.45352205 38.248965,102.25052 130.76013,216.98864 Z"
            id="path7-4" sodipodi:nodetypes="ccccc" />

         <path
            style="fill:#ffffff;fill-opacity:1;stroke:#000000;stroke-width:6.26503;stroke-linecap:round;stroke-linejoin:round;stroke-opacity:1"
            d="M 201.0378,193.65995 C 181.77222,173.91043 165.71985,149.28161 167.21121,98.012305" id="path8-8"
            sodipodi:nodetypes="cc" />

      </g>

   </g>
   <g inkscape:groupmode="layer" id="layer1" inkscape:label="Steam"
      transform="matrix(3.2478399,0,0,3.2478399,282.95149,284.86535)">
      <use xlink:href="#B" x="0.5" y="0.5" id="use1" />
      <g id="g8">
         <path
            d="M 1.305,41.202 C 5.259,54.386 17.488,64 31.959,64 c 17.673,0 32,-14.327 32,-32 0,-17.673 -14.327,-32 -32,-32 C 15.001,0 1.124,13.193 0.028,29.874 c 2.074,3.477 2.879,5.628 1.275,11.328 z"
            fill="url(#A)" id="path7" style="fill:url(#A)" />
         <path
            d="m 30.31,23.985 0.003,0.158 -7.83,11.375 c -1.268,-0.058 -2.54,0.165 -3.748,0.662 a 8.14,8.14 0 0 0 -1.498,0.8 L 0.042,29.893 c 0,0 -0.398,6.546 1.26,11.424 l 12.156,5.016 c 0.6,2.728 2.48,5.12 5.242,6.27 a 8.88,8.88 0 0 0 11.603,-4.782 8.89,8.89 0 0 0 0.684,-3.656 l 11.193,-8.005 0.275,0.005 c 6.705,0 12.155,-5.466 12.155,-12.18 0,-6.714 -5.44,-12.16 -12.155,-12.174 -6.702,0 -12.155,5.46 -12.155,12.174 z m -1.88,23.05 c -1.454,3.5 -5.466,5.147 -8.953,3.694 a 6.84,6.84 0 0 1 -3.524,-3.362 l 3.957,1.64 a 5.04,5.04 0 0 0 6.591,-2.719 5.05,5.05 0 0 0 -2.715,-6.601 l -4.1,-1.695 c 1.578,-0.6 3.372,-0.62 5.05,0.077 1.7,0.703 3,2.027 3.696,3.72 0.696,1.693 0.692,3.56 -0.01,5.246 M 42.466,32.1 a 8.12,8.12 0 0 1 -8.098,-8.113 8.12,8.12 0 0 1 8.098,-8.111 8.12,8.12 0 0 1 8.1,8.111 8.12,8.12 0 0 1 -8.1,8.113 m -6.068,-8.126 a 6.09,6.09 0 0 1 6.08,-6.095 c 3.355,0 6.084,2.73 6.084,6.095 a 6.09,6.09 0 0 1 -6.084,6.093 6.09,6.09 0 0 1 -6.081,-6.093 z"
            id="path8" />
      </g>
   </g>
</svg>