<?xml version="1.0" encoding="UTF-8" standalone="no"?>
<!-- Created with Inkscape (http://www.inkscape.org/) -->

<svg
   width="446.66922mm"
   height="69.963036mm"
   viewBox="0 0 446.66922 69.963036"
   version="1.1"
   id="svg1"
   inkscape:version="1.4.2 (f4327f4, 2025-05-13)"
   sodipodi:docname="PlantsVsZomvies.svg"
   xml:space="preserve"
   xmlns:inkscape="http://www.inkscape.org/namespaces/inkscape"
   xmlns:sodipodi="http://sodipodi.sourceforge.net/DTD/sodipodi-0.dtd"
   xmlns:xlink="http://www.w3.org/1999/xlink"
   xmlns="http://www.w3.org/2000/svg"
   xmlns:svg="http://www.w3.org/2000/svg"><sodipodi:namedview
     id="namedview1"
     pagecolor="#ffffff"
     bordercolor="#111111"
     borderopacity="1"
     inkscape:showpageshadow="0"
     inkscape:pageopacity="0"
     inkscape:pagecheckerboard="1"
     inkscape:deskcolor="#d1d1d1"
     inkscape:document-units="mm"
     inkscape:zoom="0.35355339"
     inkscape:cx="728.31998"
     inkscape:cy="108.89444"
     inkscape:window-width="1366"
     inkscape:window-height="715"
     inkscape:window-x="-8"
     inkscape:window-y="-8"
     inkscape:window-maximized="1"
     inkscape:current-layer="g3" /><defs
     id="defs1"><linearGradient
       id="linearGradient53"
       inkscape:collect="always"><stop
         style="stop-color:#bb1908;stop-opacity:1;"
         offset="0"
         id="stop53" /><stop
         style="stop-color:#5c010a;stop-opacity:1;"
         offset="1"
         id="stop54" /></linearGradient><linearGradient
       id="linearGradient47"
       inkscape:collect="always"><stop
         style="stop-color:#5c010a;stop-opacity:1;"
         offset="0"
         id="stop48" /><stop
         style="stop-color:#bb1908;stop-opacity:1;"
         offset="0.39434889"
         id="stop50" /><stop
         style="stop-color:#bb1908;stop-opacity:1;"
         offset="0.78439802"
         id="stop51" /><stop
         style="stop-color:#5c010a;stop-opacity:1;"
         offset="1"
         id="stop49" /></linearGradient><linearGradient
       id="linearGradient44"
       inkscape:collect="always"><stop
         style="stop-color:#5c010a;stop-opacity:1;"
         offset="0"
         id="stop44" /><stop
         style="stop-color:#bb1908;stop-opacity:1;"
         offset="0.28378379"
         id="stop46" /><stop
         style="stop-color:#5c010a;stop-opacity:1;"
         offset="0.6296069"
         id="stop47" /><stop
         style="stop-color:#bb1908;stop-opacity:1;"
         offset="1"
         id="stop45" /></linearGradient><linearGradient
       id="linearGradient42"
       inkscape:collect="always"><stop
         style="stop-color:#bb1908;stop-opacity:1;"
         offset="0"
         id="stop42" /><stop
         style="stop-color:#5c010a;stop-opacity:1;"
         offset="1"
         id="stop43" /></linearGradient><linearGradient
       id="linearGradient40"
       inkscape:collect="always"><stop
         style="stop-color:#aeb0ad;stop-opacity:1;"
         offset="0"
         id="stop40" /><stop
         style="stop-color:#d6d5ca;stop-opacity:1;"
         offset="1"
         id="stop41" /></linearGradient><linearGradient
       id="linearGradient38"
       inkscape:collect="always"><stop
         style="stop-color:#aeb0ad;stop-opacity:1;"
         offset="0"
         id="stop38" /><stop
         style="stop-color:#d6d5ca;stop-opacity:1;"
         offset="1"
         id="stop39" /></linearGradient><linearGradient
       id="linearGradient36"
       inkscape:collect="always"><stop
         style="stop-color:#aeb0ad;stop-opacity:1;"
         offset="0"
         id="stop36" /><stop
         style="stop-color:#d6d5ca;stop-opacity:1;"
         offset="1"
         id="stop37" /></linearGradient><linearGradient
       id="linearGradient34"
       inkscape:collect="always"><stop
         style="stop-color:#aeb0ad;stop-opacity:1;"
         offset="0"
         id="stop34" /><stop
         style="stop-color:#d6d5ca;stop-opacity:1;"
         offset="1"
         id="stop35" /></linearGradient><linearGradient
       id="linearGradient31"
       inkscape:collect="always"><stop
         style="stop-color:#aeb0ad;stop-opacity:1;"
         offset="0"
         id="stop31" /><stop
         style="stop-color:#d6d5ca;stop-opacity:1;"
         offset="1"
         id="stop32" /></linearGradient><linearGradient
       id="linearGradient29"
       inkscape:collect="always"><stop
         style="stop-color:#aeb0ad;stop-opacity:1;"
         offset="0"
         id="stop29" /><stop
         style="stop-color:#d6d5ca;stop-opacity:1;"
         offset="0.79361176"
         id="stop30" /></linearGradient><linearGradient
       id="linearGradient27"
       inkscape:collect="always"><stop
         style="stop-color:#aeb0ad;stop-opacity:1;"
         offset="0"
         id="stop27" /><stop
         style="stop-color:#d6d5ca;stop-opacity:1;"
         offset="1"
         id="stop28" /></linearGradient><linearGradient
       id="linearGradient13"
       inkscape:collect="always"><stop
         style="stop-color:#b9e517;stop-opacity:1;"
         offset="0"
         id="stop13" /><stop
         style="stop-color:#4ad446;stop-opacity:1;"
         offset="0.74447173"
         id="stop14" /></linearGradient><linearGradient
       id="linearGradient11"
       inkscape:collect="always"><stop
         style="stop-color:#b9e517;stop-opacity:1;"
         offset="0"
         id="stop11" /><stop
         style="stop-color:#4ad446;stop-opacity:1;"
         offset="0.75429976"
         id="stop12" /></linearGradient><linearGradient
       id="linearGradient9"
       inkscape:collect="always"><stop
         style="stop-color:#b9e517;stop-opacity:1;"
         offset="0"
         id="stop9" /><stop
         style="stop-color:#4ad446;stop-opacity:1;"
         offset="0.73464376"
         id="stop10" /></linearGradient><linearGradient
       id="linearGradient7"
       inkscape:collect="always"><stop
         style="stop-color:#b9e517;stop-opacity:1;"
         offset="0"
         id="stop7" /><stop
         style="stop-color:#4ad446;stop-opacity:1;"
         offset="0.70515972"
         id="stop8" /></linearGradient><linearGradient
       id="linearGradient5"
       inkscape:collect="always"><stop
         style="stop-color:#b9e517;stop-opacity:1;"
         offset="0"
         id="stop5" /><stop
         style="stop-color:#4ad446;stop-opacity:1;"
         offset="0.48402947"
         id="stop6" /></linearGradient><linearGradient
       id="linearGradient2"
       inkscape:collect="always"><stop
         style="stop-color:#b9e517;stop-opacity:1;"
         offset="0"
         id="stop2" /><stop
         style="stop-color:#4ad446;stop-opacity:1;"
         offset="0.76904178"
         id="stop3" /></linearGradient><linearGradient
       inkscape:collect="always"
       xlink:href="#linearGradient53"
       id="linearGradient65"
       gradientUnits="userSpaceOnUse"
       gradientTransform="translate(31.430896,16.463803)"
       x1="444.97198"
       y1="68.124023"
       x2="478.24362"
       y2="68.124023" /><linearGradient
       inkscape:collect="always"
       xlink:href="#linearGradient40"
       id="linearGradient66"
       gradientUnits="userSpaceOnUse"
       gradientTransform="translate(31.430896,16.463803)"
       x1="464.3158"
       y1="51.797485"
       x2="464.3158"
       y2="80.876434" /><linearGradient
       inkscape:collect="always"
       xlink:href="#linearGradient38"
       id="linearGradient67"
       gradientUnits="userSpaceOnUse"
       gradientTransform="translate(31.430896,16.463803)"
       x1="434.80054"
       y1="53.184509"
       x2="434.80054"
       y2="82.285553" /><linearGradient
       inkscape:collect="always"
       xlink:href="#linearGradient36"
       id="linearGradient68"
       gradientUnits="userSpaceOnUse"
       gradientTransform="translate(31.430896,16.463803)"
       x1="410.43396"
       y1="63.795784"
       x2="410.43396"
       y2="77.03315" /><linearGradient
       inkscape:collect="always"
       xlink:href="#linearGradient42"
       id="linearGradient69"
       gradientUnits="userSpaceOnUse"
       gradientTransform="translate(31.430896,16.463803)"
       x1="304.68585"
       y1="71.745934"
       x2="279.13162"
       y2="71.745934" /><linearGradient
       inkscape:collect="always"
       xlink:href="#linearGradient27"
       id="linearGradient70"
       gradientUnits="userSpaceOnUse"
       gradientTransform="translate(31.430896,16.463803)"
       x1="286.38522"
       y1="49.978806"
       x2="286.38522"
       y2="85.315353" /><linearGradient
       inkscape:collect="always"
       xlink:href="#linearGradient44"
       id="linearGradient71"
       gradientUnits="userSpaceOnUse"
       gradientTransform="translate(31.430896,16.463803)"
       x1="311.75278"
       y1="68.182037"
       x2="341.93442"
       y2="68.182037" /><linearGradient
       inkscape:collect="always"
       xlink:href="#linearGradient29"
       id="linearGradient72"
       gradientUnits="userSpaceOnUse"
       gradientTransform="translate(31.430896,16.463803)"
       x1="319.93982"
       y1="52.689964"
       x2="319.93982"
       y2="84.665459" /><linearGradient
       inkscape:collect="always"
       xlink:href="#linearGradient47"
       id="linearGradient73"
       gradientUnits="userSpaceOnUse"
       gradientTransform="translate(31.430896,16.463803)"
       x1="339.63159"
       y1="70.657051"
       x2="380.72369"
       y2="70.657051" /><linearGradient
       inkscape:collect="always"
       xlink:href="#linearGradient31"
       id="linearGradient74"
       gradientUnits="userSpaceOnUse"
       gradientTransform="translate(31.430896,16.463803)"
       x1="354.3158"
       y1="52.618431"
       x2="354.3158"
       y2="91.828941" /><linearGradient
       inkscape:collect="always"
       xlink:href="#linearGradient34"
       id="linearGradient75"
       gradientUnits="userSpaceOnUse"
       gradientTransform="translate(31.430896,16.463803)"
       x1="388.58524"
       y1="57.614883"
       x2="388.58524"
       y2="84.577469" /><linearGradient
       inkscape:collect="always"
       xlink:href="#linearGradient11"
       id="linearGradient76"
       gradientUnits="userSpaceOnUse"
       gradientTransform="translate(31.430896,16.463803)"
       x1="182.71056"
       y1="47.474541"
       x2="182.71056"
       y2="88.530205" /><linearGradient
       inkscape:collect="always"
       xlink:href="#linearGradient13"
       id="linearGradient77"
       gradientUnits="userSpaceOnUse"
       gradientTransform="translate(31.430896,16.463803)"
       x1="215.09998"
       y1="39.920914"
       x2="215.09998"
       y2="89.618576" /><linearGradient
       inkscape:collect="always"
       xlink:href="#linearGradient9"
       id="linearGradient78"
       gradientUnits="userSpaceOnUse"
       gradientTransform="translate(31.430896,16.463803)"
       x1="150.1102"
       y1="50.917633"
       x2="150.1102"
       y2="85.670929" /><linearGradient
       inkscape:collect="always"
       xlink:href="#linearGradient7"
       id="linearGradient79"
       gradientUnits="userSpaceOnUse"
       gradientTransform="translate(31.430896,16.463803)"
       x1="118.38683"
       y1="50.397263"
       x2="118.38683"
       y2="86.233643" /><linearGradient
       inkscape:collect="always"
       xlink:href="#linearGradient5"
       id="linearGradient80"
       gradientUnits="userSpaceOnUse"
       gradientTransform="translate(31.430896,16.463803)"
       x1="95.703575"
       y1="52.860695"
       x2="95.703575"
       y2="83.156883" /><linearGradient
       inkscape:collect="always"
       xlink:href="#linearGradient2"
       id="linearGradient81"
       gradientUnits="userSpaceOnUse"
       gradientTransform="translate(31.430896,16.463803)"
       x1="60.189774"
       y1="38.349068"
       x2="60.189774"
       y2="89.356453" /></defs><g
     inkscape:groupmode="layer"
     id="g65"
     inkscape:label="Title"
     style="display:inline"
     transform="translate(-29.930897,-14.96411)"><g
       inkscape:groupmode="layer"
       id="g39"
       inkscape:label="Zombies"
       transform="translate(-34.686081,-30.44463)"><g
         inkscape:groupmode="layer"
         id="g3"
         inkscape:label="S"><path
           style="fill:#000000;fill-opacity:1;stroke:#000000;stroke-width:3;stroke-linecap:round;stroke-linejoin:round;stroke-dasharray:none;stroke-opacity:1;paint-order:normal"
           d="m 509.17457,71.934468 -3.78674,2.967987 -11.56494,0.511723 8.09544,29.563612 -15.06245,6.98468 c -5.32435,-2.66722 -10.01461,-6.20212 -8.12491,-18.741175 l 13.56598,-0.42973 -10.7891,-10.701567 c -10.07349,-6.386036 -0.73196,-23.917875 1.00075,-24.876812 l 19.60419,5.305597 1.94456,7.67583 z"
           id="path2"
           sodipodi:nodetypes="cccccccccccc" /><path
           style="display:inline;fill:#000000;fill-opacity:1;stroke:#000000;stroke-width:3;stroke-linecap:round;stroke-linejoin:round;stroke-dasharray:none;stroke-opacity:1;paint-order:normal"
           d="m 500.95722,71.898014 8.75657,0.506577 0.0724,-14.835524 c -5.47872,-8.617652 -22.58151,-4.7001 -26.48684,-0.217105 l -1.59212,18.164472 c 3.18685,7.716661 10.77241,11.034616 16.35527,16.355261 l -0.50658,11.578945 -5.78948,-0.21711 0.21713,-10.059205 -8.53948,-0.28947 -0.86842,11.434205 c 1.19339,3.45594 1.43395,7.38829 6.6579,8.82895 l 14.1842,-0.57895 c 6.27909,-0.94074 7.21201,-21.732605 3.18421,-27.64473 -4.11124,-4.12568 -9.0895,-7.904551 -11.43421,-12.736844 0.0973,-3.424632 -1.46289,-8.506745 2.75,-7.815788 3.27647,-1.169114 2.64588,4.010753 3.03948,7.526316 z"
           id="path3"
           sodipodi:nodetypes="ccccccccccccccccc" /></g><g
         inkscape:groupmode="layer"
         id="g7"
         inkscape:label="E"><path
           style="fill:#000000;fill-opacity:1;stroke:#000000;stroke-width:3;stroke-linecap:round;stroke-linejoin:round;stroke-dasharray:none;stroke-opacity:1;paint-order:normal"
           d="m 452.04082,70.169029 0.57429,14.465825 0.86844,15.486836 0.54274,10.24013 3.94409,0.57895 4.92104,-9.95066 -10.19385,-42.813563 -2.66754,0.607482 -0.64354,9.412284 z"
           id="path4"
           sodipodi:nodetypes="cccccccccc" /><path
           style="fill:#000000;fill-opacity:1;stroke:#000000;stroke-width:3;stroke-linecap:round;stroke-linejoin:round;stroke-dasharray:none;stroke-opacity:1;paint-order:normal"
           d="m 452.18089,58.003277 v 11.144737 l 2.89475,0.144735 c 0,0 0,11.578947 -0.28948,13.750001 -0.28948,2.171052 2.02631,4.342104 1.59211,6.368421 -0.43421,2.026314 0.86841,21.855259 0.86841,21.855259 l 19.10527,-0.43421 -0.57896,-8.10527 -9.55262,-0.14473 0.72369,-12.157895 7.96052,-0.57894 -0.72369,-8.250003 -7.67104,-0.144738 0.72369,-12.592105 h 11.57893 c 0,0 2.46052,-10.999999 1.01317,-11.578947 -1.44738,-0.578948 -27.64475,0.723685 -27.64475,0.723685 z"
           id="path7" /></g><g
         inkscape:groupmode="layer"
         id="g11"
         inkscape:label="I"><path
           style="fill:#000000;fill-opacity:1;stroke:#000000;stroke-width:3;stroke-linecap:round;stroke-linejoin:round;stroke-dasharray:none;stroke-opacity:1;paint-order:normal"
           d="m 436.36838,61.513145 -2.06248,1.62829 0.20842,18.92513 0.71641,1.074616 0.92056,29.572619 1.55591,-0.36184 3.18421,-3.69079 -1.73683,-42.842104 z"
           id="path9" /><path
           style="fill:#000000;fill-opacity:1;stroke:#000000;stroke-width:3;stroke-linecap:round;stroke-linejoin:round;stroke-dasharray:none;stroke-opacity:1;paint-order:normal"
           d="m 437.56248,112.42432 c -0.32416,-57.761983 -2.51156,-7.0646 -1.59211,-51.092098 h 12.01317 l -1.1579,50.513158 z"
           id="path11"
           sodipodi:nodetypes="ccccc" /></g><g
         inkscape:groupmode="layer"
         id="g29"
         inkscape:label="Z"><path
           style="fill:#000000;fill-opacity:1;stroke:#000000;stroke-width:3;stroke-linecap:round;stroke-linejoin:round;stroke-dasharray:none;stroke-opacity:1;paint-order:normal"
           d="m 333.95219,55.402988 c 0,0 5.47563,3.60764 6.22675,4.798146 0.75112,1.190506 -0.31814,7.620385 -0.70193,8.285624 -0.76758,1.330476 -18.75743,34.891512 -18.75743,34.891512 2.79872,0.54314 6.34549,-0.26022 9.57277,-0.48849 l 7.39165,-1.84539 2.53793,7.8972 -9.3692,4.16571 -19.79024,-8.57114 12.30262,-25.039464 6.44078,-7.30921 z"
           id="path13"
           sodipodi:nodetypes="cccccccccccc" /><path
           style="display:inline;fill:#000000;fill-opacity:1;stroke:#000000;stroke-width:3;stroke-linecap:round;stroke-linejoin:round;stroke-dasharray:none;stroke-opacity:1;paint-order:normal"
           d="m 301.26191,56.941013 c 0.12204,2.029831 0.20899,4.059662 -0.61406,6.089493 1.30659,2.744962 1.23632,5.662033 1.02344,8.596929 5.07956,-0.439587 9.99267,-0.29664 14.68643,0.614066 -2.96187,7.530368 -2.30394,8.672775 -5.3219,11.257886 -3.1816,8.517688 -5.55542,15.462838 -8.47703,19.373063 l 0.0972,9.69274 c 11.8107,0.22849 18.54189,0.52585 28.02994,0.71641 l -0.10234,-10.33678 c -6.36173,1.37688 -10.38565,0.89185 -14.55772,0.62648 5.48467,-10.943485 10.94587,-21.907492 17.9351,-31.534486 0.2729,-3.356495 -0.0211,-5.870565 1.02343,-10.029753 l -0.27705,-7.066907 c -6.21889,0.308748 -15.97981,3.326108 -18.65666,0.926243 -3.99683,-1.662765 -9.76097,0.503631 -14.78877,1.074616 z"
           id="path29"
           sodipodi:nodetypes="cccccccccccccccc"
           inkscape:label="path27" /></g><g
         inkscape:groupmode="layer"
         id="g30"
         inkscape:label="Z 1" /><g
         inkscape:groupmode="layer"
         id="g31"
         inkscape:label="Z 2" /><g
         inkscape:groupmode="layer"
         id="g33"
         inkscape:label="O"><path
           style="display:inline;fill:#000000;fill-opacity:1;stroke:#000000;stroke-width:3;stroke-linecap:round;stroke-linejoin:round;stroke-dasharray:none;stroke-opacity:1;paint-order:normal"
           d="m 372.86531,66.958971 -7.894,-7.469193 -18.62669,10.397802 -2.66094,33.97834 11.36023,2.14923 6.44768,3.78674 7.57348,-2.96798 z"
           id="path31"
           sodipodi:nodetypes="cccccccc" /><path
           id="path33"
           style="fill:#000000;fill-opacity:1;stroke:#000000;stroke-width:3;stroke-linecap:round;stroke-linejoin:round;stroke-dasharray:none;stroke-opacity:1;paint-order:normal"
           d="m 344.64124,56.411235 c -4.35194,0.12999 -7.68245,1.791879 -7.81554,8.250143 l -0.57878,10.999845 c 0.71391,10.290668 0.19258,8.925313 -0.36225,28.368287 0.23954,2.68362 -1.06352,5.83057 3.83594,6.5133 3.24577,1.65199 9.00438,1.74266 11.36158,3.329 3.5494,-2.77464 4.76101,-0.31826 10.34872,-4.19768 6.77241,-27.623053 2.14819,-18.768905 5.42758,-34.591683 l -0.36174,-14.329358 c -3.26361,-5.643695 -14.51513,-2.952177 -21.85551,-4.341854 z m 6.55826,14.556735 c 0.96637,0.05731 1.86673,0.624742 2.41173,1.478462 l -0.81907,29.577518 c -1.83523,3.28349 -4.1478,1.31593 -6.34535,0.61392 -1.16404,-5.701305 0.40975,-8.665075 0.61444,-12.997655 0.41594,-5.713705 0.0508,-11.895819 1.33015,-17.091463 0.80904,-1.185326 1.84172,-1.638098 2.8081,-1.580782 z"
           sodipodi:nodetypes="ccccccccccscccccs" /></g><g
         inkscape:groupmode="layer"
         id="g36"
         inkscape:label="M"><path
           style="display:inline;fill:#000000;fill-opacity:1;stroke:#000000;stroke-width:3;stroke-linecap:round;stroke-linejoin:round;stroke-dasharray:none;stroke-opacity:1;paint-order:normal"
           d="m 373.87528,112.56519 10.05458,-1.83705 3.56963,0.66887 8.78919,-1.99208 8.56449,3.34225 20.78021,-3.80683 0.45176,-39.797846 -17.97662,-7.593176 -5.15624,2.152962 -11.5872,2.67089 -9.81576,2.774832 -9.98684,31.407888 z"
           id="path34"
           sodipodi:nodetypes="ccccccccccccc" /><path
           style="fill:#000000;fill-opacity:1;stroke:#000000;stroke-width:3;stroke-linecap:round;stroke-linejoin:round;stroke-dasharray:none;stroke-opacity:1;paint-order:normal"
           d="m 371.02593,64.77079 -1.62572,10.872822 c -0.3526,0.907017 -0.87556,8.058506 -0.73247,12.030716 -1.2549,7.278157 0.24992,3.826837 -2.02632,25.328942 2.79492,0.895 5.76174,0.41484 8.6842,0.28948 l 3.47369,-20.842105 3.47368,20.335525 6.07896,-0.50658 c 3.55675,-6.90794 1.88158,-9.60088 4.77632,-21.565785 0.77502,7.71775 0.80041,15.810305 2.60525,23.013155 l 9.11844,-0.86843 -1.88159,-49.210518 c -4.28377,0.297357 -8.25295,-0.663617 -13.02631,1.592106 l -3.47368,25.194497 c -2.13838,-7.574876 -2.67357,-17.169306 -2.75,-23.457655 z"
           id="path36"
           sodipodi:nodetypes="cccccccccccccccc" /></g><g
         inkscape:groupmode="layer"
         id="g38"
         inkscape:label="B"><path
           id="path38"
           style="fill:#000000;fill-opacity:1;stroke:#000000;stroke-width:3;stroke-linecap:round;stroke-linejoin:round;stroke-dasharray:none;stroke-opacity:1;paint-order:normal"
           d="m 408.05804,61.392844 c -1.48522,1.843885 -0.74815,6.798693 -1.02319,10.336836 l 2.86546,0.409278 0.34209,41.103942 12.41217,0.48421 c 6.67458,-1.319 9.25815,-5.89279 8.24135,-14.169675 1.43946,-6.22999 0.50649,-9.10159 -2.30735,-11.212231 3.78662,-3.742512 5.29984,-9.514903 3.8778,-14.056507 1.44361,-6.383803 -2.09459,-12.355329 -6.7722,-12.811621 z m 11.77396,10.432954 3.40134,0.868165 -0.28939,10.204028 -3.76307,2.822567 z m -0.86817,22.216737 c 4.08573,0.0245 4.90093,1.9359 3.98012,4.8488 0.48122,5.654955 -1.93315,5.132285 -4.2695,4.776445 z" /></g></g><g
       inkscape:groupmode="layer"
       id="g59"
       inkscape:label="VS"
       style="display:inline"
       transform="translate(-34.686081,-30.44463)"><g
         inkscape:groupmode="layer"
         id="g40"
         inkscape:label="dirt"
         style="display:inline"><path
           style="display:inline;fill:#000000;fill-opacity:1;stroke:#000000;stroke-width:1.5;stroke-linecap:round;stroke-linejoin:round;stroke-dasharray:none;stroke-opacity:1;paint-order:normal"
           d="m 254.90141,112.51659 c 1.51088,0.51019 3.26937,0.16351 4.49287,-0.57167 0.55742,0.57468 1.42986,1.43971 3.02794,1.54137 1.08831,0.12974 2.06642,0.0391 2.86564,-0.40938 1.69384,0.069 2.80105,-0.22071 3.43785,-0.63216 0.53851,0.23185 1.5624,0.45042 2.60047,0.63216 1.48865,-0.58651 3.19592,-1.0127 5.40562,-1.07044 0.35457,0.57561 0.33108,1.29601 2.8559,1.04047 1.55566,0.10316 2.18159,-0.70386 3.09817,-1.11905 0.72048,0.65048 1.5051,1.21116 3.17321,0.53496 0.90322,0.0152 1.79,-0.006 2.45627,-0.51172 1.99447,2.148 1.56002,-1.52675 5.02676,0.97537 2.30792,0.15167 4.93811,-0.13841 7.53162,-0.36752 0.77787,-3.446 0.0882,-6.68236 0.13231,-10.02354 l 2.08308,-3.087885 c -7.05104,-1.245 -13.70187,-2.16982 -19.78865,-2.6434 -7.99643,-1.28706 -14.58152,-0.19969 -20.07813,1.87839 -3.09457,9.657535 -5.01409,9.969525 -8.32093,13.834045 z"
           id="path40"
           sodipodi:nodetypes="cccccccccccccccccc"
           inkscape:label="dirt" /></g><g
         inkscape:groupmode="layer"
         id="g44"
         inkscape:label="sign"
         style="display:inline"><path
           style="fill:#000000;fill-opacity:1;stroke:#000000;stroke-width:1.5;stroke-linecap:round;stroke-linejoin:round;stroke-dasharray:none;stroke-opacity:1;paint-order:normal"
           d="m 269.37543,96.706955 c -0.76748,0.0511 -0.78844,-8.933217 -0.40317,-9.318482 -0.8017,-1.483991 -1.36787,-2.73246 -2.04689,-4.093776 -0.16098,-3.172981 0.72723,-6.645729 1.484,-10.080925 l 8.85278,-5.680113 c 2.4438,0.526898 5.36885,0.6327 8.90397,0.204689 4.47674,-0.220533 7.71145,0.142705 9.9274,2.098059 2.74642,2.108888 3.74597,4.058235 4.42564,11.048053 -0.45092,0.499711 -1.37824,0.729526 -2.20617,0.286719 1.0585,1.737613 2.83932,4.371517 3.61417,6.421984 l 1.20951,11.632142 c -11.49978,-1.35616 -22.28524,-4.48701 -33.76124,-2.51835 z"
           id="path42"
           sodipodi:nodetypes="cccccccccccc" /><path
           style="fill:#000000;fill-opacity:1;stroke:#000000;stroke-width:1.5;stroke-linecap:round;stroke-linejoin:round;stroke-dasharray:none;stroke-opacity:1;paint-order:normal"
           d="m 261.7434,87.493406 c 1.43286,3.783349 1.63047,7.940239 1.51973,11.144739 l 5.50001,-1.88158 c -0.85843,-3.00329 -0.10859,-6.00658 -0.10856,-9.009867 L 266.773,83.54933 c -0.96322,-3.3046 0.96368,-6.838981 1.44737,-9.950659 -4.35667,3.011921 -5.06871,8.783618 -6.47697,13.894735 z"
           id="path44"
           sodipodi:nodetypes="ccccccc" /></g><g
         inkscape:groupmode="layer"
         id="g55"
         inkscape:label="flower"><path
           style="fill:#000000;fill-opacity:1;stroke:#000000;stroke-width:0.6;stroke-linecap:round;stroke-linejoin:round;stroke-dasharray:none;stroke-opacity:1;paint-order:normal"
           d="m 269.81247,97.570705 c -3.2237,-0.75045 -4.92542,2.748145 -1.83752,4.927265 -0.42662,1.83659 2.70316,4.46139 6.36055,3.21536 1.97776,0.64317 6.07565,0.55848 5.46382,-3.3844 2.35936,-0.84947 1.3683,-6.735325 -3.00329,-5.825655 -1.35415,-2.08842 -6.46162,-2.63929 -6.98356,1.06743 z"
           id="path45"
           sodipodi:nodetypes="cccccc" /><path
           style="fill:#000000;fill-opacity:1;stroke:#000000;stroke-width:0.6;stroke-linecap:round;stroke-linejoin:round;stroke-dasharray:none;stroke-opacity:1;paint-order:normal"
           d="m 271.73024,100.26643 c 0.32379,-0.731165 0.49894,-1.565565 2.31579,-1.736835 1.39558,0.0586 2.62867,0.31725 2.78618,1.899665 -0.35265,0.90967 -0.69269,1.82605 -2.55098,1.93585 -1.124,-0.22464 -2.31287,-0.24216 -2.55099,-2.09868 z"
           id="path46"
           sodipodi:nodetypes="ccccc" /><path
           style="fill:#000000;fill-opacity:1;stroke:#000000;stroke-width:0.6;stroke-linecap:round;stroke-linejoin:round;stroke-dasharray:none;stroke-opacity:1;paint-order:normal"
           d="m 268.00584,102.45118 3.74249,-1.94955"
           id="path48"
           sodipodi:nodetypes="cc" /><path
           style="fill:#000000;fill-opacity:1;stroke:#000000;stroke-width:0.6;stroke-linecap:round;stroke-linejoin:round;stroke-dasharray:none;stroke-opacity:1;paint-order:normal"
           d="m 269.81248,97.552615 2.5148,1.55592"
           id="path49" /><path
           style="fill:#000000;fill-opacity:1;stroke:#000000;stroke-width:0.6;stroke-linecap:round;stroke-linejoin:round;stroke-dasharray:none;stroke-opacity:1;paint-order:normal"
           d="m 276.77794,96.449005 -1.62829,2.20723"
           id="path50" /><path
           style="fill:#000000;fill-opacity:1;stroke:#000000;stroke-width:0.6;stroke-linecap:round;stroke-linejoin:round;stroke-dasharray:none;stroke-opacity:1;paint-order:normal"
           d="m 276.56083,101.08057 3.2204,1.19408"
           id="path54" /><path
           style="fill:#000000;fill-opacity:1;stroke:#000000;stroke-width:0.6;stroke-linecap:round;stroke-linejoin:round;stroke-dasharray:none;stroke-opacity:1;paint-order:normal"
           d="m 274.29932,102.4013 0.002,3.26086"
           id="path55"
           sodipodi:nodetypes="cc" /></g><g
         inkscape:groupmode="layer"
         id="g58"
         inkscape:label="text"><path
           style="fill:#000000;fill-opacity:1;stroke:#000000;stroke-width:0.6;stroke-linecap:round;stroke-linejoin:round;stroke-dasharray:none;stroke-opacity:1;paint-order:normal"
           d="m 270.25156,75.874728 6.90825,14.430557 3.83791,-0.46055 1.89338,-15.965722 -4.55433,-0.153517 -0.25586,9.159825 -3.37737,-8.392242 z"
           id="path56"
           inkscape:label="V" /><path
           style="fill:#000000;fill-opacity:1;stroke:#000000;stroke-width:0.6;stroke-linecap:round;stroke-linejoin:round;stroke-dasharray:none;stroke-opacity:1;paint-order:normal"
           d="m 290.51575,77.819272 2.45627,-0.05117 0.0512,-3.01916 c -0.15051,-2.22385 -1.80426,-2.599768 -4.40372,-2.404471 -3.6485,0.323227 -4.40479,1.652634 -4.34673,3.2744 -0.0214,7.049755 1.7757,6.733228 5.32191,7.675829 0.51533,1.708445 0.64309,2.785903 -0.2694,3.402846 -0.86132,-0.0483 -1.02304,0.466338 -1.18901,-1.714162 l -2.63537,0.05117 0.0256,3.505297 c 1.48645,1.467874 2.26228,1.471704 4.29669,1.538414 1.93206,-0.16356 3.48518,-0.980655 3.86527,-2.024549 0.64539,-8.537568 -0.96955,-7.532769 -4.75902,-9.006308 -0.10964,-3.263458 0.53865,-3.138501 1.58631,-1.228136 z"
           id="path57"
           inkscape:label="S"
           sodipodi:nodetypes="cccccccccccccc" /><path
           style="fill:#000000;fill-opacity:1;stroke:#000000;stroke-width:0.6;stroke-linecap:round;stroke-linejoin:round;stroke-dasharray:none;stroke-opacity:1;paint-order:normal"
           d="m 295.12333,85.485183 3.05757,0.05428 0.10856,3.238487 -2.56909,0.361844 -0.41612,-1.121711 z"
           id="path58"
           inkscape:label="dot" /></g></g><g
       inkscape:groupmode="layer"
       id="g64"
       inkscape:label="Plants"
       style="display:inline"
       transform="translate(-34.686081,-30.44463)"><path
         style="display:inline;fill:#000000;fill-opacity:1;stroke:#000000;stroke-width:4.5;stroke-linecap:round;stroke-linejoin:round;stroke-dasharray:none;stroke-opacity:1;paint-order:normal"
         d="m 197.99083,57.378862 c -2.90002,-0.363381 -4.20974,1.386897 -3.36602,6.268844 -0.35037,1.914842 0.40336,3.198195 2.8605,5.519387 l 7.72638,0.106421 -2.30274,39.300246 c -0.2294,3.37549 2.11029,3.16578 7.77893,3.14724 6.86271,0.0538 8.11687,-0.64196 8.64734,-2.94255 l -1.50519,-39.650738 15.37224,0.433145 0.71702,-12.363981 c -11.97615,0.404593 -23.95231,0.898198 -35.92846,0.181986 z"
         id="path59"
         inkscape:label="T"
         sodipodi:nodetypes="ccccccccccc" /><path
         style="fill:#000000;fill-opacity:1;stroke:#000000;stroke-width:4.5;stroke-linecap:round;stroke-linejoin:round;stroke-dasharray:none;stroke-opacity:1;paint-order:normal"
         d="m 247.34208,71.463803 c -1.0263,3.638175 1.33994,3.67454 6.95892,4.415991 5.14858,0.126319 6.74725,0.812988 7.87661,-2.281122 l 0.26508,-8.858484 c 3.08309,0.101673 5.78264,-0.486747 8.18704,-2.421147 -1.32402,-2.68799 -3.3783,-4.141909 -7.54965,-5.609615 0.43477,-2.493909 -1.58486,-4.72946 -3.68866,-6.956151 -1.89284,1.474899 -3.13846,3.412095 -4.07897,5.567226 -4.49349,-3.287753 -9.61145,-3.441628 -14.37134,-3.133038 -15.6607,2.258069 -16.22965,12.419342 -16.11696,19.599684 1.70191,4.84255 4.1903,7.987987 10.25149,13.502661 6.48469,3.338958 10.35617,7.739577 9.61262,12.184887 -0.54844,4.691845 -5.51399,6.402785 -6.65793,0.72303 l 0.3582,-5.17541 c 0.55356,-3.737193 -2.76289,-4.442364 -7.58003,-4.608479 -6.30114,-0.626665 -7.91115,-0.304896 -8.08969,3.333699 -1.8302,13.515315 5.14447,18.641975 16.69893,20.966265 9.39033,-0.14945 18.34354,-1.22955 21.85526,-13.894735 1.23329,-10.662205 -3.40863,-13.726596 -10.27631,-19.105262 -3.76503,-2.692608 -8.28616,-4.687267 -9.69737,-9.552633 -0.0707,-5.139664 0.78694,-6.931667 3.19131,-6.840474 2.76257,0.398227 3.48984,2.884339 2.85145,8.143107 z"
         id="path60"
         inkscape:label="S"
         sodipodi:nodetypes="cccccccccccccccccccccc" /><path
         style="fill:#000000;fill-opacity:1;stroke:#000000;stroke-width:4.5;stroke-linecap:round;stroke-linejoin:round;stroke-dasharray:none;stroke-opacity:1;paint-order:normal"
         d="m 164.91445,64.769723 0.54276,43.167757 9.98685,0.21711 c 1.09053,-0.21753 2.3327,-0.0972 2.55099,-2.44244 l -1.3931,-20.064137 9.48026,24.315787 9.98685,0.0724 c 2.27637,-0.6672 2.05343,-1.95923 2.09868,-3.18421 l -0.48751,-45.037988 c -0.10227,-2.08063 -1.35982,-2.366097 -6.52725,-2.33015 -4.75805,0.445324 -5.80132,0.188619 -5.83321,2.56632 l 0.97955,25.334714 -8.14144,-22.832235 c -0.59786,-1.990389 -1.27689,-2.885632 -6.58701,-2.573321 -5.23774,0.38468 -6.49473,0.493361 -6.65642,2.790425 z"
         id="path61"
         sodipodi:nodetypes="cccccccccccccccc"
         inkscape:label="N" /><path
         id="path62"
         style="fill:#000000;fill-opacity:1;stroke:#000000;stroke-width:4.5;stroke-linecap:round;stroke-linejoin:round;stroke-dasharray:none;stroke-opacity:1;paint-order:normal"
         d="m 154.12315,60.060108 c -1.3567,-0.0048 -3.19866,0.224806 -5.60792,0.153479 -7.3748,-0.291805 -9.51877,-0.04829 -9.99009,2.960543 l -5.87561,43.25059 6.49728,1.05058 c 2.4015,0.37027 5.00673,1.65599 6.24406,-0.97514 0,0 -0.009,-3.03414 0.49351,-5.70042 2.31153,-0.20576 6.8895,-0.0155 6.8895,-0.0155 0,0 -0.0709,5.19193 0.44028,6.92877 0.42747,2.15296 3.89936,1.7888 7.136,1.71204 3.2441,-0.0567 6.31251,-0.08 6.63577,-2.18178 0,0 -8.47607,-43.421537 -10.16475,-45.928973 -0.46987,-1.010054 -1.34132,-1.249348 -2.69803,-1.254187 z m -5.76399,15.098304 2.86598,16.067753 h -4.55425 z"
         inkscape:label="A" /><path
         style="fill:#000000;fill-opacity:1;stroke:#000000;stroke-width:4.5;stroke-linecap:round;stroke-linejoin:round;stroke-dasharray:none;stroke-opacity:1;paint-order:normal"
         d="m 115.94041,58.717428 c -2.61843,-0.158622 -3.19236,0.352696 -3.20403,2.936375 l 0.61557,44.004077 c 0.0247,3.29551 0.19597,3.99796 3.11184,4.19736 l 20.22698,0.43422 c 5.29503,0.25047 4.79312,-2.41167 4.83329,-5.56552 0.0489,-3.84045 -0.13849,-6.180685 -3.53248,-5.827365 l -9.61258,0.32158 c -1.80688,-0.0115 -1.29737,-1.00397 -1.29461,-3.25143 l 0.74124,-33.042396 c 0.21289,-2.52368 -0.13394,-4.458192 -2.49413,-4.273374 z"
         id="path63"
         sodipodi:nodetypes="cccccscccccc"
         inkscape:label="L" /><path
         id="path64"
         style="display:inline;fill:#000000;fill-opacity:1;stroke:#000000;stroke-width:4.5;stroke-linecap:round;stroke-linejoin:round;stroke-dasharray:none;stroke-opacity:1"
         inkscape:label="P"
         d="m 69.826485,47.658281 c -0.962427,3.552432 -2.619153,3.951146 -2.959509,11.236007 3.144315,7.501382 9.3531,1.064836 4.55321,6.327779 1.318981,2.076101 6.02851,2.250353 7.77369,0.7059 l 1.48317,43.056913 c 0.0749,3.08044 1.22998,3.88949 2.22518,3.96135 l 13.04171,-0.33365 c 1.0019,-0.29553 2.72593,-0.65736 2.63777,-3.04218 l -1.12538,-10.532305 c 0,0 22.199274,-1.10273 18.511014,-26.080066 -1.12869,-10.409346 -5.10695,-20.724743 -35.064014,-17.086295 -1.69746,-0.958349 -4.14084,-3.681068 -5.40018,0.04134 -3.28567,-2.646011 -5.676661,-8.254794 -5.676661,-8.254794 z m 24.347871,18.884636 c 3.40131,0.699561 5.68212,1.075297 7.092074,10.131164 0.0764,7.8186 -1.712254,9.987652 -5.427574,12.157915 z"
         sodipodi:nodetypes="ccccccccccccccccc" /></g></g><g
     inkscape:groupmode="layer"
     id="g114"
     inkscape:label="Title"
     style="display:inline"
     transform="translate(-29.930897,-14.96411)"><g
       inkscape:groupmode="layer"
       id="g95"
       inkscape:label="Zombies"
       transform="translate(-34.686081,-30.44463)"><g
         inkscape:groupmode="layer"
         id="g82"
         inkscape:label="S"><path
           style="fill:url(#linearGradient65);fill-opacity:1;stroke:#000000;stroke-width:1;stroke-linecap:round;stroke-linejoin:round;stroke-dasharray:none;stroke-opacity:1;paint-order:normal"
           d="m 509.17457,71.934468 -3.78674,2.967987 -11.56494,0.511723 8.09544,29.563612 -15.06245,6.98468 c -5.32435,-2.66722 -10.01461,-6.20212 -8.12491,-18.741175 l 13.56598,-0.42973 -10.7891,-10.701567 c -10.07349,-6.386036 -0.73196,-23.917875 1.00075,-24.876812 l 19.60419,5.305597 1.94456,7.67583 z"
           id="path81"
           sodipodi:nodetypes="cccccccccccc" /><path
           style="display:inline;fill:url(#linearGradient66);fill-opacity:1;stroke:#000000;stroke-width:1;stroke-linecap:round;stroke-linejoin:round;stroke-dasharray:none;stroke-opacity:1;paint-order:normal"
           d="m 500.95722,71.898014 8.75657,0.506577 0.0724,-14.835524 c -5.47872,-8.617652 -22.58151,-4.7001 -26.48684,-0.217105 l -1.59212,18.164472 c 3.18685,7.716661 10.77241,11.034616 16.35527,16.355261 l -0.50658,11.578945 -5.78948,-0.21711 0.21713,-10.059205 -8.53948,-0.28947 -0.86842,11.434205 c 1.19339,3.45594 1.43395,7.38829 6.6579,8.82895 l 14.1842,-0.57895 c 6.27909,-0.94074 7.21201,-21.732605 3.18421,-27.64473 -4.11124,-4.12568 -9.0895,-7.904551 -11.43421,-12.736844 0.0973,-3.424632 -1.46289,-8.506745 2.75,-7.815788 3.27647,-1.169114 2.64588,4.010753 3.03948,7.526316 z"
           id="path82"
           sodipodi:nodetypes="ccccccccccccccccc" /></g><g
         inkscape:groupmode="layer"
         id="g84"
         inkscape:label="E"><path
           style="fill:#bb1908;fill-opacity:1;stroke:#000000;stroke-width:1;stroke-linecap:round;stroke-linejoin:round;stroke-dasharray:none;stroke-opacity:1;paint-order:normal"
           d="m 452.04082,70.169029 0.57429,14.465825 0.86844,15.486836 0.54274,10.24013 3.94409,0.57895 4.92104,-9.95066 -10.19385,-42.813563 -2.66754,0.607482 -0.64354,9.412284 z"
           id="path83"
           sodipodi:nodetypes="cccccccccc" /><path
           style="fill:url(#linearGradient67);fill-opacity:1;stroke:#000000;stroke-width:1;stroke-linecap:round;stroke-linejoin:round;stroke-dasharray:none;stroke-opacity:1;paint-order:normal"
           d="m 452.18089,58.003277 v 11.144737 l 2.89475,0.144735 c 0,0 0,11.578947 -0.28948,13.750001 -0.28948,2.171052 2.02631,4.342104 1.59211,6.368421 -0.43421,2.026314 0.86841,21.855259 0.86841,21.855259 l 19.10527,-0.43421 -0.57896,-8.10527 -9.55262,-0.14473 0.72369,-12.157895 7.96052,-0.57894 -0.72369,-8.250003 -7.67104,-0.144738 0.72369,-12.592105 h 11.57893 c 0,0 2.46052,-10.999999 1.01317,-11.578947 -1.44738,-0.578948 -27.64475,0.723685 -27.64475,0.723685 z"
           id="path84" /></g><g
         inkscape:groupmode="layer"
         id="g86"
         inkscape:label="I"><path
           style="fill:#bb1908;fill-opacity:1;stroke:#000000;stroke-width:1;stroke-linecap:round;stroke-linejoin:round;stroke-dasharray:none;stroke-opacity:1;paint-order:normal"
           d="m 436.36838,61.513145 -2.06248,1.62829 0.20842,18.92513 0.71641,1.074616 0.92056,29.572619 1.55591,-0.36184 3.18421,-3.69079 -1.73683,-42.842104 z"
           id="path85" /><path
           style="fill:url(#linearGradient68);fill-opacity:1;stroke:#000000;stroke-width:1;stroke-linecap:round;stroke-linejoin:round;stroke-dasharray:none;stroke-opacity:1;paint-order:normal"
           d="m 437.56248,112.42432 c -0.32416,-57.761983 -2.51156,-7.0646 -1.59211,-51.092098 h 12.01317 l -1.1579,50.513158 z"
           id="path86"
           sodipodi:nodetypes="ccccc" /></g><g
         inkscape:groupmode="layer"
         id="g88"
         inkscape:label="Z"><path
           style="fill:url(#linearGradient69);fill-opacity:1;stroke:#000000;stroke-width:1;stroke-linecap:round;stroke-linejoin:round;stroke-dasharray:none;stroke-opacity:1;paint-order:normal"
           d="m 333.95219,55.402988 c 0,0 5.47563,3.60764 6.22675,4.798146 0.75112,1.190506 -0.31814,7.620385 -0.70193,8.285624 -0.76758,1.330476 -18.75743,34.891512 -18.75743,34.891512 2.79872,0.54314 6.34549,-0.26022 9.57277,-0.48849 l 7.39165,-1.84539 2.53793,7.8972 -9.3692,4.16571 -19.79024,-8.57114 12.30262,-25.039464 6.44078,-7.30921 z"
           id="path87"
           sodipodi:nodetypes="cccccccccccc" /><path
           style="display:inline;fill:url(#linearGradient70);fill-opacity:1;stroke:#000000;stroke-width:1;stroke-linecap:round;stroke-linejoin:round;stroke-dasharray:none;stroke-opacity:1;paint-order:normal"
           d="m 301.26191,56.941013 c 0.12204,2.029831 0.20899,4.059662 -0.61406,6.089493 1.30659,2.744962 1.23632,5.662033 1.02344,8.596929 5.07956,-0.439587 9.99267,-0.29664 14.68643,0.614066 -2.96187,7.530368 -2.30394,8.672775 -5.3219,11.257886 -3.1816,8.517688 -5.55542,15.462838 -8.47703,19.373063 l 0.0972,9.69274 c 11.8107,0.22849 18.54189,0.52585 28.02994,0.71641 l -0.10234,-10.33678 c -6.36173,1.37688 -10.38565,0.89185 -14.55772,0.62648 5.48467,-10.943485 10.94587,-21.907492 17.9351,-31.534486 0.2729,-3.356495 -0.0211,-5.870565 1.02343,-10.029753 l -0.27705,-7.066907 c -6.21889,0.308748 -15.97981,3.326108 -18.65666,0.926243 -3.99683,-1.662765 -9.76097,0.503631 -14.78877,1.074616 z"
           id="path88"
           sodipodi:nodetypes="cccccccccccccccc"
           inkscape:label="path27" /></g><g
         inkscape:groupmode="layer"
         id="g89"
         inkscape:label="Z 1" /><g
         inkscape:groupmode="layer"
         id="g90"
         inkscape:label="Z 2" /><g
         inkscape:groupmode="layer"
         id="g91"
         inkscape:label="O"><path
           style="display:inline;fill:url(#linearGradient71);stroke:#000000;stroke-width:1;stroke-linecap:round;stroke-linejoin:round;stroke-dasharray:none;stroke-opacity:1;paint-order:normal"
           d="m 372.86531,66.958971 -7.894,-7.469193 -18.62669,10.397802 -2.66094,33.97834 11.36023,2.14923 6.44768,3.78674 7.57348,-2.96798 z"
           id="path90"
           sodipodi:nodetypes="cccccccc" /><path
           id="path91"
           style="fill:url(#linearGradient72);stroke:#000000;stroke-width:1;stroke-linecap:round;stroke-linejoin:round;stroke-dasharray:none;stroke-opacity:1;paint-order:normal"
           d="m 344.64124,56.411235 c -4.35194,0.12999 -7.68245,1.791879 -7.81554,8.250143 l -0.57878,10.999845 c 0.71391,10.290668 0.19258,8.925313 -0.36225,28.368287 0.23954,2.68362 -1.06352,5.83057 3.83594,6.5133 3.24577,1.65199 9.00438,1.74266 11.36158,3.329 3.5494,-2.77464 4.76101,-0.31826 10.34872,-4.19768 6.77241,-27.623053 2.14819,-18.768905 5.42758,-34.591683 l -0.36174,-14.329358 c -3.26361,-5.643695 -14.51513,-2.952177 -21.85551,-4.341854 z m 6.55826,14.556735 c 0.96637,0.05731 1.86673,0.624742 2.41173,1.478462 l -0.81907,29.577518 c -1.83523,3.28349 -4.1478,1.31593 -6.34535,0.61392 -1.16404,-5.701305 0.40975,-8.665075 0.61444,-12.997655 0.41594,-5.713705 0.0508,-11.895819 1.33015,-17.091463 0.80904,-1.185326 1.84172,-1.638098 2.8081,-1.580782 z"
           sodipodi:nodetypes="ccccccccccscccccs" /></g><g
         inkscape:groupmode="layer"
         id="g93"
         inkscape:label="M"><path
           style="display:inline;fill:url(#linearGradient73);stroke:#000000;stroke-width:1;stroke-linecap:round;stroke-linejoin:round;stroke-dasharray:none;stroke-opacity:1;paint-order:normal"
           d="m 373.87528,112.56519 10.05458,-1.83705 3.56963,0.66887 8.78919,-1.99208 8.56449,3.34225 20.78021,-3.80683 0.45176,-39.797846 -17.97662,-7.593176 -5.15624,2.152962 -11.5872,2.67089 -9.81576,2.774832 -9.98684,31.407888 z"
           id="path92"
           sodipodi:nodetypes="ccccccccccccc" /><path
           style="fill:url(#linearGradient74);fill-opacity:1;stroke:#000000;stroke-width:1;stroke-linecap:round;stroke-linejoin:round;stroke-dasharray:none;stroke-opacity:1;paint-order:normal"
           d="m 371.02593,64.77079 -1.62572,10.872822 c -0.3526,0.907017 -0.87556,8.058506 -0.73247,12.030716 -1.2549,7.278157 0.24992,3.826837 -2.02632,25.328942 2.79492,0.895 5.76174,0.41484 8.6842,0.28948 l 3.47369,-20.842105 3.47368,20.335525 6.07896,-0.50658 c 3.55675,-6.90794 1.88158,-9.60088 4.77632,-21.565785 0.77502,7.71775 0.80041,15.810305 2.60525,23.013155 l 9.11844,-0.86843 -1.88159,-49.210518 c -4.28377,0.297357 -8.25295,-0.663617 -13.02631,1.592106 l -3.47368,25.194497 c -2.13838,-7.574876 -2.67357,-17.169306 -2.75,-23.457655 z"
           id="path93"
           sodipodi:nodetypes="cccccccccccccccc" /></g><g
         inkscape:groupmode="layer"
         id="g94"
         inkscape:label="B"><path
           id="path94"
           style="fill:url(#linearGradient75);fill-opacity:1;stroke:#000000;stroke-width:1;stroke-linecap:round;stroke-linejoin:round;stroke-dasharray:none;stroke-opacity:1;paint-order:normal"
           d="m 408.05804,61.392844 c -1.48522,1.843885 -0.74815,6.798693 -1.02319,10.336836 l 2.86546,0.409278 0.34209,41.103942 12.41217,0.48421 c 6.67458,-1.319 9.25815,-5.89279 8.24135,-14.169675 1.43946,-6.22999 0.50649,-9.10159 -2.30735,-11.212231 3.78662,-3.742512 5.29984,-9.514903 3.8778,-14.056507 1.44361,-6.383803 -2.09459,-12.355329 -6.7722,-12.811621 z m 11.77396,10.432954 3.40134,0.868165 -0.28939,10.204028 -3.76307,2.822567 z m -0.86817,22.216737 c 4.08573,0.0245 4.90093,1.9359 3.98012,4.8488 0.48122,5.654955 -1.93315,5.132285 -4.2695,4.776445 z" /></g></g><g
       inkscape:groupmode="layer"
       id="g108"
       inkscape:label="VS"
       style="display:inline"
       transform="translate(-34.686081,-30.44463)"><g
         inkscape:groupmode="layer"
         id="g96"
         inkscape:label="dirt"
         style="display:inline"><path
           style="display:inline;fill:#7a4d14;fill-opacity:1;stroke:#000000;stroke-width:0.5;stroke-linecap:round;stroke-linejoin:round;stroke-dasharray:none;stroke-opacity:1;paint-order:normal"
           d="m 254.90141,112.51659 c 1.51088,0.51019 3.26937,0.16351 4.49287,-0.57167 0.55742,0.57468 1.42986,1.43971 3.02794,1.54137 1.08831,0.12974 2.06642,0.0391 2.86564,-0.40938 1.69384,0.069 2.80105,-0.22071 3.43785,-0.63216 0.53851,0.23185 1.5624,0.45042 2.60047,0.63216 1.48865,-0.58651 3.19592,-1.0127 5.40562,-1.07044 0.35457,0.57561 0.33108,1.29601 2.8559,1.04047 1.55566,0.10316 2.18159,-0.70386 3.09817,-1.11905 0.72048,0.65048 1.5051,1.21116 3.17321,0.53496 0.90322,0.0152 1.79,-0.006 2.45627,-0.51172 1.99447,2.148 1.56002,-1.52675 5.02676,0.97537 2.30792,0.15167 4.93811,-0.13841 7.53162,-0.36752 0.77787,-3.446 0.0882,-6.68236 0.13231,-10.02354 l 2.08308,-3.087885 c -7.05104,-1.245 -13.70187,-2.16982 -19.78865,-2.6434 -7.99643,-1.28706 -14.58152,-0.19969 -20.07813,1.87839 -3.09457,9.657535 -5.01409,9.969525 -8.32093,13.834045 z"
           id="path95"
           sodipodi:nodetypes="cccccccccccccccccc"
           inkscape:label="dirt" /></g><g
         inkscape:groupmode="layer"
         id="g97"
         inkscape:label="sign"
         style="display:inline"><path
           style="fill:#666666;fill-opacity:1;stroke:#000000;stroke-width:0.499999;stroke-linecap:round;stroke-linejoin:round;stroke-dasharray:none;stroke-opacity:1;paint-order:normal"
           d="m 269.37543,96.706955 c -0.76748,0.0511 -0.78844,-8.933217 -0.40317,-9.318482 -0.8017,-1.483991 -1.36787,-2.73246 -2.04689,-4.093776 -0.16098,-3.172981 0.72723,-6.645729 1.484,-10.080925 l 8.85278,-5.680113 c 2.4438,0.526898 5.36885,0.6327 8.90397,0.204689 4.47674,-0.220533 7.71145,0.142705 9.9274,2.098059 2.74642,2.108888 3.74597,4.058235 4.42564,11.048053 -0.45092,0.499711 -1.37824,0.729526 -2.20617,0.286719 1.0585,1.737613 2.83932,4.371517 3.61417,6.421984 l 1.20951,11.632142 c -11.49978,-1.35616 -22.28524,-4.48701 -33.76124,-2.51835 z"
           id="path96"
           sodipodi:nodetypes="cccccccccccc" /><path
           style="fill:#383838;fill-opacity:1;stroke:#000000;stroke-width:0.499999;stroke-linecap:round;stroke-linejoin:round;stroke-dasharray:none;stroke-opacity:1;paint-order:normal"
           d="m 261.7434,87.493406 c 1.43286,3.783349 1.63047,7.940239 1.51973,11.144739 l 5.50001,-1.88158 c -0.85843,-3.00329 -0.10859,-6.00658 -0.10856,-9.009867 L 266.773,83.54933 c -0.96322,-3.3046 0.96368,-6.838981 1.44737,-9.950659 -4.35667,3.011921 -5.06871,8.783618 -6.47697,13.894735 z"
           id="path97"
           sodipodi:nodetypes="ccccccc" /></g><g
         inkscape:groupmode="layer"
         id="g104"
         inkscape:label="flower"><path
           style="fill:#f2f2f2;fill-opacity:1;stroke:#000000;stroke-width:0.2;stroke-linecap:round;stroke-linejoin:round;stroke-dasharray:none;stroke-opacity:1;paint-order:normal"
           d="m 269.81247,97.570705 c -3.2237,-0.75045 -4.92542,2.748145 -1.83752,4.927265 -0.42662,1.83659 2.70316,4.46139 6.36055,3.21536 1.97776,0.64317 6.07565,0.55848 5.46382,-3.3844 2.35936,-0.84947 1.3683,-6.735325 -3.00329,-5.825655 -1.35415,-2.08842 -6.46162,-2.63929 -6.98356,1.06743 z"
           id="path98"
           sodipodi:nodetypes="cccccc" /><path
           style="fill:#fbc623;fill-opacity:1;stroke:#000000;stroke-width:0.2;stroke-linecap:round;stroke-linejoin:round;stroke-dasharray:none;stroke-opacity:1;paint-order:normal"
           d="m 271.73024,100.26643 c 0.32379,-0.731165 0.49894,-1.565565 2.31579,-1.736835 1.39558,0.0586 2.62867,0.31725 2.78618,1.899665 -0.35265,0.90967 -0.69269,1.82605 -2.55098,1.93585 -1.124,-0.22464 -2.31287,-0.24216 -2.55099,-2.09868 z"
           id="path99"
           sodipodi:nodetypes="ccccc" /><path
           style="fill:none;fill-opacity:1;stroke:#000000;stroke-width:0.2;stroke-linecap:round;stroke-linejoin:round;stroke-dasharray:none;stroke-opacity:1;paint-order:normal"
           d="m 268.00584,102.45118 3.74249,-1.94955"
           id="path100"
           sodipodi:nodetypes="cc" /><path
           style="fill:none;fill-opacity:1;stroke:#000000;stroke-width:0.2;stroke-linecap:round;stroke-linejoin:round;stroke-dasharray:none;stroke-opacity:1;paint-order:normal"
           d="m 269.81248,97.552615 2.5148,1.55592"
           id="path101" /><path
           style="fill:none;fill-opacity:1;stroke:#000000;stroke-width:0.2;stroke-linecap:round;stroke-linejoin:round;stroke-dasharray:none;stroke-opacity:1;paint-order:normal"
           d="m 276.77794,96.449005 -1.62829,2.20723"
           id="path102" /><path
           style="fill:none;fill-opacity:1;stroke:#000000;stroke-width:0.2;stroke-linecap:round;stroke-linejoin:round;stroke-dasharray:none;stroke-opacity:1;paint-order:normal"
           d="m 276.56083,101.08057 3.2204,1.19408"
           id="path103" /><path
           style="fill:none;fill-opacity:1;stroke:#000000;stroke-width:0.2;stroke-linecap:round;stroke-linejoin:round;stroke-dasharray:none;stroke-opacity:1;paint-order:normal"
           d="m 274.29932,102.4013 0.002,3.26086"
           id="path104"
           sodipodi:nodetypes="cc" /></g><g
         inkscape:groupmode="layer"
         id="g107"
         inkscape:label="text"><path
           style="fill:#f2f2f2;fill-opacity:1;stroke:#000000;stroke-width:0.2;stroke-linecap:round;stroke-linejoin:round;stroke-dasharray:none;stroke-opacity:1;paint-order:normal"
           d="m 270.25156,75.874728 6.90825,14.430557 3.83791,-0.46055 1.89338,-15.965722 -4.55433,-0.153517 -0.25586,9.159825 -3.37737,-8.392242 z"
           id="path105"
           inkscape:label="V" /><path
           style="fill:#f2f2f2;fill-opacity:1;stroke:#000000;stroke-width:0.2;stroke-linecap:round;stroke-linejoin:round;stroke-dasharray:none;stroke-opacity:1;paint-order:normal"
           d="m 290.51575,77.819272 2.45627,-0.05117 0.0512,-3.01916 c -0.15051,-2.22385 -1.80426,-2.599768 -4.40372,-2.404471 -3.6485,0.323227 -4.40479,1.652634 -4.34673,3.2744 -0.0214,7.049755 1.7757,6.733228 5.32191,7.675829 0.51533,1.708445 0.64309,2.785903 -0.2694,3.402846 -0.86132,-0.0483 -1.02304,0.466338 -1.18901,-1.714162 l -2.63537,0.05117 0.0256,3.505297 c 1.48645,1.467874 2.26228,1.471704 4.29669,1.538414 1.93206,-0.16356 3.48518,-0.980655 3.86527,-2.024549 0.64539,-8.537568 -0.96955,-7.532769 -4.75902,-9.006308 -0.10964,-3.263458 0.53865,-3.138501 1.58631,-1.228136 z"
           id="path106"
           inkscape:label="S"
           sodipodi:nodetypes="cccccccccccccc" /><path
           style="fill:#f2f2f2;fill-opacity:1;stroke:#000000;stroke-width:0.2;stroke-linecap:round;stroke-linejoin:round;stroke-dasharray:none;stroke-opacity:1;paint-order:normal"
           d="m 295.12333,85.485183 3.05757,0.05428 0.10856,3.238487 -2.56909,0.361844 -0.41612,-1.121711 z"
           id="path107"
           inkscape:label="dot" /></g></g><g
       inkscape:groupmode="layer"
       id="g113"
       inkscape:label="Plants"
       style="display:inline"
       transform="translate(-34.686081,-30.44463)"><path
         style="display:inline;fill:url(#linearGradient76);stroke:#006837;stroke-width:1.5;stroke-linecap:round;stroke-linejoin:round;stroke-dasharray:none;stroke-opacity:1;paint-order:normal"
         d="m 197.99083,57.378862 c -2.90002,-0.363381 -4.20974,1.386897 -3.36602,6.268844 -0.35037,1.914842 0.40336,3.198195 2.8605,5.519387 l 7.72638,0.106421 -2.30274,39.300246 c -0.2294,3.37549 2.11029,3.16578 7.77893,3.14724 6.86271,0.0538 8.11687,-0.64196 8.64734,-2.94255 l -1.50519,-39.650738 15.37224,0.433145 0.71702,-12.363981 c -11.97615,0.404593 -23.95231,0.898198 -35.92846,0.181986 z"
         id="path108"
         inkscape:label="T"
         sodipodi:nodetypes="ccccccccccc" /><path
         style="fill:url(#linearGradient77);fill-opacity:1;stroke:#006837;stroke-width:1.5;stroke-linecap:round;stroke-linejoin:round;stroke-dasharray:none;stroke-opacity:1;paint-order:normal"
         d="m 247.34208,71.463803 c -1.0263,3.638175 1.33994,3.67454 6.95892,4.415991 5.14858,0.126319 6.74725,0.812988 7.87661,-2.281122 l 0.26508,-8.858484 c 3.08309,0.101673 5.78264,-0.486747 8.18704,-2.421147 -1.32402,-2.68799 -3.3783,-4.141909 -7.54965,-5.609615 0.43477,-2.493909 -1.58486,-4.72946 -3.68866,-6.956151 -1.89284,1.474899 -3.13846,3.412095 -4.07897,5.567226 -4.49349,-3.287753 -9.61145,-3.441628 -14.37134,-3.133038 -15.6607,2.258069 -16.22965,12.419342 -16.11696,19.599684 1.70191,4.84255 4.1903,7.987987 10.25149,13.502661 6.48469,3.338958 10.35617,7.739577 9.61262,12.184887 -0.54844,4.691845 -5.51399,6.402785 -6.65793,0.72303 l 0.3582,-5.17541 c 0.55356,-3.737193 -2.76289,-4.442364 -7.58003,-4.608479 -6.30114,-0.626665 -7.91115,-0.304896 -8.08969,3.333699 -1.8302,13.515315 5.14447,18.641975 16.69893,20.966265 9.39033,-0.14945 18.34354,-1.22955 21.85526,-13.894735 1.23329,-10.662205 -3.40863,-13.726596 -10.27631,-19.105262 -3.76503,-2.692608 -8.28616,-4.687267 -9.69737,-9.552633 -0.0707,-5.139664 0.78694,-6.931667 3.19131,-6.840474 2.76257,0.398227 3.48984,2.884339 2.85145,8.143107 z"
         id="path109"
         inkscape:label="S"
         sodipodi:nodetypes="cccccccccccccccccccccc" /><path
         style="fill:url(#linearGradient78);fill-opacity:1;stroke:#006837;stroke-width:1.5;stroke-linecap:round;stroke-linejoin:round;stroke-dasharray:none;stroke-opacity:1;paint-order:normal"
         d="m 164.91445,64.769723 0.54276,43.167757 9.98685,0.21711 c 1.09053,-0.21753 2.3327,-0.0972 2.55099,-2.44244 l -1.3931,-20.064137 9.48026,24.315787 9.98685,0.0724 c 2.27637,-0.6672 2.05343,-1.95923 2.09868,-3.18421 l -0.48751,-45.037988 c -0.10227,-2.08063 -1.35982,-2.366097 -6.52725,-2.33015 -4.75805,0.445324 -5.80132,0.188619 -5.83321,2.56632 l 0.97955,25.334714 -8.14144,-22.832235 c -0.59786,-1.990389 -1.27689,-2.885632 -6.58701,-2.573321 -5.23774,0.38468 -6.49473,0.493361 -6.65642,2.790425 z"
         id="path110"
         sodipodi:nodetypes="cccccccccccccccc"
         inkscape:label="N" /><path
         id="path111"
         style="fill:url(#linearGradient79);fill-opacity:1;stroke:#006837;stroke-width:1.5;stroke-linecap:round;stroke-linejoin:round;stroke-dasharray:none;stroke-opacity:1;paint-order:normal"
         d="m 154.12315,60.060108 c -1.3567,-0.0048 -3.19866,0.224806 -5.60792,0.153479 -7.3748,-0.291805 -9.51877,-0.04829 -9.99009,2.960543 l -5.87561,43.25059 6.49728,1.05058 c 2.4015,0.37027 5.00673,1.65599 6.24406,-0.97514 0,0 -0.009,-3.03414 0.49351,-5.70042 2.31153,-0.20576 6.8895,-0.0155 6.8895,-0.0155 0,0 -0.0709,5.19193 0.44028,6.92877 0.42747,2.15296 3.89936,1.7888 7.136,1.71204 3.2441,-0.0567 6.31251,-0.08 6.63577,-2.18178 0,0 -8.47607,-43.421537 -10.16475,-45.928973 -0.46987,-1.010054 -1.34132,-1.249348 -2.69803,-1.254187 z m -5.76399,15.098304 2.86598,16.067753 h -4.55425 z"
         inkscape:label="A" /><path
         style="fill:url(#linearGradient80);fill-opacity:1;stroke:#006837;stroke-width:1.5;stroke-linecap:round;stroke-linejoin:round;stroke-dasharray:none;stroke-opacity:1;paint-order:normal"
         d="m 115.94041,58.717428 c -2.61843,-0.158622 -3.19236,0.352696 -3.20403,2.936375 l 0.61557,44.004077 c 0.0247,3.29551 0.19597,3.99796 3.11184,4.19736 l 20.22698,0.43422 c 5.29503,0.25047 4.79312,-2.41167 4.83329,-5.56552 0.0489,-3.84045 -0.13849,-6.180685 -3.53248,-5.827365 l -9.61258,0.32158 c -1.80688,-0.0115 -1.29737,-1.00397 -1.29461,-3.25143 l 0.74124,-33.042396 c 0.21289,-2.52368 -0.13394,-4.458192 -2.49413,-4.273374 z"
         id="path112"
         sodipodi:nodetypes="cccccscccccc"
         inkscape:label="L" /><path
         id="path113"
         style="display:inline;fill:url(#linearGradient81);stroke:#006837;stroke-width:1.5;stroke-linecap:round;stroke-linejoin:round;stroke-dasharray:none;stroke-opacity:1"
         inkscape:label="P"
         d="m 69.826485,47.658281 c -0.962427,3.552432 -2.619153,3.951146 -2.959509,11.236007 3.144315,7.501382 9.3531,1.064836 4.55321,6.327779 1.318981,2.076101 6.02851,2.250353 7.77369,0.7059 l 1.48317,43.056913 c 0.0749,3.08044 1.22998,3.88949 2.22518,3.96135 l 13.04171,-0.33365 c 1.0019,-0.29553 2.72593,-0.65736 2.63777,-3.04218 l -1.12538,-10.532305 c 0,0 22.199274,-1.10273 18.511014,-26.080066 -1.12869,-10.409346 -5.10695,-20.724743 -35.064014,-17.086295 -1.69746,-0.958349 -4.14084,-3.681068 -5.40018,0.04134 -3.28567,-2.646011 -5.676661,-8.254794 -5.676661,-8.254794 z m 24.347871,18.884636 c 3.40131,0.699561 5.68212,1.075297 7.092074,10.131164 0.0764,7.8186 -1.712254,9.987652 -5.427574,12.157915 z"
         sodipodi:nodetypes="ccccccccccccccccc" /></g></g></svg>
