<svg xmlns="http://www.w3.org/2000/svg" width="512" height="512" shape-rendering="geometricPrecision"
    text-rendering="geometricPrecision" image-rendering="optimizeQuality" fill-rule="evenodd" clip-rule="evenodd">
    <path fill="#040303"
        d="M336.5 27.5c7.262-.351 13.929 1.482 20 5.5 12.259 11.336 21.426 24.836 27.5 40.5a412.033 412.033 0 0121 69c27.773 15.106 48.773 36.773 63 65 4.976 7.612 7.309 15.945 7 25a57.55 57.55 0 008 21 397.859 397.859 0 0126 40c-1.019 23.058-7.685 44.391-20 64-23.57 36.565-55.403 63.398-95.5 80.5-47.83 19.214-97.497 26.881-149 23a627.036 627.036 0 01-106-17c-11.349-7.34-21.515-16.173-30.5-26.5a546.33 546.33 0 01-23-38c-11.032-27.571-16.032-56.238-15-86a536.156 536.156 0 01-36-42c-20.875-27.432-31.208-58.432-31-93 4.496-2.337 9.33-3.837 14.5-4.5 14.743-1.737 29.076-.07 43 5A1080.068 1080.068 0 0189 171.5a471.313 471.313 0 0136.5-36.5c21.331-15.891 45.331-24.891 72-27 28.197-.179 56.363-.679 84.5-1.5a430.219 430.219 0 0013-31c6.312-15.808 15.478-29.641 27.5-41.5 4.377-3.025 9.044-5.192 14-6.5z"
        opacity=".962" />
    <path fill="#e3b0c0"
        d="M86.5 337.5l-2 6a182.809 182.809 0 01-2.5-44c2.207-1.497 2.874-3.497 2-6l-31-35c-17.063-19.108-29.063-41.108-36-66-2.114-8.944-2.948-17.944-2.5-27 11.012-2.677 22.012-2.51 33 .5a520.07 520.07 0 0124 9 305.1 305.1 0 0057 24c3.667.667 7.333.667 11 0 2.667-2.667 2.667-5.333 0-8-14.174-2.28-27.507-6.947-40-14 15.875-22.218 36.208-38.885 61-50a162.428 162.428 0 0139-9c29.023-.817 58.023-.651 87 .5a23.597 23.597 0 006-2.5c4.744-19.695 12.244-38.528 22.5-56.5A82.01 82.01 0 01329.5 42c7.038-4.659 14.038-4.659 21 0A95.106 95.106 0 01368 64.5c11.997 23.151 19.83 47.485 23.5 73-22.604-8.555-45.937-11.389-70-8.5-40.915 5.292-78.581 19.292-113 42-47.772 30.434-84.272 70.934-109.5 121.5a150.816 150.816 0 00-12.5 45z" />
    <path fill="#090808"
        d="M345.5 56.5c4.921-.457 8.421 1.543 10.5 6a99738.31 99738.31 0 0026 58c.72 1.612.554 3.112-.5 4.5-3 .667-6 .667-9 0a511.279 511.279 0 01-33.5-8.5 484.008 484.008 0 010-44c.069-6.371 2.236-11.705 6.5-16z" />
    <path fill="#f7f7f7"
        d="M347.5 64.5c1.574.437 2.741 1.437 3.5 3a786.653 786.653 0 0120.5 49l-1.5 1a1220.711 1220.711 0 00-23.5-6 198.445 198.445 0 011-47z" />
    <path fill="#e4b1c1"
        d="M318.5 138.5c64.208-6.238 111.208 18.928 141 75.5-46.497-22.387-94.83-26.721-145-13-69.558 20.925-123.391 62.092-161.5 123.5-18.623 32.083-25.29 66.416-20 103-34.596-30.371-45.263-67.704-32-112 10.643-30.304 26.643-57.304 48-81 38.428-42.304 84.928-72.138 139.5-89.5a472.823 472.823 0 0130-6.5z" />
    <path fill="#090809"
        d="M43.5 190.5c7.312-.065 14.312 1.435 21 4.5a646.186 646.186 0 0155.5 31.5c.667 1.667.667 3.333 0 5A3048.303 3048.303 0 0090.5 275c-1.867.711-3.367.211-4.5-1.5l-30-40c-7.826-10.484-13.659-21.984-17.5-34.5.637-3.463 2.303-6.296 5-8.5z" />
    <path fill="#fbfbfb"
        d="M45.5 197.5c6.93.696 13.596 2.529 20 5.5a439.528 439.528 0 0145.5 26.5c.315 1.408-.018 2.741-1 4l-21 31a353.02 353.02 0 01-41-58 23.901 23.901 0 01-2.5-9z" />
    <path fill="#fdfdfd"
        d="M350.5 203.5c40.583-4.188 78.25 4.145 113 25a69.575 69.575 0 006.5 23 397.859 397.859 0 0026 40c2.885 6.13 3.218 12.464 1 19-9.77 35.381-28.937 64.548-57.5 87.5-32.478 25.231-69.145 41.231-110 48-61.829 9.631-122.829 5.798-183-11.5-5.98-16.554-7.48-33.554-4.5-51 7.057-34.113 22.057-64.113 45-90 43.669-49.423 98.169-79.423 163.5-90z" />
    <path fill="#090808"
        d="M414.5 300.5c6.895.576 10.228 4.409 10 11.5a33.816 33.816 0 01-1.5 8.5c-6.19 13.048-9.523 26.715-10 41 7.917 12.893 18.417 15.393 31.5 7.5 5.086-5.082 7.753-11.249 8-18.5a56.323 56.323 0 00-5-20c1.798-5.242 4.964-6.242 9.5-3 6.259 12.755 6.925 25.755 2 39-7.519 12.737-18.685 18.237-33.5 16.5-7.012-1.587-12.845-5.087-17.5-10.5-18.169 37.668-47.669 52.168-88.5 43.5-14.92-5.905-24.42-16.405-28.5-31.5 2.626-3.572 5.626-3.905 9-1 11.605 22.22 29.772 30.387 54.5 24.5 30.095-10.41 46.095-31.41 48-63-10.583-5.03-19.749-11.864-27.5-20.5-.755-2.997.078-5.497 2.5-7.5a498.993 498.993 0 0037-16.5z" />
    <path fill="#deadbc"
        d="M412.5 312.5c.997-.03 1.664.47 2 1.5a195.27 195.27 0 01-8 21.5c-6.725-3.021-12.725-7.021-18-12 8.082-3.711 16.082-7.378 24-11z" />
</svg>