<?xml version="1.0" encoding="UTF-8" standalone="no"?>
<svg width="512" height="512" version="1.1" id="svg411" sodipodi:docname="guidance.svg"
   inkscape:version="1.4.2 (f4327f4, 2025-05-13)" xmlns:inkscape="http://www.inkscape.org/namespaces/inkscape"
   xmlns:sodipodi="http://sodipodi.sourceforge.net/DTD/sodipodi-0.dtd" xmlns="http://www.w3.org/2000/svg"
   xmlns:svg="http://www.w3.org/2000/svg">
   <defs id="defs411" />
   <sodipodi:namedview id="namedview411" pagecolor="#ffffff" bordercolor="#000000" borderopacity="0.25"
      inkscape:showpageshadow="2" inkscape:pageopacity="0.0" inkscape:pagecheckerboard="0" inkscape:deskcolor="#d1d1d1"
      inkscape:zoom="0.53660618" inkscape:cx="218.96878" inkscape:cy="293.51134" inkscape:window-width="1366"
      inkscape:window-height="715" inkscape:window-x="-8" inkscape:window-y="-8" inkscape:window-maximized="1"
      inkscape:current-layer="svg411" />
   <g inkscape:groupmode="layer" id="g1162" inkscape:label="Main" style="display:inline">
      <path style="fill:#7e7165;stroke:none;stroke-width:3.03767" d="m 241.52366,72.043358 3.03767,3.037669 z"
         id="path809" />
      <path style="fill:#743c26;stroke:none;stroke-width:3.03767"
         d="M 56.225815,75.081027 53.188146,87.231706 C 39.780281,112.02215 82.459359,169.89949 63.301869,73.705046 Z"
         id="path810" sodipodi:nodetypes="cccc" />
      <path style="fill:#38332f;stroke:none;stroke-width:3.03767" d="m 241.52366,75.081027 3.03767,3.03767 z"
         id="path811" />
      <path style="fill:#ddbd94;stroke:none;stroke-width:3.03767"
         d="m 244.56133,75.081027 c 0,5.458085 0.0424,4.621815 3.03768,9.11301 l -12.15069,-3.03767 -15.18834,21.263683 c 6.57959,-2.19168 11.30621,-3.28584 18.22601,-3.03767 6.38215,-1.34538 8.97632,0.17072 15.18835,3.03767 -0.73208,-11.10329 0.21872,-20.311678 -9.11301,-27.339023 z"
         id="path812" />
      <path style="fill:#59544c;stroke:none;stroke-width:3.03767" d="m 247.59901,75.081027 3.03766,3.03767 z"
         id="path813" />
      <path style="fill:#c65d29;stroke:none;stroke-width:3.03767"
         d="M 59.263485,78.118697 C 54.368281,90.612936 54.934807,96.68008 65.338825,105.45772 64.148969,96.09046 63.123149,86.71348 59.263485,78.118697 Z"
         id="path814" />
      <path style="fill:#716761;stroke:none;stroke-width:3.03767" d="m 223.29765,81.156367 3.03767,3.03767 z"
         id="path815" />
      <path style="fill:#796f62;stroke:none;stroke-width:3.03767" d="m 238.48599,81.156367 3.03767,3.03767 z"
         id="path816" />
      <path style="fill:#97816a;stroke:none;stroke-width:3.03767" d="m 244.56133,81.156367 3.03768,3.03767 z"
         id="path817" />
      <path style="fill:#edd8bb;stroke:none;stroke-width:3.03767"
         d="m 250.63667,81.156367 c -1.72724,18.189873 -4.41288,40.507503 12.15068,30.376693 7.10511,1.74454 12.00487,5.11756 18.22601,9.11301 -2.79465,-13.43197 -7.95565,-26.4013 -12.15066,-39.489703 -4.24059,2.00881 -5.51033,2.929528 -9.11301,6.075339 -3.71508,-3.630623 -4.3135,-3.998789 -9.11302,-6.075339 z"
         id="path818" sodipodi:nodetypes="cccccc" />
      <path style="fill:#645f5f;stroke:none;stroke-width:3.03767" d="m 50.150477,84.194037 3.037669,3.037669 z"
         id="path819" />
      <path style="fill:#2c251e;stroke:none;stroke-width:3.03767"
         d="m 224.30919,86.219251 c -0.16707,0.16859 -0.33717,3.375154 1.01458,2.024909 0.16708,-0.168893 0.33718,-3.37485 -1.01458,-2.024909 z"
         id="path820" />
      <path style="fill:#ceae84;stroke:none;stroke-width:3.03767"
         d="m 226.33532,84.194037 c -3.43257,4.25304 -6.73755,7.339013 -9.11301,12.150673 l -12.15068,-3.03767 c -6.33659,7.41586 -12.32534,11.25032 -21.26369,15.18835 0,5.45809 0.0434,4.62182 3.03768,9.11301 -8.42802,1.24636 -16.18168,3.48998 -24.30137,6.07534 1.43409,4.30195 2.47176,5.50942 6.07534,9.11301 -8.29314,0.35662 -16.14278,1.51641 -24.30135,3.03767 1.81561,3.63123 1.41585,2.96902 6.07534,6.07534 -11.26368,4.90219 -20.5543,11.57175 -29.34045,19.95025 45.8413,14.58555 127.68141,39.90224 98.54983,-11.40831 15.66253,-3.27748 59.74723,46.59052 12.80769,-57.14466 -2.07776,-4.799512 -2.44532,-5.398541 -6.07533,-9.113003 z"
         id="path821" sodipodi:nodetypes="ccccccccccccc" />
      <path style="fill:#867a69;stroke:none;stroke-width:3.03767" d="m 229.37299,84.194037 3.03766,3.037669 z"
         id="path822" />
      <path style="fill:#796f65;stroke:none;stroke-width:3.03767" d="m 259.74969,84.194037 3.03766,3.037669 z"
         id="path823" />
      <path style="fill:#68635c;stroke:none;stroke-width:3.03767" d="m 268.8627,84.194037 3.03765,3.037669 z"
         id="path824" />
      <path style="fill:#603729;stroke:none;stroke-width:3.03767"
         d="M 55.529315,75.973677 C 23.611461,132.4815 51.943422,103.73016 50.150477,117.6084 c 5.994234,-9.28524 9.699315,-31.615273 5.378838,-41.634723 z"
         id="path825" sodipodi:nodetypes="ccc" />
      <path style="fill:#6a635b;stroke:none;stroke-width:3.03767" d="m 220.25998,87.231706 3.03767,3.037669 z"
         id="path826" />
      <path style="fill:#f7e7ce;stroke:none;stroke-width:3.03767"
         d="m 271.90035,87.231706 c 1.60694,11.700504 5.52858,22.220254 9.11301,33.414364 l -15.18833,-12.15068 c -17.04705,10.55612 -16.96154,20.7626 12.15067,30.3767 -3.60267,-3.60359 -4.81167,-4.64125 -9.113,-6.07534 -3.63913,3.7822 -3.44473,3.26186 -9.11301,3.03767 l 6.07534,-9.11301 c -9.89066,-5.83202 -15.84146,-11.10724 -21.2637,-21.26369 5.30073,2.70353 9.49273,4.41374 15.18836,6.07534 -5.11848,-7.04071 -12.70962,-19.12577 -21.2637,-12.15068 -6.70717,-1.37758 -7.74909,-1.96324 -12.15067,3.03767 l -12.15068,-3.03767 c 0,9.53859 -10.09113,6.91435 -18.22602,9.11301 1.81653,3.63123 1.41555,2.96903 6.07534,6.07534 -6.13608,8.55256 4.72966,14.57991 12.15068,18.22602 l 3.03767,-9.11301 -12.15068,-6.07534 c 6.92285,-2.74484 12.15068,-2.20595 12.15068,-9.11301 7.43014,2.98087 14.66283,8.08628 21.26368,3.03767 5.75942,15.20597 16.23939,25.59602 24.30136,39.48971 8.96112,0.84295 12.13852,2.49909 18.22601,9.11301 -5.47084,-1.70657 -9.48359,-2.50334 -15.18833,-3.03767 2.30907,23.39783 6.34504,35.99324 18.22601,42.52738 l 9.11301,-3.03768 c -0.79587,-7.37486 3.33208,5.24982 4.12794,-2.12503 l -1.09027,-6.98798 c 4.30133,-1.43408 0.63186,15.79128 4.23454,12.18769 0.69258,7.66921 -0.78919,-3.62349 4.82443,1.58916 -2.19319,7.34507 3.24966,11.95738 3.0917,19.63752 3.63002,-1.81562 2.9678,-1.41586 6.07534,-6.07535 5.43135,4.31806 8.21993,5.15615 15.18835,6.07535 -0.72904,15.89917 -7.54253,29.88368 -9.11301,45.56504 l 8.7289,5.48398 c 2.20838,-9.34994 2.52567,-20.14286 9.49712,-26.74766 0.17315,-12.0553 7.38457,-21.49759 9.11302,-33.41437 -2.76733,4.18165 -4.2649,7.4113 -6.07535,12.15068 -1.70717,-5.46963 -2.50303,-9.483 -3.03767,-15.18835 -3.9915,2.33263 -4.62692,-3.4889 -6.95985,0.5029 -1.70716,-5.46962 -1.61853,-3.91086 -2.15316,-9.6159 l -12.15068,3.03767 c -0.34022,-11.74243 -3.73632,-22.02858 -6.07534,-33.41438 9.96053,14.76156 18.79103,28.9654 33.41438,39.48971 -0.70171,-6.45718 -0.74727,-11.78342 0,-18.22601 -11.42772,-11.14217 -6.51581,-19.26309 -3.03768,-33.41437 0.68043,5.11513 0.66221,7.02765 0,12.15067 l 18.22601,9.11301 c -2.99513,4.4912 -3.03766,3.65493 -3.03766,9.11301 5.47084,1.70657 9.4836,2.50334 15.18835,3.03768 l -6.07534,3.03767 c 4.57473,2.07472 7.03221,2.5088 12.15068,3.03766 -1.65554,4.9672 -1.10876,4.4195 -6.07534,6.07535 5.59538,6.69562 9.83293,9.79374 18.22601,12.15066 -0.38881,-16.57686 -3.97934,-33.78313 -21.26369,-39.4897 2.99515,-4.4912 3.03768,-3.65492 3.03768,-9.113 -12.19321,-1.67923 -9.41374,-11.0228 -17.00792,-18.60816 -6.7497,-6.7418 -16.57655,-8.48391 -25.51946,-8.73087 -5.54678,-13.70688 -15.31593,-24.93289 -18.22602,-39.48971 -3.05286,6.53099 -4.64763,12.50913 -9.113,18.22602 l 3.03767,9.11301 z"
         id="path827" sodipodi:nodetypes="ccccccccccccccccccccccccccccccccccccccccccccccccccccccsccccc" />
      <path style="fill:#938372;stroke:none;stroke-width:3.03767" d="m 287.08871,87.231706 3.03767,3.037669 z"
         id="path828" />
      <path style="fill:#312018;stroke:none;stroke-width:3.03767"
         d="M 47.112808,90.269375 C 41.406545,105.15821 33.281386,124.86904 40.80539,140.6066 c 8.00669,16.74667 24.966302,21.86333 30.608774,40.79286 h 12.150685 c -2.97753,-5.41708 -2.756995,-4.84296 -9.113016,-6.07534 3.079563,-18.16704 -12.519503,-23.1323 -22.597223,-36.97694 -7.637221,-10.49191 4.187915,-30.14949 -4.741802,-48.077805 z"
         id="path829" sodipodi:nodetypes="cccccsc" />
      <path style="fill:#b29a78;stroke:none;stroke-width:3.03767"
         d="m 215.19619,92.29459 c -0.16707,0.16859 -0.33718,3.37516 1.01457,2.02491 0.16708,-0.1689 0.33718,-3.37485 -1.01457,-2.02491 z"
         id="path830" />
      <path style="fill:#363433;stroke:none;stroke-width:3.03767" d="m 274.93803,90.269375 3.03767,3.037665 z"
         id="path831" />
      <path style="fill:#e0c7a7;stroke:none;stroke-width:3.03767"
         d="m 287.08871,90.269375 c -1.28493,9.624865 -2.03828,15.356945 6.07534,21.263685 -0.64702,-8.44654 -1.26672,-14.34175 -6.07534,-21.263685 z"
         id="path832" />
      <path style="fill:#786f64;stroke:none;stroke-width:3.03767" d="m 202.03396,93.30704 3.03767,3.03767 z"
         id="path833" />
      <path style="fill:#7d7064;stroke:none;stroke-width:3.03767"
         d="m 285.06259,95.33226 c -0.16708,0.1686 -0.33718,3.37516 1.01457,2.02491 0.16707,-0.1689 0.33718,-3.37485 -1.01457,-2.02491 z"
         id="path834" />
      <path style="fill:#743d31;stroke:none;stroke-width:3.03767"
         d="m 53.188146,96.34471 c -3.128936,13.81526 -11.141723,31.98159 3.037669,30.3767 14.597522,4.65463 12.930753,14.31107 9.11301,27.33903 8.236009,4.0486 16.401084,8.00669 15.188347,0 -0.919806,-17.69139 -13.754871,-31.30166 -12.150678,-48.60272 z"
         id="path835" sodipodi:nodetypes="cccccc" />
      <path style="fill:#9d9489;stroke:none;stroke-width:3.03767" d="m 277.9757,96.34471 3.03766,3.03767 z"
         id="path836" />
      <path style="fill:#3e3934;stroke:none;stroke-width:3.03767" d="m 281.01336,96.34471 3.03768,3.03767 z"
         id="path837" />
      <path style="fill:#ead3b8;stroke:none;stroke-width:3.03767"
         d="m 290.12638,96.34471 c 0.7017,6.45748 0.74727,11.78373 0,18.22602 4.91191,3.94533 8.11665,7.25943 12.15068,12.15068 1.45504,-4.54921 1.21506,-4.10146 0,-9.11301 10.52856,-9.30408 -3.74849,-16.61818 -12.15068,-21.26369 z"
         id="path838" />
      <path style="fill:#373532;stroke:none;stroke-width:3.03767" d="m 308.35239,96.34471 3.03767,3.03767 z"
         id="path839" />
      <path style="fill:#877d71;stroke:none;stroke-width:3.03767"
         d="m 311.39006,96.34471 v 15.18835 c 2.52126,-6.16798 2.52126,-9.02035 0,-15.18835 z" id="path840" />
      <path style="fill:#887c6d;stroke:none;stroke-width:3.03767" d="m 198.99629,99.38238 3.03767,3.03767 z"
         id="path841" />
      <path style="fill:#e7d3ad;stroke:none;stroke-width:3.03767"
         d="m 253.67434,99.38238 c 1.86209,5.04709 3.1683,7.54345 6.07535,12.15068 l -15.18836,-6.07534 c 6.4429,10.5316 15.6835,14.79346 27.33902,18.22602 -4.34994,-10.26064 -9.59599,-17.2573 -18.22601,-24.30136 z"
         id="path842" />
      <path style="fill:#5e574e;stroke:none;stroke-width:3.03767" d="m 296.20172,99.38238 3.03767,3.03767 z"
         id="path843" />
      <path style="fill:#564b40;stroke:none;stroke-width:3.03767" d="m 192.92094,102.42005 3.03768,3.03767 z"
         id="path844" />
      <path style="fill:#ecd4b3;stroke:none;stroke-width:3.03767"
         d="m 208.1093,108.49539 9.11301,-3.03767 c -5.40098,-2.90218 -6.13913,-2.32746 -9.11301,3.03767 z"
         id="path845" />
      <path style="fill:#3a3633;stroke:none;stroke-width:3.03767" d="m 302.27706,102.42005 3.03767,3.03767 z"
         id="path846" />
      <path style="fill:#726659;stroke:none;stroke-width:3.03767" d="m 305.31473,102.42005 3.03766,3.03767 z"
         id="path847" />
      <path style="fill:#897967;stroke:none;stroke-width:3.03767"
         d="m 180.77028,111.53306 9.11301,-3.03767 c -5.40159,-2.90219 -6.14035,-2.32746 -9.11301,3.03767 z"
         id="path848" />
      <path style="fill:#817c76;stroke:none;stroke-width:3.03767" d="m 65.338825,108.49539 3.037669,3.03767 z"
         id="path849" />
      <path style="fill:#dbc2a1;stroke:none;stroke-width:3.03767"
         d="m 217.22231,108.49539 c 0,6.33476 0.4192,5.23725 -6.07534,6.07534 7.27218,4.08445 15.5559,-0.75 6.07534,-6.07534 z"
         id="path850" />
      <path style="fill:#412c26;stroke:none;stroke-width:3.03767"
         d="m 466.31121,108.49539 c -6.65927,16.11525 -2.80446,121.68401 9.11301,15.18835 -2.60632,-5.96051 -4.96355,-10.23269 -9.11301,-15.18835 z"
         id="path851" sodipodi:nodetypes="ccc" />
      <path style="fill:#553c34;stroke:none;stroke-width:3.03767"
         d="m 65.338825,111.53306 3.037669,12.15068 c 1.193805,-5.84447 0.442284,-7.16768 -3.037669,-12.15068 z"
         id="path852" />
      <path style="fill:#e6d4b8;stroke:none;stroke-width:3.03767"
         d="m 189.88329,111.53306 c 1.55133,5.93014 2.22751,7.46355 6.07533,12.15068 2.09296,-5.12729 2.05347,-6.28342 6.07534,-9.11301 -4.57473,-2.07472 -7.03221,-2.50881 -12.15067,-3.03767 z"
         id="path853" />
      <path style="fill:#a5896e;stroke:none;stroke-width:3.03767"
         d="m 223.29765,111.53306 c -4.68713,3.84782 -6.22115,4.5237 -12.15068,6.07534 3.96416,7.47631 6.81653,12.76004 6.07534,21.26369 -8.76368,-4.83628 -13.0468,-9.66162 -18.22602,-18.22602 -10.81289,10.92559 -15.88063,25.27219 -21.26368,39.48971 h 12.15068 c -3.95338,30.71232 4.64629,21.17465 18.22601,21.26368 l 1.20799,-9.02706 3.03767,6.07534 c 1.88943,-5.90311 -2.92123,-18.15704 -4.24566,-24.3873 9.596,11.30378 13.88519,26.57171 21.26369,39.48971 34.62552,28.03862 19.67738,22.86488 19.66654,6.56066 8.70292,16.34144 4.74787,-11.22845 8.49636,6.88395 20.21481,19.16617 15.31137,-2.60326 20.43981,-37.74598 -6.17861,-6.34599 -9.89369,-13.9025 -15.69564,-20.25123 -7.44836,-8.1525 -19.34691,-14.03798 -25.82019,-22.78252 -2.81288,-3.80104 -0.2096,-5.62485 2.02612,-8.60663 -5.30073,-2.70352 -9.49271,-4.41374 -15.18834,-6.07534 z"
         id="path854" sodipodi:nodetypes="cccccccccccccccccc" />
      <path style="fill:#c7ab8b;stroke:none;stroke-width:3.03767"
         d="m 238.48599,111.53306 v 9.11301 c 2.11423,-4.71963 2.11423,-4.39338 0,-9.11301 z" id="path855" />
      <path style="fill:#b69c7d;stroke:none;stroke-width:3.03767"
         d="m 247.59901,111.53306 c 5.17315,9.62912 10.76853,12.42559 21.26369,15.18835 -6.40949,-6.62577 -13.12882,-10.81896 -21.26369,-15.18835 z"
         id="path856" />
      <path style="fill:#7c756e;stroke:none;stroke-width:3.03767" d="m 469.34888,111.53306 3.03767,3.03767 z"
         id="path857" />
      <path style="fill:#584b48;stroke:none;stroke-width:3.03767" d="m 37.999799,114.57073 3.037669,3.03767 z"
         id="path858" />
      <path style="fill:#82776a;stroke:none;stroke-width:3.03767" d="m 183.80794,114.57073 3.03768,3.03767 z"
         id="path859" />
      <path style="fill:#c5ad90;stroke:none;stroke-width:3.03767"
         d="m 205.07163,114.57073 c 1.65553,4.9669 1.10875,4.41981 6.07534,6.07534 v -6.07534 z" id="path860" />
      <path style="fill:#312f2c;stroke:none;stroke-width:3.03767" d="m 314.42773,114.57073 3.03767,3.03767 z"
         id="path861" />
      <path style="fill:#403e3c;stroke:none;stroke-width:3.03767" d="m 335.69143,114.57073 3.03766,3.03767 z"
         id="path862" />
      <path style="fill:#9c4521;stroke:none;stroke-width:3.03767"
         d="m 47.112808,117.6084 c 0.659001,18.3987 3.189467,27.13287 12.150677,18.22602 2.994232,-4.4912 3.03767,-3.65492 3.03767,-9.11301 -3.630622,-3.71446 -3.998788,-4.31349 -6.07534,-9.11301 z"
         id="path863" sodipodi:nodetypes="ccccc" />
      <path style="fill:#5d5449;stroke:none;stroke-width:3.03767" d="m 174.69493,117.6084 3.03768,3.03767 z"
         id="path864" />
      <path style="fill:#4b4744;stroke:none;stroke-width:3.03767" d="m 320.50307,117.6084 3.03767,3.03767 z"
         id="path865" />
      <path style="fill:#776c64;stroke:none;stroke-width:3.03767" d="m 332.65375,117.6084 3.03768,3.03767 z"
         id="path866" />
      <path style="fill:#6f625f;stroke:none;stroke-width:3.03767" d="m 472.38655,117.6084 3.03767,3.03767 z"
         id="path867" />
      <path style="fill:#695f57;stroke:none;stroke-width:3.03767" d="m 165.58192,120.64607 3.03767,3.03767 z"
         id="path868" />
      <path style="fill:#e1c9ad;stroke:none;stroke-width:3.03767"
         d="m 232.41065,120.64607 c 3.79102,2.0802 4.70232,2.27461 9.11301,3.03767 -3.79102,-2.0802 -4.70231,-2.27461 -9.11301,-3.03767 z"
         id="path869" />
      <path style="fill:#ebd6b8;stroke:none;stroke-width:3.03767"
         d="m 332.65375,120.64607 -6.07533,15.18835 c 7.08079,2.56805 13.86392,4.70474 21.26369,6.07534 l -3.03767,-9.11301 c -8.03465,-1.05013 -7.95871,-5.90371 -12.15069,-12.15068 z"
         id="path870" />
      <path style="fill:#8d7b67;stroke:none;stroke-width:3.03767" d="m 159.50658,123.68374 3.03767,3.03767 z"
         id="path871" />
      <path style="fill:#b99e7f;stroke:none;stroke-width:3.03767"
         d="m 235.44832,123.68374 c 5.31288,8.94199 12.99819,14.97328 21.2637,21.26368 l 3.03767,-3.03766 c -6.98361,-9.02401 -13.65433,-14.09691 -24.30137,-18.22602 z"
         id="path872" />
      <path style="fill:#cfb396;stroke:none;stroke-width:3.03767"
         d="m 268.8627,123.68374 c -3.60268,3.60359 -4.81168,4.64126 -9.11301,6.07535 v 6.07533 c 6.42769,0.85267 5.887,1.8232 9.11301,-3.03767 3.60267,3.60359 4.81166,4.64126 9.113,6.07534 -1.97752,-7.39491 -3.52369,-9.97175 -9.113,-15.18835 z"
         id="path873" />
      <path style="fill:#86786a;stroke:none;stroke-width:3.03767" d="m 329.61608,123.68374 3.03767,3.03767 z"
         id="path874" />
      <path style="fill:#5e4038;stroke:none;stroke-width:3.03767"
         d="m 466.31121,123.68374 v 12.15068 c 3.63002,-3.71447 3.99758,-4.31349 6.07534,-9.11301 l 3.03767,6.07534 c 1.85556,-14.07208 -2.27133,-10.03664 -9.11301,-9.11301 z"
         id="path875" sodipodi:nodetypes="ccccc" />
      <path style="fill:#5d2c18;stroke:none;stroke-width:3.03767"
         d="m 50.150477,126.72141 c 0.428311,13.19442 3.281898,20.89158 15.188348,27.33903 16.954424,-6.09706 -6.770965,-19.34753 -15.188348,-27.33903 z"
         id="path876" sodipodi:nodetypes="ccc" />
      <path style="fill:#ad512e;stroke:none;stroke-width:3.03767"
         d="m 62.301155,126.72141 c -10.764869,14.05172 -2.764118,16.90364 0,24.30136 8.669509,-6.62637 8.048609,-14.05075 6.075339,-24.30136 z"
         id="path877" sodipodi:nodetypes="cccc" />
      <path style="fill:#302a25;stroke:none;stroke-width:3.03767"
         d="m 153.43125,126.72141 c 4.18165,2.76853 7.41161,4.26428 12.15067,6.07534 -3.99149,-4.91465 -5.70231,-5.14368 -12.15067,-6.07534 z"
         id="path878" />
      <path style="fill:#ead8bf;stroke:none;stroke-width:3.03767"
         d="m 202.03396,126.72141 c 4.98177,8.53099 8.44472,10.10633 18.22602,9.11301 z" id="path879" />
      <path style="fill:#ceb694;stroke:none;stroke-width:3.03767"
         d="m 214.18464,126.72141 v 6.07534 c 4.96659,-1.65553 4.41981,-1.10844 6.07534,-6.07534 z" id="path880" />
      <path style="fill:#bca486;stroke:none;stroke-width:3.03767" d="m 256.71202,126.72141 3.03767,3.03768 z"
         id="path881" />
      <path style="fill:#edd9bf;stroke:none;stroke-width:3.03767"
         d="m 290.12638,126.72141 c -1.95626,6.39703 -2.75213,11.52826 -3.03767,18.22601 2.0808,-3.79222 2.27521,-4.70352 3.03767,-9.113 l 6.07534,12.15068 c 3.16525,-9.18227 0.40704,-14.35147 -6.07534,-21.26369 z"
         id="path882" />
      <path style="fill:#b4a697;stroke:none;stroke-width:3.03767" d="m 323.54074,126.72141 3.03768,3.03768 z"
         id="path883" />
      <path style="fill:#a6654a;stroke:none;stroke-width:3.03767"
         d="m 472.38655,126.72141 -3.03767,18.22601 c 5.91434,-6.71841 7.3542,-10.23663 3.03767,-18.22601 z"
         id="path884" />
      <path style="fill:#877f75;stroke:none;stroke-width:3.03767"
         d="m 158.49413,130.77154 c -1.35024,1.35024 1.85632,1.18135 2.02491,1.01275 1.34994,-1.35024 -1.85632,-1.18135 -2.02491,-1.01275 z"
         id="path885" />
      <path style="fill:#8f816f;stroke:none;stroke-width:3.03767" d="m 165.58192,129.75909 3.03767,3.03766 z"
         id="path886" />
      <path style="fill:#3d3831;stroke:none;stroke-width:3.03767" d="m 326.57842,129.75909 3.03766,3.03766 z"
         id="path887" />
      <path style="fill:#796d61;stroke:none;stroke-width:3.03767"
         d="m 335.69143,129.75909 3.03766,6.07533 c 4.96659,-1.65553 4.41981,-1.10814 6.07535,-6.07533 z"
         id="path888" />
      <path style="fill:#37332d;stroke:none;stroke-width:3.03767" d="m 150.39358,132.79675 3.03767,3.03767 z"
         id="path889" />
      <path style="fill:#645563;stroke:none;stroke-width:3.03767"
         d="m 463.27354,132.79675 c 2.07777,4.79952 2.44533,5.39854 6.07534,9.11301 -2.07777,-4.79952 -2.44532,-5.39855 -6.07534,-9.11301 z"
         id="path890" />
      <path style="fill:#31457b;stroke:none;stroke-width:3.03767"
         d="m 475.9107,128.31605 c -6.18534,8.46926 -6.33579,30.13578 -0.48648,25.74439 2.88882,-6.94198 1.6063,-18.0948 0.48648,-25.74439 z"
         id="path891" sodipodi:nodetypes="ccc" />
      <path style="fill:#8e857d;stroke:none;stroke-width:3.03767" d="m 147.35591,138.87209 3.03767,3.03767 z"
         id="path892" />
      <path style="fill:#2e2b29;stroke:none;stroke-width:3.03767" d="m 347.84211,138.87209 3.03765,3.03767 z"
         id="path893" />
      <path style="fill:#395994;stroke:none;stroke-width:3.03767"
         d="m 463.27354,138.87209 c 0.71583,3.7237 -20.16866,27.0855 -31.75416,38.61556 8.08629,-2.05954 35.85502,-22.49951 43.90484,-20.38954 -1.56136,-9.47328 -4.21932,-12.84571 -12.15068,-18.22602 z"
         id="path894" sodipodi:nodetypes="cccc" />
      <path style="fill:#1f1c18;stroke:none;stroke-width:3.03767"
         d="m 37.74962,125.52307 c -0.430854,9.82151 6.186548,50.14394 14.08105,54.94821 8.010031,1.04678 0.328618,-9.96429 1.357476,-2.10949 3.63123,-1.81561 2.969018,-1.41585 6.075339,-6.07534 13.976318,28.38368 56.150105,38.61607 85.054755,42.52737 l -9.11301,9.11302 c 14.13154,5.5158 36.96328,0.45656 51.64039,-3.03767 -5.4748,-9.95232 -5.76854,-26.4985 -12.2327,-34.61668 -10.9827,-13.79345 -39.99511,-0.50323 -46.23357,8.92083 C 111.96713,185.29356 90.627119,182.74455 71.414164,181.39946 68.01653,162.70747 54.151392,156.64033 44.075138,141.90976 Z"
         id="path895" sodipodi:nodetypes="cccccccccccc" />
      <path style="fill:#3e3d4e;stroke:none;stroke-width:3.03767"
         d="m 75.898873,137.28145 c -1.180189,27.88863 11.431436,26.03373 25.891997,28.92967 -5.091441,-10.11271 -17.378321,-21.50651 -25.891997,-28.92967 z"
         id="path896" sodipodi:nodetypes="ccc" />
      <path style="fill:#101010;stroke:none;stroke-width:3.03767"
         d="m 232.41065,141.90976 v 12.15068 c 2.15675,-5.34479 2.15675,-6.8059 0,-12.15068 z" id="path897" />
      <path style="fill:#ccb79d;stroke:none;stroke-width:3.03767"
         d="m 257.72355,143.93498 c -0.16706,0.16858 -0.33717,3.37514 1.01459,2.0249 0.16707,-0.16858 0.33718,-3.37515 -1.01459,-2.0249 z"
         id="path898" />
      <path style="fill:#33312f;stroke:none;stroke-width:3.03767" d="m 350.87976,141.90976 3.03768,3.03766 z"
         id="path899" />
      <path style="fill:#6b6560;stroke:none;stroke-width:3.03767"
         d="m 356.95511,141.90976 -3.03767,6.07534 h 6.07533 c 0,-5.62941 0.91131,-4.10116 -3.03766,-6.07534 z"
         id="path900" />
      <path style="fill:#a8927d;stroke:none;stroke-width:3.03767" d="m 74.451833,144.94742 3.03767,3.03768 z"
         id="path901" />
      <path style="fill:#665e55;stroke:none;stroke-width:3.03767" d="m 138.2429,144.94742 3.03767,3.03768 z"
         id="path902" />
      <path style="fill:#756a5f;stroke:none;stroke-width:3.03767" d="m 363.03045,144.94742 3.03767,3.03768 z"
         id="path903" />
      <path style="fill:#94836f;stroke:none;stroke-width:3.03767" d="m 135.20523,147.9851 3.03767,3.03767 z"
         id="path904" />
      <path style="fill:#6c5349;stroke:none;stroke-width:3.03767" d="m 235.44832,147.9851 3.03767,3.03767 z"
         id="path905" />
      <path style="fill:#d7c2a8;stroke:none;stroke-width:3.03767"
         d="m 265.82503,147.9851 c 1.93195,9.05772 6.5249,9.58475 15.18833,12.15068 -4.19804,-7.35207 -7.17801,-9.29801 -15.18833,-12.15068 z"
         id="path906" />
      <path style="fill:#b59f86;stroke:none;stroke-width:3.03767"
         d="m 359.99277,147.9851 c 1.91677,9.3062 2.31471,17.00913 12.15069,18.22602 l -3.03768,9.113 c 5.89005,2.7087 7.6519,4.25821 12.15069,9.11301 h 9.113 c -4.65978,-11.88579 -13.23209,-20.58295 -15.18834,-33.41436 z"
         id="path907" />
      <path style="fill:#423f3d;stroke:none;stroke-width:3.03767"
         d="m 368.09424,148.99755 c -1.35176,1.34995 1.85603,1.18166 2.02308,1.01276 1.35177,-1.35023 -1.85601,-1.18135 -2.02308,-1.01276 z"
         id="path908" />
      <path style="fill:#69615e;stroke:none;stroke-width:3.03767" d="m 37.999799,151.02277 3.037669,3.03767 z"
         id="path909" />
      <path style="fill:#2f2727;stroke:none;stroke-width:3.03767"
         d="m 235.44832,151.02277 c -2.46659,14.56198 -1.85601,30.59479 -3.03767,45.56504 26.5462,-2.06987 14.72662,-31.08143 3.03767,-45.56504 z"
         id="path910" />
      <path style="fill:#3961a5;stroke:none;stroke-width:3.03767"
         d="m 448.08519,172.28645 c 7.18409,-7.685 19.10999,-11.161 21.26369,-21.26368 -12.36027,3.68621 -20.65007,7.62576 -21.26369,21.26368 z"
         id="path911" />
      <path style="fill:#423031;stroke:none;stroke-width:3.03767"
         d="m 65.338825,154.06044 c 8.918901,6.83293 19.869094,19.61727 30.496384,22.87396 7.306511,2.23906 16.600561,-1.60176 24.181671,-1.61028 1.70657,-5.46962 2.50334,-9.48298 3.03767,-15.18834 -6.75152,2.79313 -8.30468,2.54161 -15.18834,0 -15.759141,4.94836 -26.595415,-5.55834 -42.527385,-6.07534 z"
         id="path912" />
      <path style="fill:#b09273;stroke:none;stroke-width:3.03767"
         d="m 208.1093,154.06044 3.03767,15.18834 -3.03767,-6.07533 c -2.7977,7.05529 -2.08688,10.87637 0,18.22601 -7.16282,-2.00213 -9.85116,-3.84781 -15.18836,-9.11301 -3.94531,10.42195 -0.25211,29.24243 12.58811,32.32901 8.49399,2.7122 19.99503,3.51084 26.9016,-1.9523 5.57616,-11.82577 -8.2898,-36.11546 -24.30135,-48.60272 z"
         id="path913" sodipodi:nodetypes="cccccccc" />
      <path style="fill:#d6bfa4;stroke:none;stroke-width:3.03767"
         d="m 359.99277,154.06044 v 12.15068 c 2.15675,-5.34478 2.15675,-6.80591 0,-12.15068 z" id="path914" />
      <path style="fill:#3b3633;stroke:none;stroke-width:3.03767" d="m 451.12287,154.06044 3.03767,3.03767 z"
         id="path915" />
      <path style="fill:#705e5a;stroke:none;stroke-width:3.03767"
         d="m 475.42422,154.06044 v 12.15068 c 2.15674,-5.34478 2.15674,-6.80591 0,-12.15068 z" id="path916" />
      <path style="fill:#51301c;stroke:none;stroke-width:3.03767"
         d="m 68.376494,157.09811 c 2.717195,6.20201 4.666772,11.62759 6.075339,18.22601 -19.440915,12.14523 24.121496,9.94292 51.640387,9.11301 -2.90795,4.60694 -4.21386,7.1039 -6.07534,12.15068 l 9.11301,9.113 c 5.05954,-12.29374 8.66708,-19.07291 21.26369,-24.30135 -2.99424,4.4912 -3.03767,3.65493 -3.03767,9.11302 12.47662,-5.57231 19.54922,-10.91951 30.3767,0 19.72662,-25.31168 -16.80257,-24.25519 -33.41437,-27.33903 -10.10208,11.3384 -17.46842,8.60511 -31.19929,10.44198 -6.22723,0.83293 -11.91739,4.49971 -18.151001,1.62911 -9.90767,-4.56289 -16.07565,-13.89096 -26.591455,-18.14643 z"
         id="path917" sodipodi:nodetypes="cccccccccccc" />
      <path style="fill:#b5927b;stroke:none;stroke-width:3.03767"
         d="m 150.39358,160.13578 c 8.82352,2.71476 18.06685,0.39338 27.33903,0 -9.36362,-3.89369 -17.5951,-2.31622 -27.33903,0 z"
         id="path918" />
      <path style="fill:#ddc8ae;stroke:none;stroke-width:3.03767"
         d="m 341.76676,157.09811 -3.03767,9.11301 c 5.36453,-2.97267 5.93865,-3.71143 3.03767,-9.11301 z"
         id="path919" />
      <path style="fill:#5e5e81;stroke:none;stroke-width:3.03767"
         d="m 471.37501,158.11056 c -1.35176,1.34994 1.85601,1.18166 2.02309,1.01275 1.35176,-1.35023 -1.85603,-1.18134 -2.02309,-1.01275 z"
         id="path920" />
      <path style="fill:#7a7574;stroke:none;stroke-width:3.03767" d="m 101.79087,160.13578 3.03767,3.03767 z"
         id="path921" />
      <path style="fill:#55443f;stroke:none;stroke-width:3.03767"
         d="m 161.5318,161.14823 c -1.35024,1.35025 1.85632,1.18135 2.02492,1.01276 1.35024,-1.35025 -1.85634,-1.18135 -2.02492,-1.01276 z"
         id="path922" />
      <path style="fill:#3b2821;stroke:none;stroke-width:3.03767"
         d="m 150.39358,163.17345 c 12.04619,5.0565 29.82006,17.83907 42.67394,21.85001 l -3.18423,-24.88768 z"
         id="path923" sodipodi:nodetypes="cccc" />
      <path style="fill:#947b66;stroke:none;stroke-width:3.03767"
         d="m 232.41065,160.13578 v 24.30135 c 3.52674,-8.41404 3.52674,-15.88731 0,-24.30135 z" id="path924" />
      <path style="fill:#dac1a6;stroke:none;stroke-width:3.03767" d="m 250.63667,160.13578 3.03767,3.03767 z"
         id="path925" />
      <path style="fill:#6471a5;stroke:none;stroke-width:3.03767"
         d="m 451.12287,163.17345 c -0.56231,7.80768 -3.0672,17.7522 3.03767,18.22601 6.82563,-6.55224 11.33658,-12.63184 15.18834,-21.26368 -7.79238,-3.9478 -12.32157,1.53137 -18.22601,3.03767 z"
         id="path926" sodipodi:nodetypes="cccc" />
      <path style="fill:#212429;stroke:none;stroke-width:3.03767"
         d="m 47.112808,163.17345 c -0.02583,17.89431 14.453839,39.13733 30.894618,47.03224 13.466603,6.46689 24.239394,2.51913 32.896454,16.75882 13.56835,-0.69046 25.56077,0.25911 33.41436,-12.15069 -15.95081,-2.65856 -31.63064,-7.44714 -45.565041,-15.18833 -3.11635,-1.73148 -7.70143,-3.9046 -10.8998,-5.50393 -3.96294,-1.98148 -8.596277,-5.63674 -10.363896,-6.64676 h -6.075339 c -5.254561,-5.25456 -7.774612,-11.68742 -12.150679,-15.18835 -4.602676,-3.68225 -4.442078,-1.66253 -4.663827,-0.55438 -2.689856,-5.96082 -3.284538,-3.65127 -7.48685,-8.55862 z"
         id="path927" sodipodi:nodetypes="ccccccccscc" />
      <path style="fill:#928678;stroke:none;stroke-width:3.03767" d="m 123.05455,163.17345 3.03767,3.03767 z"
         id="path928" />
      <path style="fill:#917a65;stroke:none;stroke-width:3.03767"
         d="m 140.26812,164.1859 c -1.35024,1.35025 1.85632,1.18135 2.0249,1.01276 1.35025,-1.35025 -1.85632,-1.18134 -2.0249,-1.01276 z"
         id="path929" />
      <path style="fill:#e9d2b7;stroke:none;stroke-width:3.03767" d="m 253.67434,163.17345 3.03768,3.03767 z"
         id="path930" />
      <path style="fill:#8a8078;stroke:none;stroke-width:3.03767" d="m 375.18113,163.17345 3.03767,3.03767 z"
         id="path931" />
      <path style="fill:#d07a56;stroke:none;stroke-width:3.03767"
         d="m 469.34888,163.17345 -6.07534,18.22601 c 6.00547,-4.62879 10.53768,-9.19411 15.18835,-15.18834 -5.7456,-21.31753 -9.10399,-12.15811 -9.11301,-3.03767 z"
         id="path932" sodipodi:nodetypes="cccc" />
      <path style="fill:#39384a;stroke:none;stroke-width:3.03767"
         d="m 121.92875,161.20755 c -2.66704,5.58877 -6.20772,11.4312 1.1258,14.11657 4.28537,0.43225 13.88307,-2.48542 21.26369,-6.07534 5.3015,-8.24433 -14.66378,-7.98442 -22.38949,-8.04123 z"
         id="path933" sodipodi:nodetypes="cccc" />
      <path style="fill:#d6bfab;stroke:none;stroke-width:3.03767"
         d="m 257.72355,168.23633 c -0.16706,0.1686 -0.33717,3.37516 1.01459,2.02491 0.16707,-0.1686 0.33718,-3.37515 -1.01459,-2.02491 z"
         id="path934" />
      <path style="fill:#b59b7f;stroke:none;stroke-width:3.03767"
         d="m 338.72909,166.21112 c -7.84631,19.88549 5.16708,28.29832 24.30136,30.37669 -4.15553,-7.41039 -7.60025,-11.36392 -15.18834,-15.18835 2.99513,-4.49119 3.03765,-3.65491 3.03765,-9.11301 z"
         id="path935" />
      <path style="fill:#384b82;stroke:none;stroke-width:3.03767"
         d="m 442.00986,166.21112 c 3.53281,6.73361 6.33658,10.31046 12.15068,15.18834 -2.26004,-8.14034 -4.6446,-11.2974 -12.15068,-15.18834 z"
         id="path936" />
      <path style="fill:#988a8e;stroke:none;stroke-width:3.03767"
         d="m 466.31121,166.21112 c -5.69399,6.04008 -19.35484,18.6335 -12.91641,20.93769 3.7822,6.0655 19.40998,-16.26725 12.91641,-20.93769 z"
         id="path937" sodipodi:nodetypes="ccc" />
      <path style="fill:#544c48;stroke:none;stroke-width:3.03767" d="m 44.075138,169.24878 3.03767,3.03767 z"
         id="path938" />
      <path style="fill:#e4d0bb;stroke:none;stroke-width:3.03767"
         d="m 311.39006,169.24878 6.07534,33.41438 12.15068,-3.03767 v 15.18833 l 9.11301,-6.07533 v 15.18835 c 11.7406,-16.49971 -15.65615,-42.4809 -27.33903,-54.67806 z"
         id="path939" />
      <path style="fill:#293c6b;stroke:none;stroke-width:3.03767"
         d="m 438.97218,169.24878 c -3.4434,11.4677 2.13825,6.80596 9.11301,9.11301 11.11131,-13.99665 3.74515,-10.41679 -9.11301,-9.11301 z"
         id="path940" sodipodi:nodetypes="ccc" />
      <path style="fill:#c75e2d;stroke:none;stroke-width:3.03767"
         d="m 472.38655,169.24878 c -7.22358,9.64946 -17.55773,15.73787 -21.26368,27.33903 11.00301,4.95885 25.63956,-11.73598 21.26368,-27.33903 z"
         id="path941" sodipodi:nodetypes="ccc" />
      <path style="fill:#a5866b;stroke:none;stroke-width:3.03767"
         d="m 186.84562,172.28645 c 0.29495,10.14674 2.11087,17.9909 6.07532,27.33904 h -6.07532 v 6.07532 c 4.8548,4.4988 6.4034,6.26217 9.113,12.15069 12.92529,-0.97205 25.87338,-1.54225 33.70753,-11.82719 -26.01461,4.52582 -32.82661,-14.14367 -42.82053,-33.73786 z"
         id="path942" sodipodi:nodetypes="ccccccc" />
      <path style="fill:#d6c2af;stroke:none;stroke-width:3.03767"
         d="m 260.76122,174.31167 c -0.16707,0.16858 -0.33717,3.37516 1.01459,2.02492 0.16707,-0.1686 0.33718,-3.37517 -1.01459,-2.02492 z"
         id="path943" />
      <path style="fill:#baa081;stroke:none;stroke-width:3.03767"
         d="m 271.90035,172.28645 v 12.15068 c 2.15676,-5.34478 2.15676,-6.80589 0,-12.15068 z" id="path944" />
      <path style="fill:#dabfa5;stroke:none;stroke-width:3.03767"
         d="m 274.93803,172.28645 c -1.96841,7.68621 -4.33475,11.80166 -9.113,18.22603 7.48752,12.02597 13.84198,34.64923 27.33902,6.07533 -5.45869,0 -4.62029,0.0434 -9.11301,3.03768 z"
         id="path945" sodipodi:nodetypes="ccccc" />
      <path style="fill:#e9d3ba;stroke:none;stroke-width:3.03767"
         d="m 277.9757,172.28645 c 0.0972,8.7333 -0.63183,15.41466 6.07534,21.2637 -1.80741,-7.27705 -3.01034,-14.48058 -6.07534,-21.2637 z"
         id="path946" />
      <path style="fill:#d8bea2;stroke:none;stroke-width:3.03767"
         d="m 350.87976,172.28645 -3.03765,9.11301 9.113,6.07534 3.03766,-9.11301 z" id="path947" />
      <path style="fill:#736357;stroke:none;stroke-width:3.03767" d="m 384.29414,172.28645 3.03766,3.03767 z"
         id="path948" />
      <path style="fill:#212b4a;stroke:none;stroke-width:3.03767"
         d="m 435.93452,172.28645 c -3.60268,3.60359 -4.64156,4.81106 -6.07535,9.11301 l 21.2637,3.03767 c 7.55955,-12.44903 -7.78029,-9.00797 -15.18835,-12.15068 z"
         id="path949" sodipodi:nodetypes="cccc" />
      <path style="fill:#5b5651;stroke:none;stroke-width:3.03767" d="m 47.112808,175.32412 3.037669,3.03767 z"
         id="path950" />
      <path style="fill:#d0b99d;stroke:none;stroke-width:3.03767"
         d="m 293.16405,175.32412 -3.03767,15.18836 c 4.00365,-5.85117 5.01518,-8.40159 3.03767,-15.18836 z"
         id="path951" />
      <path style="fill:#554a48;stroke:none;stroke-width:3.03767"
         d="m 378.45048,172.19689 c 0.75739,18.6272 9.32293,28.64207 17.99433,6.1649 -3.79102,-2.08019 -13.58363,-5.40183 -17.99433,-6.1649 z"
         id="path952" sodipodi:nodetypes="ccc" />
      <path style="fill:#4a2c29;stroke:none;stroke-width:3.03767"
         d="m 390.36947,178.36179 3.03767,12.15069 c 5.04558,-1.8615 7.54254,-3.16738 12.15069,-6.07535 -5.65615,-5.37849 -7.35116,-5.99301 -15.18836,-6.07534 z"
         id="path953" />
      <path style="fill:#686561;stroke:none;stroke-width:3.03767" d="m 429.85917,175.32412 3.03768,3.03767 z"
         id="path954" />
      <path style="fill:#947152;stroke:none;stroke-width:3.03767"
         d="m 183.80794,178.36179 c -19.2064,13.33762 -8.07679,27.88084 9.79029,44.61989 1.2415,-6.90645 -4.35803,-16.6153 -6.75261,-23.35619 h 6.07532 c -2.1867,-7.71282 3.14837,-20.2173 -9.113,-21.2637 z"
         id="path955" sodipodi:nodetypes="ccccc" />
      <path style="fill:#eddccb;stroke:none;stroke-width:3.03767"
         d="m 262.78735,178.36179 v 9.11301 c 2.11422,-4.71963 2.11422,-4.39338 0,-9.11301 z" id="path956" />
      <path style="fill:#80786f;stroke:none;stroke-width:3.03767"
         d="m 404.54628,179.37425 c -1.35176,1.34995 1.85602,1.18135 2.02309,1.01276 1.35176,-1.35055 -1.85603,-1.18136 -2.02309,-1.01276 z"
         id="path957" />
      <path style="fill:#393347;stroke:none;stroke-width:3.03767"
         d="m 405.55783,181.39946 c -37.66923,-6.46449 32.62487,22.95113 18.22602,0 -6.82262,-1.01883 -11.47936,-1.1859 -18.22602,0 z"
         id="path958" sodipodi:nodetypes="ccc" />
      <path style="fill:#4d3d3f;stroke:none;stroke-width:3.03767"
         d="m 423.78385,178.36179 c -1.75275,8.23573 -2.33294,10.31168 6.07532,12.15069 -0.0122,-5.23298 6.98103,-3.22134 3.03768,-9.11302 -4.49272,-2.99422 -3.65431,-3.03767 -9.113,-3.03767 z"
         id="path959" sodipodi:nodetypes="cccc" />
      <path style="fill:#422410;stroke:none;stroke-width:3.03767"
         d="m 132.16756,196.58781 c 20.65553,7.1742 16.86946,-3.13374 18.22602,-15.18835 -10.04528,2.76459 -14.39734,5.40644 -18.22602,15.18835 z"
         id="path960" sodipodi:nodetypes="ccc" />
      <path style="fill:#edd3ae;stroke:none;stroke-width:3.03767"
         d="m 220.25998,181.39946 c 0.91129,11.73878 3.30803,16.24637 15.18834,18.22603 -4.52916,-7.13762 -8.87,-12.63154 -15.18834,-18.22603 z"
         id="path961" />
      <path style="fill:#d4bfa5;stroke:none;stroke-width:3.03767"
         d="m 302.27706,181.39946 c 0.94471,6.9584 1.11178,7.04771 6.07533,12.15069 -1.71324,-5.322 -2.79162,-7.72176 -6.07533,-12.15069 z"
         id="path962" />
      <path style="fill:#c6aa84;stroke:none;stroke-width:3.03767"
         d="m 384.29414,181.39946 c 3.18954,18.84662 3.86391,29.77038 0,48.60272 17.41584,-11.42059 27.21988,-46.05909 0,-48.60272 z"
         id="path963" sodipodi:nodetypes="ccc" />
      <path style="fill:#312829;stroke:none;stroke-width:3.03767"
         d="m 432.89685,181.39946 v 12.15069 c 5.70474,-0.53433 9.7175,-1.33111 15.18834,-3.03767 v -6.07535 c 4.01082,-5.26218 -9.4836,-2.50334 -15.18834,-3.03767 z"
         id="path964" sodipodi:nodetypes="ccccc" />
      <path style="fill:#754f41;stroke:none;stroke-width:3.03767"
         d="m 449.35385,173.52729 -2.68387,17.57402 9.34803,1.50368 c 0,-5.62941 -2.71519,-17.10353 -6.66416,-19.0777 z"
         id="path965" sodipodi:nodetypes="cccc" />
      <path style="fill:#a07161;stroke:none;stroke-width:3.03767"
         d="m 454.16054,181.39946 c 3.791,2.08021 4.70231,2.27461 9.113,3.03767 -3.791,-2.08019 -4.70231,-2.2746 -9.113,-3.03767 z"
         id="path966" />
      <path style="fill:#7d716d;stroke:none;stroke-width:3.03767" d="m 53.188146,184.43713 3.037669,3.03767 z"
         id="path967" />
      <path style="fill:#402310;stroke:none;stroke-width:3.03767"
         d="m 86.602509,184.43713 c 10.70384,9.28494 25.995171,14.07505 39.489711,18.22603 -2.33262,-3.99181 -2.08353,-3.74272 -6.07534,-6.07535 l 8.10972,-13.5659 z"
         id="path968" sodipodi:nodetypes="ccccc" />
      <path style="fill:#c1a78a;stroke:none;stroke-width:3.03767"
         d="m 293.16405,184.43713 c -0.35541,8.29315 -20.31861,23.50538 -2.16204,28.30421 l 14.31272,2.07248 6.07533,-12.15066 c -5.33415,-7.90038 -9.96659,-13.41496 -18.22601,-18.22603 z"
         id="path969" sodipodi:nodetypes="ccccc" />
      <path style="fill:#8c4121;stroke:none;stroke-width:3.03767"
         d="m 402.52015,184.43713 c -8.80651,0.27133 -4.67934,6.81356 -3.03767,12.15068 10.30618,2.29677 29.33651,-6.40688 3.03767,-12.15068 z"
         id="path970" sodipodi:nodetypes="ccc" />
      <path style="fill:#523029;stroke:none;stroke-width:3.03767"
         d="m 405.55783,184.43713 v 12.15068 c 12.24383,3.15559 26.09959,4.05603 39.4897,0 3.61312,-9.02592 -8.52698,-6.51651 -12.15068,-12.15068 -10.21265,5.36787 -16.692,3.7737 -27.33902,0 z"
         id="path971" sodipodi:nodetypes="ccccc" />
      <path style="fill:#a0918a;stroke:none;stroke-width:3.03767" d="m 426.8215,184.43713 3.03767,3.03767 z"
         id="path972" />
      <path style="fill:#a25330;stroke:none;stroke-width:3.03767"
         d="m 399.48248,187.4748 -6.07534,3.03768 c 4.50183,2.40309 8.49333,2.64216 6.07534,-3.03768 z" id="path973" />
      <path style="fill:#a54c22;stroke:none;stroke-width:3.03767"
         d="m 448.08519,187.4748 c -6.94626,4.21568 -2.17366,9.86048 0,15.18836 5.17063,-6.28634 13.23652,-8.09099 0,-15.18836 z"
         id="path974" sodipodi:nodetypes="ccc" />
      <path style="fill:#8d7263;stroke:none;stroke-width:3.03767"
         d="m 189.88329,208.73849 3.03765,9.11301 c -5.06105,-5.47297 -8.64368,-8.77977 -15.18833,-12.15069 1.91706,5.43197 4.65888,10.00701 3.03767,15.18836 9.27126,9.72359 8.39155,17.66829 6.07534,30.37669 7.84933,-8.47084 12.97995,-19.30469 24.34691,-23.91222 1.93379,21.24618 79.98497,28.49972 27.29346,-3.4268 -1.81652,-3.63123 -1.41554,-2.96901 -6.07534,-6.07534 7.05651,-5.78919 9.70233,-9.44108 12.15068,-18.22601 8.73938,-0.96721 13.16526,-1.88336 18.22602,-9.11301 -13.24728,1.61421 -28.16223,6.69228 -39.4897,14.00699 -21.74278,-5.15688 -11.14217,10.84813 -18.14096,11.98209 -5.62577,0.9113 -10.6683,-5.5158 -15.2734,-7.76307 z"
         id="path975" sodipodi:nodetypes="ccccccccccccc" />
      <path style="fill:#c5ae91;stroke:none;stroke-width:3.03767"
         d="m 359.99277,190.51248 c 0,6.37059 -1.64337,5.34538 -6.07533,9.11301 6.07838,1.52369 10.08507,2.66008 15.18834,6.07532 5.84448,-3.04131 6.37304,-3.27308 9.11302,-9.113 h -12.15068 l 6.07534,-3.03766 c -4.57474,-2.07473 -7.03221,-2.50881 -12.15069,-3.03767 z"
         id="path976" />
      <path style="fill:#572c17;stroke:none;stroke-width:3.03767"
         d="m 445.04753,190.51248 c -12.21144,12.1124 -32.94657,6.7664 -48.60272,3.03767 v 9.11301 c 23.04984,0.24452 45.17926,16.27067 63.79107,-6.07535 -4.16948,-5.75777 -7.0272,-1.29882 -12.15069,6.07535 -0.52855,-5.11908 -0.96294,-7.57596 -3.03766,-12.15068 z"
         id="path977" sodipodi:nodetypes="cccccc" />
      <path style="fill:#3c2113;stroke:none;stroke-width:3.03767"
         d="m 466.31121,190.51248 c -24.21326,23.42802 -38.06807,16.86422 -66.82873,9.11301 -10.43014,26.46185 73.28375,22.52279 66.82873,-9.11301 z"
         id="path978" sodipodi:nodetypes="ccc" />
      <path style="fill:#d9cabd;stroke:none;stroke-width:3.03767"
         d="m 253.67434,217.8515 c 1.23331,-5.04041 0.93865,-6.80985 0,-12.15069 l 18.22601,-9.113 c -14.80255,-3.89034 -21.12394,8.22024 -18.22601,21.26369 z"
         id="path979" />
      <path style="fill:#fcf0db;stroke:none;stroke-width:3.03767"
         d="m 341.76676,193.55015 c 2.82807,19.33871 2.56379,27.7008 -6.07533,45.56504 18.4956,13.42502 30.53695,6.07558 42.52737,3.03767 1.3791,-5.91435 3.01945,-9.93015 6.07534,-15.18835 -12.49698,-13.81198 -23.90039,-28.55926 -42.52738,-33.41436 z"
         id="path980" sodipodi:nodetypes="ccccc" />
      <path style="fill:#f7ebd6;stroke:none;stroke-width:3.03767"
         d="m 265.82503,196.58781 c -4.06137,3.88731 -7.29042,6.16799 -12.15069,9.113 2.81592,10.32201 6.27887,15.32748 15.18836,21.2637 2.38456,-7.78859 5.00607,-14.23574 9.113,-21.2637 l -6.07535,-9.113 z"
         id="path981" />
      <path style="fill:#675f59;stroke:none;stroke-width:3.03767" d="m 466.31121,196.58781 3.03767,3.03768 z"
         id="path982" />
      <path style="fill:#7d7a74;stroke:none;stroke-width:3.03767" d="m 65.338825,199.62549 3.037669,3.03767 z"
         id="path983" />
      <path style="fill:#b59f8b;stroke:none;stroke-width:3.03767"
         d="m 244.56133,199.62549 c -3.35966,7.63305 -18.7933,10.35595 -12.15068,21.26368 15.32808,3.78828 28.4174,4.43135 33.41438,21.26369 h 12.15067 c -3.79101,-2.0802 -4.70231,-2.27461 -9.113,-3.03767 -2.46053,-15.62395 -16.56443,-23.21236 -15.18836,-39.4897 z"
         id="path984" sodipodi:nodetypes="ccccccc" />
      <path style="fill:#b89c80;stroke:none;stroke-width:3.03767"
         d="m 359.99277,199.62549 c 4.4988,7.05862 8.03768,10.87667 15.18836,15.18833 -2.62151,-9.30893 -5.88093,-12.56713 -15.18836,-15.18833 z"
         id="path985" />
      <path style="fill:#7e7a77;stroke:none;stroke-width:3.03767" d="m 68.376494,202.66316 3.03767,3.03765 z"
         id="path986" />
      <path style="fill:#7c6856;stroke:none;stroke-width:3.03767"
         d="m 396.44481,202.66316 v 12.15066 c 3.98898,-6.02797 25.00786,-15.32664 0,-12.15066 z" id="path987"
         sodipodi:nodetypes="ccc" />
      <path style="fill:#dfcebc;stroke:none;stroke-width:3.03767"
         d="m 274.93803,205.70081 c -3.79404,10.12942 -5.6045,19.56899 -6.07533,30.37671 2.07472,-4.57474 2.50911,-7.0316 3.03765,-12.15068 2.70353,5.29981 4.41374,9.49272 6.07535,15.18835 l 12.15068,-3.03767 v 12.15067 c 4.96659,1.65584 4.41981,1.10814 6.07534,6.07534 l 15.18834,-3.03767 c 2.17194,10.48665 3.387,20.69656 12.15068,27.33904 -0.34629,-6.86393 -2.53038,-14.46782 -1.34872,-21.2637 1.98056,-11.40948 15.74727,-29.67803 -1.68895,-33.41436 -0.49514,8.56046 -3.7424,16.05773 -6.07534,24.30135 -12.76732,-7.40796 -7.91616,-21.55925 -24.30135,-24.30135 l 6.07534,-12.15068 z"
         id="path988" />
      <path style="fill:#d4b690;stroke:none;stroke-width:3.03767"
         d="m 375.18113,205.70081 c 0.69865,9.71539 2.13851,14.47603 9.11301,21.2637 l 6.07533,-12.15069 c -5.77461,-2.55528 -10.12759,-5.29951 -15.18834,-9.11301 z"
         id="path989" />
      <path style="fill:#827a78;stroke:none;stroke-width:3.03767" d="m 460.23588,205.70081 3.03766,3.03768 z"
         id="path990" />
      <path style="fill:#d0b49b;stroke:none;stroke-width:3.03767"
         d="m 293.16405,208.73849 c -0.20656,5.69624 -1.209,9.74545 -3.03767,15.18835 14.92104,4.63274 10.19442,19.57747 24.30135,24.30135 3.4265,-8.52825 6.16951,-15.13853 6.07534,-24.30135 -4.30133,1.43408 -5.51033,2.47174 -9.11301,6.07534 l -3.03767,-21.26369 c -3.63001,1.81562 -2.96779,1.41586 -6.07533,6.07533 -3.60268,-3.1458 -4.87243,-4.06622 -9.11301,-6.07533 z"
         id="path991" />
      <path style="fill:#191e1f;stroke:none;stroke-width:3.03767"
         d="m 399.48248,208.73849 c -11.26604,0.79193 -19.68443,17.02312 -18.83444,27.21394 25.19276,0.89832 36.22207,-5.03348 40.09813,-21.13861 z"
         id="path992" sodipodi:nodetypes="cccc" />
      <path style="fill:#7d7974;stroke:none;stroke-width:3.03767" d="m 80.527172,211.77616 3.037677,3.03766 z"
         id="path993" />
      <path style="fill:#2c2c32;stroke:none;stroke-width:3.03767"
         d="m 77.403561,208.59191 c 5.900668,9.36726 22.791619,13.85225 33.500319,15.33493 -6.3618,-9.07808 -22.718411,-13.83372 -33.500319,-15.33493 z"
         id="path994" sodipodi:nodetypes="ccc" />
      <path style="fill:#d9bfa8;stroke:none;stroke-width:3.03767"
         d="m 312.40161,216.83905 c -0.16707,0.16858 -0.33718,3.37515 1.01458,2.02491 0.16708,-0.1686 0.33718,-3.37516 -1.01458,-2.02491 z"
         id="path995" />
      <path style="fill:#292c31;stroke:none;stroke-width:3.03767"
         d="m 405.12851,234.07609 c 12.90369,-0.34394 23.57826,-2.08105 33.84367,-4.07391 -1.01254,-5.06279 5.89873,-15.67225 -3.03766,-15.18836 -18.18556,-5.29526 -26.18661,5.54549 -30.80601,19.26227 z"
         id="path996" sodipodi:nodetypes="cccc" />
      <path style="fill:#1d1d1c;stroke:none;stroke-width:3.03767"
         d="m 437.81086,229.80603 c 6.98967,-1.20656 13.11298,-16.41668 19.4769,-19.58497 -8.39006,-4.83446 -27.69039,4.33662 -19.4769,19.58497 z"
         id="path997" sodipodi:nodetypes="ccc" />
      <path style="fill:#efdabf;stroke:none;stroke-width:3.03767"
         d="m 314.42773,213.09811 c -7.25596,6.04977 -6.36536,11.80859 -4.41363,17.52952 6.20292,-2.71721 22.51094,7.09161 19.60198,-6.70079 4.75088,-7.43541 -9.6446,-9.15619 -15.18835,-10.82873 z"
         id="path998" sodipodi:nodetypes="cccc" />
      <path style="fill:#5d5143;stroke:none;stroke-width:3.03767" d="m 393.40714,220.88917 3.03767,3.03767 z"
         id="path999" />
      <path style="fill:#736d69;stroke:none;stroke-width:3.03767" d="m 445.04753,220.88917 3.03766,3.03767 z"
         id="path1000" />
      <path style="fill:#6b6359;stroke:none;stroke-width:3.03767"
         d="m 156.46891,223.92684 c 3.79223,2.0802 4.70353,2.2746 9.11301,3.03767 -3.79222,-2.08021 -4.70352,-2.2746 -9.11301,-3.03767 z"
         id="path1001" />
      <path style="fill:#947868;stroke:none;stroke-width:3.03767"
         d="m 165.58192,223.92684 c -1.35449,10.36392 -12.00577,10.36118 -21.26368,12.15068 11.82686,4.9517 24.06229,1.56592 36.45204,0 -2.90159,28.14552 -19.52311,36.43198 -45.56505,36.45203 9.97753,6.80711 18.91314,5.73421 30.37669,3.03767 l -15.18834,12.15068 9.113,45.56504 c 21.73257,11.7645 43.21602,70.92276 75.94174,36.45204 -33.43866,-12.21143 -78.51646,-34.35909 -67.69355,-75.94175 2.65158,-10.18742 4.03452,-24.66849 16.18439,-27.57565 10.70315,-2.56099 15.50524,17.13078 30.24548,14.74302 19.41618,11.91466 32.23044,17.93864 48.60271,6.7573 -8.35055,-13.23452 -36.54316,-26.39579 -51.64038,-24.30136 4.52162,-8.36899 -0.80893,-18.04259 -3.03767,-27.33902 l -12.15068,-3.03767 -7.40211,14.4226 1.32678,-23.53561 c -6.12079,-5.19663 -15.70479,-1.30229 -24.30137,0 z"
         id="path1002" sodipodi:nodetypes="ccccccccsscccccccc" />
      <path style="fill:#6c4b3c;stroke:none;stroke-width:3.03767"
         d="m 205.07163,226.96451 c -15.09436,10.44656 5.8668,10.97489 15.18835,12.15068 -3.30499,14.44776 -1.6525,23.42923 12.15067,30.3767 -3.19258,-12.346 -8.51155,-20.22359 -6.07533,-33.41437 4.49271,2.99423 3.65431,3.03767 9.113,3.03767 -6.24847,-4.8053 -10.29162,-5.54558 -18.22601,-6.07534 3.87911,-5.81714 3.87911,-3.29588 0,-9.11301 z"
         id="path1003" sodipodi:nodetypes="cccccccc" />
      <path style="fill:#855542;stroke:none;stroke-width:3.03767"
         d="m 217.22231,223.92684 c 4.68712,3.84781 6.22115,4.524 12.15068,6.07534 -4.68713,-3.84782 -6.22115,-4.52369 -12.15068,-6.07534 z"
         id="path1004" />
      <path style="fill:#855d43;stroke:none;stroke-width:3.03767"
         d="m 232.41065,223.92684 c 5.37365,2.36603 9.22237,2.77157 15.18836,3.03767 5.94328,-4.96743 -10.8186,-9.15653 -15.18836,-3.03767 z"
         id="path1005" sodipodi:nodetypes="ccc" />
      <path style="fill:#a37e67;stroke:none;stroke-width:3.03767"
         d="m 247.59901,223.92684 c -8.22048,8.76974 10.01318,10.15693 15.18834,15.18835 2.31167,-10.61575 -5.89915,-13.25761 -15.18834,-15.18835 z"
         id="path1006" sodipodi:nodetypes="ccc" />
      <path style="fill:#bdab9c;stroke:none;stroke-width:3.03767"
         d="m 271.90035,223.92684 c -2.02386,3.82341 -31.43018,-25.91006 -3.03765,15.18835 20.54639,13.53009 9.78778,-7.24904 3.03765,-15.18835 z"
         id="path1007" sodipodi:nodetypes="ccc" />
      <path style="fill:#76756f;stroke:none;stroke-width:3.03767" d="m 438.97218,223.92684 3.03768,3.03767 z"
         id="path1008" />
      <path style="fill:#e2ceb0;stroke:none;stroke-width:3.03767"
         d="m 122.34694,225.72618 15.89596,13.38901 c 2.07473,-4.57474 2.50881,-7.0316 3.03767,-12.15068 -5.30354,-0.88484 9.65311,-11.26094 -18.93363,-1.23833 z"
         id="path1009" sodipodi:nodetypes="cccc" />
      <path style="fill:#d4c4b3;stroke:none;stroke-width:3.03767"
         d="m 141.28057,226.96451 v 12.15068 l 27.33902,-9.11301 c 5.19073,-10.99511 -6.63813,-8.89703 -27.33902,-3.03767 z"
         id="path1010" sodipodi:nodetypes="cccc" />
      <path style="fill:#321f15;stroke:none;stroke-width:3.03767"
         d="m 217.22231,230.00218 c 10.42528,4.37515 22.17499,3.03767 33.41436,3.03767 2.87364,16.92924 16.26976,31.15859 -9.11301,36.45204 6.84084,3.30649 13.77583,4.61329 21.26369,6.07533 0.81713,-10.35116 8.0313,-24.88594 4.1127,-34.91694 -6.90158,-17.66557 -34.8934,-12.39416 -49.67774,-10.6481 z"
         id="path1011" sodipodi:nodetypes="cccccc" />
      <path style="fill:#6b3b24;stroke:none;stroke-width:3.03767"
         d="m 238.48599,226.96451 c 5.37364,2.36604 9.22237,2.77157 15.18835,3.03767 -5.59527,-3.36342 -10.22792,-7.29654 -15.18835,-3.03767 z"
         id="path1012" sodipodi:nodetypes="ccc" />
      <path style="fill:#7a7771;stroke:none;stroke-width:3.03767" d="m 432.89685,226.96451 3.03767,3.03767 z"
         id="path1013" />
      <path style="fill:#efdfc6;stroke:none;stroke-width:3.03767"
         d="m 105.77621,222.57226 c 6.51262,7.28193 38.41765,19.60934 46.35357,20.13911 15.8227,-23.22994 -38.79282,-19.36482 -46.35357,-20.13911 z"
         id="path1014" sodipodi:nodetypes="ccc" />
      <path style="fill:#7a5b4c;stroke:none;stroke-width:3.03767"
         d="m 198.99629,233.03985 c 3.79101,2.08019 4.70231,2.2746 9.11301,3.03767 0.28038,5.95936 -1.67087,12.72008 3.03767,15.18834 h 6.07534 c 5.30553,-1.90374 2.48639,-7.8698 3.03767,-12.15067 -7.77036,-1.80832 -13.13489,-5.85694 -21.26369,-6.07534 z"
         id="path1015" sodipodi:nodetypes="cccccc" />
      <path style="fill:#958f86;stroke:none;stroke-width:3.03767" d="m 378.2188,230.00218 3.03767,3.03767 z"
         id="path1016" />
      <path style="fill:#473e3e;stroke:none;stroke-width:3.03767"
         d="m 232.41065,233.03985 c 6.64035,3.39033 10.7807,3.72601 18.22602,3.03767 -6.2333,-2.65553 -11.38215,-2.89429 -18.22602,-3.03767 z"
         id="path1017" />
      <path style="fill:#724e3e;stroke:none;stroke-width:3.03767" d="m 259.74969,233.03985 3.03766,3.03767 z"
         id="path1018" />
      <path style="fill:#ad8e7b;stroke:none;stroke-width:3.03767"
         d="m 116.97921,248.22819 c 10.1279,6.62212 18.8852,2.82686 30.3767,3.71751 19.0478,8.90303 31.7289,20.38131 33.41437,-15.86818 -21.84692,1.72418 -43.58085,3.20534 -63.79107,12.15067 z"
         id="path1019" sodipodi:nodetypes="cccc" />
      <path style="fill:#73655a;stroke:none;stroke-width:3.03767"
         d="m 226.33532,236.07752 c -2.85541,10.48057 -1.70064,28.25112 7.5764,34.80885 7.96101,13.54125 18.28878,-15.85686 10.64961,-31.77118 -6.06623,-2.28281 -11.68592,-2.54679 -18.22601,-3.03767 z"
         id="path1020" sodipodi:nodetypes="cccc" />
      <path style="fill:#bdb09f;stroke:none;stroke-width:3.03767"
         d="m 277.9757,239.11519 c 4.07352,3.87029 7.29952,6.19897 12.15068,9.113 0.68044,-5.11513 0.66221,-7.02763 0,-12.15067 z"
         id="path1021" />
      <path style="fill:#302f2e;stroke:none;stroke-width:3.03767" d="m 378.2188,236.07752 3.03767,3.03767 z"
         id="path1022" />
      <path style="fill:#775d56;stroke:none;stroke-width:3.03767"
         d="m 98.753199,239.11519 c 6.920701,8.10975 0.32615,19.77614 27.273361,22.61576 4.96719,-1.65584 8.84208,-14.46432 10.49791,-19.43151 -20.19226,2.02683 -25.18539,-2.12099 -37.771271,-3.18425 z"
         id="path1023" sodipodi:nodetypes="cccc" />
      <path style="fill:#491d0a;stroke:none;stroke-width:3.03767"
         d="m 238.48599,242.15286 c 6.23749,2.6641 15.52964,11.35514 18.22603,3.03767 -6.89856,-5.10389 -9.84813,-5.03402 -18.22603,-3.03767 z"
         id="path1024" sodipodi:nodetypes="ccc" />
      <path style="fill:#e6ccae;stroke:none;stroke-width:3.03767"
         d="m 359.99277,239.11519 c 3.79102,2.08019 4.70233,2.2746 9.11301,3.03767 -3.79101,-2.0802 -4.7023,-2.27461 -9.11301,-3.03767 z"
         id="path1025" />
      <path style="fill:#c4a887;stroke:none;stroke-width:3.03767"
         d="m 369.10578,239.11519 c 2.35724,6.4754 5.80928,20.17516 11.48972,23.90906 -2.90098,-5.36817 3.62397,-30.1863 -11.48972,-23.90906 z"
         id="path1026" sodipodi:nodetypes="ccc" />
      <path style="fill:#c5b39e;stroke:none;stroke-width:3.03767" d="m 378.2188,239.11519 3.03767,3.03767 z"
         id="path1027" />
      <path style="fill:#83796c;stroke:none;stroke-width:3.03767" d="m 381.25647,239.11519 3.03767,3.03767 z"
         id="path1028" />
      <path style="fill:#987b6b;stroke:none;stroke-width:3.03767"
         d="m 104.82854,242.15286 3.03767,12.15067 21.26368,-9.113 c -7.93651,-3.33446 -15.68804,-3.01581 -24.30135,-3.03767 z"
         id="path1029" />
      <path style="fill:#612d15;stroke:none;stroke-width:3.03767"
         d="m 235.44832,242.15286 c 5.6045,7.16433 13.82747,7.3387 21.2637,12.15067 4.11603,-10.91799 -13.32322,-10.14004 -21.2637,-12.15067 z"
         id="path1030" />
      <path style="fill:#a1887c;stroke:none;stroke-width:3.03767"
         d="m 265.82503,242.15286 c 4.55042,24.50731 3.63,46.96328 15.18833,69.8664 3.29588,-18.48908 -12.54253,-32.03466 3.03768,-48.60272 l 9.11301,48.60272 c 15.8857,4.13447 29.36241,-14.97463 6.07534,-27.33904 l 3.03767,-9.113 c -5.45869,0 -4.6203,-0.0435 -9.11301,-3.03767 3.60268,-3.60359 4.64155,-4.81106 6.07534,-9.11301 -11.92744,-11.29636 -0.3616,-28.23456 -33.41436,-21.26368 z"
         id="path1031" sodipodi:nodetypes="ccccccccc" />
      <path style="fill:#ffd594;stroke:none;stroke-width:3.03767"
         d="m 332.65375,251.26586 c 7.10417,-1.99128 17.06307,1.94644 21.26369,-6.07533 -11.20736,-6.4064 -20.32675,-8.81815 -21.26369,6.07533 z"
         id="path1032" sodipodi:nodetypes="ccc" />
      <path style="fill:#874e38;stroke:none;stroke-width:3.03767"
         d="m 347.84211,248.22819 c 9.26184,2.31865 19.04478,8.2435 28.48889,8.28663 -2.56065,-21.16746 -17.21611,-15.889 -28.48889,-8.28663 z"
         id="path1033" sodipodi:nodetypes="ccc" />
      <path style="fill:#aa8264;stroke:none;stroke-width:3.03767"
         d="m 366.06812,242.15286 c 2.07776,4.79951 2.44532,5.39854 6.07534,9.113 -2.07777,-4.79951 -2.44532,-5.39855 -6.07534,-9.113 z"
         id="path1034" />
      <path style="fill:#ce8956;stroke:none;stroke-width:3.03767" d="m 344.80444,245.19053 3.03767,3.03766 z"
         id="path1035" />
      <path style="fill:#904321;stroke:none;stroke-width:3.03767"
         d="m 232.41065,248.22819 3.03767,18.22602 c 2.70049,-7.61847 1.50366,-11.5884 -3.03767,-18.22602 z"
         id="path1036" />
      <path style="fill:#a75234;stroke:none;stroke-width:3.03767"
         d="m 235.44832,248.22819 3.03767,21.2637 c 7.418,-0.33264 14.04314,-1.30014 21.2637,-3.03768 l -3.03767,-18.22602 z"
         id="path1037" />
      <path style="fill:#8a7061;stroke:none;stroke-width:3.03767"
         d="m 265.82503,248.22819 c -5.04151,18.89154 -4.06566,31.09711 -0.12516,40.00857 18.34895,24.9079 4.21385,-30.26676 0.12516,-40.00857 z"
         id="path1038" sodipodi:nodetypes="ccc" />
      <path style="fill:#c4b3a3;stroke:none;stroke-width:3.03767"
         d="m 290.12638,248.22819 c -0.66221,5.12303 -0.68044,7.03556 0,12.15069 3.84873,-4.68713 4.52308,-6.22055 6.07534,-12.15069 z"
         id="path1039" />
      <path style="fill:#d98146;stroke:none;stroke-width:3.03767"
         d="m 337.71755,249.24065 c -1.35176,1.35025 1.85601,1.18134 2.02308,1.01276 1.35177,-1.35024 -1.85601,-1.18136 -2.02308,-1.01276 z"
         id="path1040" />
      <path style="fill:#391c10;stroke:none;stroke-width:3.03767"
         d="m 326.57842,272.52955 c 9.26185,-6.85359 47.6326,-18.86505 24.30134,-24.30136 -18.45617,-5.38387 -22.80654,6.57492 -24.30134,24.30136 z"
         id="path1041" sodipodi:nodetypes="ccc" />
      <path style="fill:#93684c;stroke:none;stroke-width:3.03767"
         d="m 346.04526,258.90301 c 3.4449,9.99578 10.43794,13.75266 16.98519,-7.63715 -5.40098,-2.90248 -14.01131,2.27202 -16.98519,7.63715 z"
         id="path1042" sodipodi:nodetypes="ccc" />
      <path style="fill:#b07866;stroke:none;stroke-width:3.03767"
         d="m 110.90388,251.26586 c 12.09865,19.78313 48.84238,21.39077 63.79105,9.11302 -19.33992,-12.1519 -42.01765,-7.84419 -63.79105,-9.11302 z"
         id="path1043" sodipodi:nodetypes="ccc" />
      <path style="fill:#8c6552;stroke:none;stroke-width:3.03767"
         d="m 211.14697,251.26586 v 12.15068 l 12.15068,3.03767 c 11.77309,-0.0421 -2.90398,-23.68033 -12.15068,-15.18835 z"
         id="path1044" sodipodi:nodetypes="cccc" />
      <path style="fill:#be8168;stroke:none;stroke-width:3.03767"
         d="m 253.67434,251.26586 v 6.07534 h 6.07535 c -1.65554,-4.96689 -1.10876,-4.4195 -6.07535,-6.07534 z"
         id="path1045" />
      <path style="fill:#f7e8ce;stroke:none;stroke-width:3.03767"
         d="m 293.16405,257.3412 c 5.92649,7.90402 5.02127,13.76248 12.15068,15.18835 -5.69184,2.96167 -4.78993,6.76284 -6.07534,12.15067 20.41636,20.85216 20.02507,62.94979 45.30988,74.17686 5.04712,6.19195 9.34153,22.73331 21.51885,10.8779 -0.5802,-11.31533 -5.38883,-22.19625 -5.23086,-33.41437 0.1458,-10.34934 7.28128,-22.66922 1.53097,-32.49335 -4.01579,-6.85783 -12.93742,-8.2509 -19.22237,-12.23269 -15.05079,-31.21428 -26.05105,-20.30013 -31.7558,-40.32871 -7.15067,1.04162 -18.70201,-6.88943 -18.22601,6.07534 z"
         id="path1046" sodipodi:nodetypes="cccccscccc" />
      <path style="fill:#cd9875;stroke:none;stroke-width:3.03767"
         d="m 329.61608,251.26586 -3.03766,12.15068 c 3.86999,-4.07352 6.19988,-7.30013 9.11301,-12.15068 z"
         id="path1047" />
      <path style="fill:#894f2e;stroke:none;stroke-width:3.03767" d="m 335.69143,251.26586 3.03766,3.03767 z"
         id="path1048" />
      <path style="fill:#aa9890;stroke:none;stroke-width:3.03767"
         d="m 350.87976,251.26586 c -19.5969,15.58132 -2.5373,5.25028 3.03768,3.03767 2.00875,-2.5232 4.98059,-5.52796 -3.03768,-3.03767 z"
         id="path1049" sodipodi:nodetypes="ccc" />
      <path style="fill:#a78164;stroke:none;stroke-width:3.03767"
         d="m 356.95511,251.26586 v 15.18835 c 2.8068,-5.00638 4.40159,-9.64429 6.07534,-15.18835 z" id="path1050" />
      <path style="fill:#6d4d3f;stroke:none;stroke-width:3.03767"
         d="m 338.72909,263.41654 c 8.77887,0.50274 13.04072,1.11514 18.22602,-6.07534 -8.46599,-0.21203 -13.05894,-0.95139 -18.22602,6.07534 z"
         id="path1051" />
      <path style="fill:#d5cec9;stroke:none;stroke-width:3.03767" d="m 347.84211,254.30353 3.03765,3.03767 z"
         id="path1052" />
      <path style="fill:#fdf9f5;stroke:none;stroke-width:3.03767" d="m 350.87976,254.30353 3.03768,3.03767 z"
         id="path1053" />
      <path style="fill:#bdafa4;stroke:none;stroke-width:3.03767" d="m 353.91744,254.30353 3.03767,3.03767 z"
         id="path1054" />
      <path style="fill:#bd896e;stroke:none;stroke-width:3.03767"
         d="m 359.99277,254.30353 c -2.14763,11.85815 -13.64569,20.53288 -22.79515,28.40045 22.30637,19.5547 38.75431,-15.13507 22.79515,-28.40045 z"
         id="path1055" sodipodi:nodetypes="ccc" />
      <path style="fill:#9c7c62;stroke:none;stroke-width:3.03767"
         d="m 361.08451,252.1807 c -1.14033,9.48761 8.36235,26.20658 14.09662,17.31119 l 3.03767,-12.15069 z"
         id="path1056" sodipodi:nodetypes="cccc" />
      <path style="fill:#44403e;stroke:none;stroke-width:3.03767" d="m 113.94155,257.3412 3.03766,3.03768 z"
         id="path1057" />
      <path style="fill:#9a6049;stroke:none;stroke-width:3.03767"
         d="m 114.7098,257.69501 c 6.46924,8.44547 18.76786,15.07811 29.34058,14.09661 -4.19776,-7.35208 -21.32904,-11.24393 -29.34058,-14.09661 z"
         id="path1058" sodipodi:nodetypes="ccc" />
      <path style="fill:#ca784e;stroke:none;stroke-width:3.03767"
         d="m 241.52366,257.3412 c 1.86514,8.65979 3.95809,8.67073 12.15068,6.07534 z" id="path1059" />
      <path style="fill:#87482c;stroke:none;stroke-width:3.03767" d="m 329.61608,257.3412 3.03767,3.03768 z"
         id="path1060" />
      <path style="fill:#c1b5aa;stroke:none;stroke-width:3.03767" d="m 350.87976,257.3412 3.03768,3.03768 z"
         id="path1061" />
      <path style="fill:#694838;stroke:none;stroke-width:3.03767" d="m 177.73261,260.37888 3.03767,3.03766 z"
         id="path1062" />
      <path style="fill:#a59284;stroke:none;stroke-width:3.03767"
         d="m 259.74969,342.39595 c -4.85421,-4.49878 -6.40341,-6.26064 -9.11302,-12.15068 -15.48299,0.55286 -23.59662,-16.32201 -30.37669,-27.33903 -4.17376,-6.78371 -11.04496,-11.22115 -15.18835,-18.22602 -3.69987,-6.25516 -4.68409,-19.65158 -12.15069,-22.78251 -20.685,-8.67438 -24.19168,27.44807 -27.84539,37.97087 -8.18805,23.58143 4.64489,30.37421 19.82413,43.91917 6.62213,5.90827 11.92468,14.17018 20.17195,18.35305 22.14142,18.64201 48.19321,5.06474 54.67806,-19.74485 z"
         id="path1063" sodipodi:nodetypes="cccsccccc" />
      <path style="fill:#583222;stroke:none;stroke-width:3.03767"
         d="m 232.41065,260.37888 c 1.12498,6.57266 -0.71148,8.87679 6.07534,9.11301 -2.09903,-4.2175 -2.9921,-5.6519 -6.07534,-9.11301 z"
         id="path1064" sodipodi:nodetypes="ccc" />
      <path style="fill:#856252;stroke:none;stroke-width:3.03767"
         d="m 262.78735,260.37888 v 15.18834 c -12.75617,-5.07293 -25.73979,-9.00875 -39.4897,-9.11301 8.31714,10.28403 30.10893,28.01586 39.4897,15.18836 2.37546,-8.13793 3.23513,-13.40556 0,-21.26369 z"
         id="path1065" sodipodi:nodetypes="ccccc" />
      <path style="fill:#c4b0a3;stroke:none;stroke-width:3.03767"
         d="m 295.19017,261.39132 c -1.35175,1.34995 1.85601,1.18166 2.02309,1.01277 1.35176,-1.35025 -1.85601,-1.18135 -2.02309,-1.01277 z"
         id="path1066" />
      <path style="fill:#f7e3c6;stroke:none;stroke-width:3.03767"
         d="m 378.2188,260.37888 3.03767,9.11301 c -7.94959,7.20869 -1.56744,15.8226 8.99453,14.05863 7.01398,-1.17162 9.19503,-5.44624 12.26915,-11.02097 z"
         id="path1067" />
      <path style="fill:#454341;stroke:none;stroke-width:3.03767" d="m 384.29414,260.37888 3.03766,3.03766 z"
         id="path1068" />
      <path style="fill:#a26f5e;stroke:none;stroke-width:3.03767"
         d="m 132.16756,272.52955 c 14.84995,0 28.52523,2.08354 39.48971,-9.11301 -14.07565,2.32261 -30.43958,-3.3879 -39.48971,9.11301 z"
         id="path1069" />
      <path style="fill:#b09f91;stroke:none;stroke-width:3.03767"
         d="m 281.01336,263.41654 c -15.47692,22.12487 4.04148,67.57411 12.53481,89.59357 l 11.91313,1.59214 -0.14657,-15.24396 -6.07534,-21.26369 9.113,6.07533 c 7.60189,-6.12517 5.89394,-17.09229 6.07534,-27.33902 -5.83232,3.93864 -7.03523,5.44046 -9.113,12.15068 -6.57656,-0.44138 -6.63123,-0.47661 -12.15068,3.03767 0.48907,-17.71842 -4.94123,-56.232 -12.15069,-48.60272 z"
         id="path1070" sodipodi:nodetypes="cccccccccc" />
      <path style="fill:#874124;stroke:none;stroke-width:3.03767"
         d="m 329.2926,270.9071 c 10.16074,2.70949 12.26028,0.78823 12.47416,-7.49056 -4.79952,2.07656 -8.7591,3.85995 -12.47416,7.49056 z"
         id="path1071" sodipodi:nodetypes="ccc" />
      <path style="fill:#e07b43;stroke:none;stroke-width:3.03767"
         d="m 341.76676,263.41654 c -2.24181,6.4186 -2.45443,8.22237 -9.11301,9.11301 4.5463,7.65048 7.56657,10.8825 15.18836,6.07535 v -15.18836 z"
         id="path1072" sodipodi:nodetypes="ccccc" />
      <path style="fill:#833f29;stroke:none;stroke-width:3.03767"
         d="m 347.84211,263.41654 c -1.29405,8.52462 -3.14399,11.99181 -9.11302,18.22603 11.97145,1.65096 16.05105,-7.7084 18.22602,-18.22603 z"
         id="path1073" />
      <path style="fill:#d1a884;stroke:none;stroke-width:3.03767"
         d="m 366.06812,263.41654 -3.03767,18.22603 c 8.11969,0 6.52701,13.56579 15.74938,16.30789 1.35649,-8.19721 -2.67222,-27.533 -12.71171,-34.53392 z"
         id="path1074" sodipodi:nodetypes="cccc" />
      <path style="fill:#d3b695;stroke:none;stroke-width:3.03767"
         d="m 377.06891,259.08243 -5.07202,14.21287 c 5.97214,1.88316 7.55368,-1.42032 9.25958,-3.80341 0,-5.62942 -0.23846,-8.43529 -4.18756,-10.40946 z"
         id="path1075" sodipodi:nodetypes="cccc" />
      <path style="fill:#cbb5aa;stroke:none;stroke-width:3.03767"
         d="m 293.16405,275.56722 h 12.15068 c 3.56777,-6.09702 -4.21926,-3.15503 -3.03767,-9.11301 -9.4765,-1.39253 -10.97152,2.71414 -9.11301,9.11301 z"
         id="path1076" sodipodi:nodetypes="cccc" />
      <path style="fill:#a97b60;stroke:none;stroke-width:3.03767"
         d="m 324.55229,268.47943 c -0.16708,0.16889 -0.33718,3.37484 1.01458,2.0249 0.16707,-0.16858 0.33718,-3.37514 -1.01458,-2.0249 z"
         id="path1077" />
      <path style="fill:#5d5751;stroke:none;stroke-width:3.03767" d="m 390.36947,266.45421 3.03767,3.03768 z"
         id="path1078" />
      <path style="fill:#ad5025;stroke:none;stroke-width:3.03767"
         d="m 329.61608,269.49189 c 1.53706,9.03342 2.9192,11.71446 12.15068,12.15068 l -9.11301,-9.11302 c 5.81714,3.8782 3.29587,3.87789 9.11301,0 -4.57474,-2.07472 -7.03221,-2.5088 -12.15068,-3.03766 z"
         id="path1079" />
      <path style="fill:#baac9e;stroke:none;stroke-width:3.03767" d="m 393.40714,269.49189 3.03767,3.03766 z"
         id="path1080" />
      <path style="fill:#46403a;stroke:none;stroke-width:3.03767" d="m 396.44481,269.49189 3.03767,3.03766 z"
         id="path1081" />
      <path style="fill:#494642;stroke:none;stroke-width:3.03767" d="m 132.16756,272.52955 3.03767,3.03767 z"
         id="path1082" />
      <path style="fill:#997f70;stroke:none;stroke-width:3.03767"
         d="m 198.99629,272.52955 c 4.46051,33.49658 48.48616,25.66762 66.33967,48.53467 11.32443,14.7734 6.53081,45.98218 27.82809,42.59541 3.21689,-25.58324 -3.38093,-38.76977 -14.9423,-61.02525 -4.94836,-9.52583 -6.20293,-17.91192 -15.4344,-24.02948 -15.42529,25.87182 -44.20113,1.74877 -63.79106,-6.07535 z"
         id="path1083" sodipodi:nodetypes="cccccc" />
      <path style="fill:#583c2a;stroke:none;stroke-width:3.03767"
         d="m 323.54074,272.52955 v 6.07535 h 6.07534 v -6.07535 z" id="path1084" />
      <path style="fill:#735c4f;stroke:none;stroke-width:3.03767"
         d="m 161.5318,276.57968 c -1.35024,1.35024 1.85632,1.18135 2.02492,1.01275 1.35024,-1.35024 -1.85634,-1.18134 -2.02492,-1.01275 z"
         id="path1085" />
      <path style="fill:#201e1b;stroke:none;stroke-width:3.03767"
         d="m 155.80795,275.10239 -4.46769,14.83159 c 4.96689,-1.65584 14.92701,-10.86541 16.58283,-15.8323 z"
         id="path1086" sodipodi:nodetypes="cccc" />
      <path style="fill:#92745a;stroke:none;stroke-width:3.03767" d="m 326.57842,278.6049 3.03766,3.03767 z"
         id="path1087" />
      <path style="fill:#f6c8a7;stroke:none;stroke-width:3.03767"
         d="m 366.06812,278.6049 c -9.80864,5.88243 -16.00548,8.02612 -27.33903,6.07532 3.46903,11.8609 16.49151,12.24485 24.30136,21.2637 3.90948,-8.7087 5.85662,-18.17408 3.03767,-27.33902 z"
         id="path1088" />
      <path style="fill:#8a827a;stroke:none;stroke-width:3.03767" d="m 399.48248,278.6049 3.03767,3.03767 z"
         id="path1089" />
      <path style="fill:#cfaf8f;stroke:none;stroke-width:3.03767"
         d="m 331.6422,282.65502 c -1.35175,1.34993 1.85603,1.18164 2.02309,1.01275 1.35177,-1.35024 -1.85601,-1.18135 -2.02309,-1.01275 z"
         id="path1090" />
      <path style="fill:#d79c6e;stroke:none;stroke-width:3.03767"
         d="m 341.76676,284.68022 c 7.0565,2.79922 10.8779,2.08779 18.22601,0 -6.31835,-1.53979 -11.65857,-0.71961 -18.22601,0 z"
         id="path1091" />
      <path style="fill:#938474;stroke:none;stroke-width:3.03767" d="m 396.44481,281.64257 3.03767,3.03765 z"
         id="path1092" />
      <path style="fill:#c6b09c;stroke:none;stroke-width:3.03767"
         d="m 366.06812,287.7179 -4.86483,18.19569 c 4.76002,-2.11907 11.80893,-5.66196 17.01551,-6.04501 4.18144,-7.59372 -12.41778,-31.87519 -12.15068,-12.15068 z"
         id="path1093" sodipodi:nodetypes="cccc" />
      <path style="fill:#a28a7b;stroke:none;stroke-width:3.03767"
         d="m 208.1093,290.75557 c 11.68592,15.50578 20.1413,45.68469 42.52737,39.4897 2.07776,6.71022 3.28069,8.21082 9.11302,12.15068 -8.11969,11.14521 -17.68228,18.9186 -30.3767,24.30136 4.39875,43.19731 37.7764,10.80808 60.75339,0 -11.24545,-14.24668 -13.0802,-31.48242 -22.8129,-45.63309 -11.83477,-17.20688 -39.5049,-27.64279 -59.20418,-30.30865 z"
         id="path1094" sodipodi:nodetypes="cccccsc" />
      <path style="fill:#c5b7ab;stroke:none;stroke-width:3.03767"
         d="m 305.31473,299.86858 c 4.79952,-2.07656 5.39794,-2.44472 9.113,-6.07535 -6.35479,1.23239 -6.13608,0.65827 -9.113,6.07535 z"
         id="path1095" />
      <path style="fill:#33312e;stroke:none;stroke-width:3.03767" d="m 150.39358,296.83091 3.03767,3.03767 z"
         id="path1096" />
      <path style="fill:#9a8c7c;stroke:none;stroke-width:3.03767"
         d="m 369.10578,296.83091 c -9.25368,9.18065 -8.7661,12.25234 -4.1572,12.73952 3.08324,-3.46112 9.54874,-6.66454 10.23255,-12.73952 z"
         id="path1097" sodipodi:nodetypes="cccc" />
      <path style="fill:#c2afa1;stroke:none;stroke-width:3.03767"
         d="m 302.27706,299.86858 c -2.99514,4.49119 -3.03767,3.65493 -3.03767,9.11301 5.36453,-2.97266 5.93865,-3.71143 3.03767,-9.11301 z"
         id="path1098" />
      <path style="fill:#78736d;stroke:none;stroke-width:3.03767" d="m 147.35591,302.90624 3.03767,3.03768 z"
         id="path1099" />
      <path style="fill:#cdc2b4;stroke:none;stroke-width:3.03767"
         d="m 314.42773,302.90624 -3.03767,15.18836 c 7.71265,0 7.01398,4.90279 9.11301,12.15067 3.61787,-10.20474 0.23694,-18.85572 -6.07534,-27.33903 z"
         id="path1100" />
      <path style="fill:#56504b;stroke:none;stroke-width:3.03767"
         d="m 362.79542,307.68262 c -0.19442,9.34964 -1.3305,18.14977 -3.03766,27.33903 6.5249,-8.61483 7.22358,-17.34054 3.03766,-27.33903 z"
         id="path1101" />
      <path style="fill:#bd8e7b;stroke:none;stroke-width:3.03767"
         d="m 314.42773,315.05693 c -3.60267,3.60358 -4.64156,4.81106 -6.07534,9.113 -3.60267,-3.14581 -4.87242,-4.06623 -9.113,-6.07533 1.58262,17.00791 2.51822,32.67621 9.113,48.60271 l 18.22603,-6.07535 c 3.30498,10.63185 11.2333,15.91436 18.22602,24.30137 8.15917,-1.52188 16.00851,-2.68226 24.30134,-3.03768 l -3.03766,-12.15067 -9.11301,3.03766 c -1.18469,-8.83354 -10.19442,-11.5158 -16.1999,-18.4508 -10.94775,-12.64278 -17.4028,-25.84753 -26.32748,-39.26491 z"
         id="path1102" />
      <path style="fill:#e1cfc0;stroke:none;stroke-width:3.03767"
         d="m 323.54074,321.13227 c 1.26975,8.16829 2.17801,10.79588 9.11301,15.18834 -2.27521,-6.8469 -4.08263,-10.06684 -9.11301,-15.18834 z"
         id="path1103" />
      <path style="fill:#b7a896;stroke:none;stroke-width:3.03767"
         d="m 314.42773,324.16993 c -2.99514,4.49272 -3.03767,3.65432 -3.03767,9.11301 3.91556,-4.38335 4.25578,-3.74848 3.03767,-9.11301 z"
         id="path1104" />
      <path style="fill:#c5ac96;stroke:none;stroke-width:3.03767" d="m 350.87976,327.2076 3.03768,3.03767 z"
         id="path1105" />
      <path style="fill:#c3b09f;stroke:none;stroke-width:3.03767"
         d="m 320.50307,330.24527 c 3.72419,6.18166 5.17315,7.06562 12.15068,9.11302 -4.07351,-3.87 -7.29952,-6.19989 -12.15068,-9.11302 z"
         id="path1106" />
      <path style="fill:#877163;stroke:none;stroke-width:3.03767"
         d="m 162.39767,332.75224 c 4.11938,20.41617 25.69369,40.47605 45.71163,46.09575 -9.9028,-16.66162 -31.51417,-32.75735 -45.71163,-46.09575 z"
         id="path1107" sodipodi:nodetypes="ccc" />
      <path style="fill:#b8ac9b;stroke:none;stroke-width:3.03767"
         d="m 359.99277,333.28294 v 15.18836 c 2.52127,-6.16648 2.52127,-9.02189 0,-15.18836 z" id="path1108" />
      <path style="fill:#332f2a;stroke:none;stroke-width:3.03767" d="m 165.58192,342.39595 3.03767,3.03767 z"
         id="path1109" />
      <path style="fill:#a88773;stroke:none;stroke-width:3.03767"
         d="m 296.20172,342.39595 c -4.27401,19.58385 -19.02492,36.23636 -39.4897,39.4897 7.2418,7.92225 14.09292,20.1441 23.69197,25.17449 8.47206,4.43802 19.59452,1.07502 28.57386,2.02278 9.32261,0.98723 17.70688,3.75963 26.71358,6.2171 3.33536,-6.32443 5.11846,-11.14825 6.07533,-18.22601 -9.59296,-2.84326 2.2428,-6.16128 -3.01237,-14.65764 -4.24058,2.0079 -1.44156,-17.50397 -5.04422,-14.35694 6.40614,-8.67751 -9.17857,-11.41144 -19.19398,-6.31541 -7.61848,-7.15674 -11.4372,-11.53215 -18.31447,-19.34807 z"
         id="path1110" sodipodi:nodetypes="cccccccccc" />
      <path style="fill:#dfc8ae;stroke:none;stroke-width:3.03767"
         d="m 332.65375,342.39595 c 2.84326,5.92042 4.22843,7.74606 9.11301,12.15068 -2.35724,-6.47631 -3.43256,-8.41738 -9.11301,-12.15068 z"
         id="path1111" />
      <path style="fill:#413c39;stroke:none;stroke-width:3.03767" d="m 171.65727,351.50896 3.03766,3.03767 z"
         id="path1112" />
      <path style="fill:#645f5d;stroke:none;stroke-width:3.03767" d="m 363.03045,351.50896 3.03767,3.03767 z"
         id="path1113" />
      <path style="fill:#44423f;stroke:none;stroke-width:3.03767" d="m 174.69493,354.54663 3.03768,3.03768 z"
         id="path1114" />
      <path style="fill:#352f2c;stroke:none;stroke-width:3.03767" d="m 366.06812,354.54663 3.03766,3.03768 z"
         id="path1115" />
      <path style="fill:#84553f;stroke:none;stroke-width:3.03767"
         d="m 314.42773,363.65963 c 5.05166,4.56562 8.79709,6.67985 15.18835,9.11301 l -3.03766,-12.15068 z"
         id="path1116" />
      <path style="fill:#655651;stroke:none;stroke-width:3.03767"
         d="m 361.28771,359.99652 4.78041,12.77612 c 5.45869,0 7.43481,6.64974 11.92753,3.65459 -0.47288,-7.53114 -13.62471,-12.97082 -16.70794,-16.43071 z"
         id="path1117" sodipodi:nodetypes="cccc" />
      <path style="fill:#d8b69a;stroke:none;stroke-width:3.03767"
         d="m 355.94357,364.67118 c -1.35177,1.35177 1.85601,1.18166 2.02308,1.01459 1.35176,-1.35177 -1.85601,-1.18166 -2.02308,-1.01459 z"
         id="path1118" />
      <path style="fill:#332e2b;stroke:none;stroke-width:3.03767" d="m 186.84562,366.69731 3.03767,3.03767 z"
         id="path1119" />
      <path style="fill:#563e35;stroke:none;stroke-width:3.03767"
         d="m 311.39006,375.81032 c 5.8384,-2.73998 6.0723,-3.26854 9.11301,-9.11301 -6.45201,2.73086 -6.38214,2.66099 -9.11301,9.11301 z"
         id="path1120" />
      <path style="fill:#100c08;stroke:none;stroke-width:3.03767"
         d="m 317.4654,369.73498 c 3.90341,9.73573 7.90401,11.33658 18.22603,12.15067 -5.75943,-6.13609 -10.37366,-9.09782 -18.22603,-12.15067 z"
         id="path1121" />
      <path style="fill:#d5bfa8;stroke:none;stroke-width:3.03767"
         d="m 358.98124,370.74652 c -1.35177,1.35176 1.85602,1.18165 2.02308,1.01457 1.35176,-1.35175 -1.85602,-1.18164 -2.02308,-1.01457 z"
         id="path1122" />
      <path style="fill:#9e887a;stroke:none;stroke-width:3.03767"
         d="m 372.14346,369.73498 3.03767,18.22602 c 4.90887,-7.95566 4.62637,-12.65494 -3.03767,-18.22602 z"
         id="path1123" />
      <path style="fill:#34312f;stroke:none;stroke-width:3.03767" d="m 192.92094,372.77264 3.03768,3.03768 z"
         id="path1124" />
      <path style="fill:#7b675b;stroke:none;stroke-width:3.03767"
         d="m 232.41065,372.77264 c -8.44472,4.52614 -14.72661,5.80499 -24.30135,6.07535 9.07656,5.87789 17.72768,12.76665 26.4242,19.28743 4.75395,-9.01276 3.76416,-16.91197 -2.12285,-25.36278 z"
         id="path1125" sodipodi:nodetypes="cccc" />
      <path style="fill:#553627;stroke:none;stroke-width:3.03767" d="m 326.57842,372.77264 3.03766,3.03768 z"
         id="path1126" />
      <path style="fill:#946352;stroke:none;stroke-width:3.03767"
         d="m 329.61608,372.77264 c 9.67188,12.67645 6.16777,44.34409 15.18836,39.48971 4.57472,-9.44107 6.76791,-20.12152 9.113,-30.3767 l -9.113,3.03768 c -4.19807,-7.35117 -7.17802,-9.29831 -15.18836,-12.15069 z"
         id="path1127" sodipodi:nodetypes="ccccc" />
      <path style="fill:#524131;stroke:none;stroke-width:3.03767"
         d="m 366.06812,372.77264 c 2.35722,6.47632 3.43257,8.41739 9.11301,12.15069 v -12.15069 z" id="path1128" />
      <path style="fill:#645e58;stroke:none;stroke-width:3.03767" d="m 378.2188,372.77264 3.03767,3.03768 z"
         id="path1129" />
      <path style="fill:#3c3936;stroke:none;stroke-width:3.03767" d="m 195.95862,375.81032 3.03767,3.03767 z"
         id="path1130" />
      <path style="fill:#75574b;stroke:none;stroke-width:3.03767"
         d="m 311.39006,381.88565 9.11301,-3.03766 c -5.40097,-2.90098 -6.13913,-2.32686 -9.11301,3.03766 z"
         id="path1131" />
      <path style="fill:#6d5e59;stroke:none;stroke-width:3.03767"
         d="m 360.11638,374.93468 1.84082,32.54024 c 6.59804,-4.63004 33.88609,-31.63939 12.36533,-32.6653 z"
         id="path1132" sodipodi:nodetypes="cccc" />
      <path style="fill:#877264;stroke:none;stroke-width:3.03767"
         d="m 238.48599,378.84799 -6.07534,21.26368 c 8.40827,0.24909 16.55531,0.48603 23.61789,5.75335 16.17255,12.05347 15.39187,41.26674 40.10939,42.24486 5.2582,0.20657 10.20353,-1.24543 15.25213,-2.43316 l -3.03767,15.18834 c 6.70414,-2.15066 14.83294,-7.76124 21.26369,-6.07533 6.7892,-6.05712 16.02768,-14.08495 9.20205,-23.17366 -1.88427,-17.27382 -32.7647,-12.59973 -48.64619,-16.22492 -17.68574,-11.37747 -23.16861,-34.23651 -51.68595,-36.54316 z"
         id="path1133" sodipodi:nodetypes="cccccccccc" />
      <path style="fill:#866c5d;stroke:none;stroke-width:3.03767"
         d="m 314.42773,387.961 c 5.73974,-0.13943 7.87359,-0.0243 6.07534,-9.11301 -7.12978,2.94395 -11.84837,1.06503 -6.07534,9.11301 z"
         id="path1134" sodipodi:nodetypes="ccc" />
      <path style="fill:#211918;stroke:none;stroke-width:3.03767"
         d="m 326.57842,390.99866 15.18834,3.03768 c -0.53463,-5.70475 -1.3305,-9.71751 -3.03767,-15.18835 -7.53646,3.08931 -9.91496,4.36816 -12.15067,12.15067 z"
         id="path1135" />
      <path style="fill:#4d3e39;stroke:none;stroke-width:3.03767" d="m 323.54074,381.88565 3.03768,3.03768 z"
         id="path1136" />
      <path style="fill:#292021;stroke:none;stroke-width:3.03767"
         d="m 350.87976,400.11167 c 5.80499,-5.7503 13.74972,2.4199 13.33051,-5.68156 l 4.89551,-9.50678 c -17.01125,-11.94121 -26.25594,2.82533 -18.22602,15.18834 z"
         id="path1137" sodipodi:nodetypes="cccc" />
      <path style="fill:#6c574b;stroke:none;stroke-width:3.03767"
         d="m 256.71202,384.92333 c -7.70718,3.28907 4.31029,3.99748 9.11301,6.07533 -3.71508,-3.63001 -3.54831,-10.11917 -9.11301,-6.07533 z"
         id="path1138" sodipodi:nodetypes="ccc" />
      <path style="fill:#9c8272;stroke:none;stroke-width:3.03767"
         d="m 347.84211,397.07401 c -0.87182,8.71204 -5.44173,17.70757 -8.45205,25.92751 l 20.60271,10.52452 c 4.00366,-7.94047 6.64036,-15.7564 9.11301,-24.30136 -4.80558,-6.24849 -5.54677,-10.29162 -6.07533,-18.22602 4.96658,1.65553 4.4198,1.10875 6.07533,6.07535 2.07473,-4.57474 2.50912,-7.03221 3.03768,-12.15068 -8.89126,3.34751 -14.90585,10.90219 -24.30135,12.15068 z"
         id="path1139" sodipodi:nodetypes="cccccccc" />
      <path style="fill:#39312e;stroke:none;stroke-width:3.03767"
         d="m 326.57842,390.99866 c 4.68711,3.84873 6.22114,4.52309 12.15067,6.07535 l -3.03766,-9.11301 c -5.45869,0 -4.62031,0.0425 -9.11301,3.03766 z"
         id="path1140" />
      <path style="fill:#554540;stroke:none;stroke-width:3.03767"
         d="m 262.78735,390.99866 c 4.0401,5.32504 6.82564,8.11058 12.15068,12.15068 -3.50547,-6.83171 -5.31897,-8.64521 -12.15068,-12.15068 z"
         id="path1141" />
      <path style="fill:#cfb295;stroke:none;stroke-width:3.03767"
         d="m 363.03045,390.99866 v 18.22602 h 6.07533 v -18.22602 z" id="path1142" />
      <path style="fill:#6b5952;stroke:none;stroke-width:3.03767"
         d="m 229.37299,394.03634 4.59948,13.95004 c 31.34541,-1.92553 28.03842,-6.46217 6.81326,-9.61341 -2.95565,-3.85784 -7.5549,-1.38098 -11.41274,-4.33663 z"
         id="path1143" sodipodi:nodetypes="cccc" />
      <path style="fill:#655042;stroke:none;stroke-width:3.03767" d="m 356.95511,394.03634 3.03766,3.03767 z"
         id="path1144" />
      <path style="fill:#4a3835;stroke:none;stroke-width:3.03767"
         d="m 235.44832,403.14934 c 7.08385,2.9921 13.5389,2.97995 21.2637,3.03767 -7.61848,-5.72905 -12.09601,-5.51945 -21.2637,-3.03767 z"
         id="path1145" />
      <path style="fill:#4a3a36;stroke:none;stroke-width:3.03767"
         d="m 274.93803,403.14934 c 8.68166,15.24607 26.71023,16.80743 42.52737,21.26369 -8.70596,-10.77765 -29.8694,-14.63853 -42.52737,-21.26369 z"
         id="path1146" />
      <path style="fill:#6d5a52;stroke:none;stroke-width:3.03767"
         d="m 259.74969,406.18701 -14.03599,-2.50194 c 7.05652,4.48663 21.59067,26.48131 29.22433,29.84097 -4.7661,-9.31046 -8.88214,-19.04012 -15.18834,-27.33903 z"
         id="path1147" sodipodi:nodetypes="cccc" />
      <path style="fill:#9a7a66;stroke:none;stroke-width:3.03767"
         d="m 287.08871,409.22468 c 15.43744,11.00244 42.85241,18.19564 54.67805,0 -3.9915,2.33292 -3.7424,2.08385 -6.07533,6.07534 -17.38763,-6.69503 -30.09723,-9.49878 -48.60272,-6.07534 z"
         id="path1148" />
      <path style="fill:#7b6253;stroke:none;stroke-width:3.03767"
         d="m 341.76676,406.18701 c 2.10258,-18.02413 -6.25806,8.41957 -10.61408,12.65105 12.5718,7.62996 15.10998,-1.54129 10.61408,-12.65105 z"
         id="path1149" sodipodi:nodetypes="ccc" />
      <path style="fill:#363432;stroke:none;stroke-width:3.03767" d="m 247.59901,412.26235 3.03766,3.03767 z"
         id="path1150" />
      <path style="fill:#c4b9ab;stroke:none;stroke-width:3.03767" d="m 256.71202,412.26235 3.03767,3.03767 z"
         id="path1151" />
      <path style="fill:#57514d;stroke:none;stroke-width:3.03767" d="m 366.06812,412.26235 3.03766,3.03767 z"
         id="path1152" />
      <path style="fill:#947d6b;stroke:none;stroke-width:3.03767"
         d="m 284.05104,418.33769 c -2.57595,17.66101 12.5395,20.04255 27.33902,21.26368 -8.56927,-7.72479 -17.80377,-14.7661 -27.33902,-21.26368 z"
         id="path1153" />
      <path style="fill:#4d4a49;stroke:none;stroke-width:3.03767" d="m 256.71202,421.37536 3.03767,3.03767 z"
         id="path1154" />
      <path style="fill:#3f2f2b;stroke:none;stroke-width:3.03767"
         d="m 317.4654,421.37536 c 11.88641,5.72601 26.53709,9.45627 39.48971,12.15068 C 345.4356,417.0365 332.51344,412.67147 317.4654,421.37536 Z"
         id="path1155" sodipodi:nodetypes="ccc" />
      <path style="fill:#2c2a28;stroke:none;stroke-width:3.03767" d="m 262.78735,427.4507 3.03768,3.03767 z"
         id="path1156" />
      <path style="fill:#6b5952;stroke:none;stroke-width:3.03767"
         d="m 335.69143,427.4507 c 1.88031,6.43074 2.84022,11.54922 3.03766,18.22602 35.89587,-15.23085 22.53082,-19.22517 -3.03766,-18.22602 z"
         id="path1157" sodipodi:nodetypes="ccc" />
      <path style="fill:#705f57;stroke:none;stroke-width:3.03767"
         d="m 288.25004,445.58716 c 5.82322,5.47388 13.65026,11.70138 21.47832,13.36602 l 1.6617,-13.27646 z"
         id="path1158" sodipodi:nodetypes="cccc" />
      <path style="fill:#a79f92;stroke:none;stroke-width:3.03767" d="m 302.27706,454.78973 3.03767,3.03766 z"
         id="path1159" />
      <path style="fill:#565048;stroke:none;stroke-width:3.03767" d="m 326.57842,454.78973 3.03766,3.03766 z"
         id="path1160" />
      <path style="fill:#544e4b;stroke:none;stroke-width:3.03767"
         d="m 302.21452,454.88781 c 3.71506,3.63002 4.12584,5.49864 8.92536,7.57641 -0.96309,-5.06854 -4.12585,-5.49864 -8.92536,-7.57641 z"
         id="path1161" sodipodi:nodetypes="ccc" />
      <path style="fill:#4c4946;stroke:none;stroke-width:3.03767" d="m 314.42773,457.82739 3.03767,3.03767 z"
         id="path1162" />
   </g>
</svg>